{"glyphs":{":":{"x_min":0,"x_max":249,"ha":249,"o":"m 166 325 q 166 309 133 278 l 108 278 q 99 287 90 288 l 87 298 l 81 302 l 80 316 q 80 317 91 341 l 98 341 l 102 348 l 102 352 l 113 348 l 121 349 l 120 353 q 128 356 132 356 l 143 353 l 150 339 z m 166 30 l 160 14 q 151 11 142 3 q 133 -5 125 -5 l 123 -5 q 121 -5 113 -9 q 107 -1 94 6 q 81 14 81 17 q 81 18 83 18 l 85 41 l 91 48 l 90 56 q 89 60 115 78 q 125 75 142 73 l 153 58 l 160 55 l 160 48 l 165 45 l 163 34 z"},"$":{"x_min":0,"x_max":650,"ha":650,"o":"m 592 166 l 587 162 l 580 134 q 547 112 528 112 l 524 112 q 519 111 511 107 q 502 103 499 103 l 478 103 l 460 91 l 455 94 l 435 87 q 416 87 405 79 q 393 71 393 59 q 393 56 396 40 q 400 24 400 9 q 400 0 396 -20 q 393 -40 393 -49 q 393 -60 400 -71 l 394 -73 l 398 -90 l 393 -103 l 398 -117 l 396 -128 l 398 -140 l 393 -154 q 400 -167 400 -181 l 400 -192 l 393 -197 l 402 -249 l 391 -254 l 387 -241 l 387 -230 l 384 -160 l 380 -131 l 382 -109 q 383 -104 383 -95 q 383 -82 379 -82 l 377 -83 l 380 -53 l 375 -26 l 384 -5 q 384 7 375 7 q 374 13 374 22 l 375 30 l 375 48 l 376 58 q 376 66 373 71 l 361 75 l 353 68 l 330 68 l 313 62 l 309 55 l 316 48 l 307 37 l 314 25 q 312 14 306 6 l 313 -13 l 306 -58 l 309 -76 l 304 -90 l 311 -103 l 306 -133 l 311 -160 l 306 -176 l 309 -188 q 316 -197 316 -208 l 314 -222 l 322 -236 q 322 -245 313 -245 q 308 -245 307 -231 q 306 -217 302 -208 l 297 -196 q 295 -190 295 -173 l 297 -153 l 297 -122 l 291 -105 l 288 -73 q 293 -68 293 -61 l 291 -51 l 290 -21 l 293 -3 l 288 22 l 288 57 l 274 55 q 265 52 259 52 l 253 53 q 250 53 244 50 q 238 47 234 47 q 231 47 220 52 l 210 47 l 187 50 l 153 42 l 113 48 l 101 47 l 96 52 l 85 50 l 66 52 l 57 48 l 50 57 l 30 57 l 12 68 l 3 66 l -4 75 l -7 75 q -20 75 -20 94 q -20 105 -9 107 l 21 112 l 22 118 l 57 114 l 73 118 q 76 116 76 113 q 76 108 66 98 l 30 93 l 25 86 q 26 80 40 76 q 53 72 58 70 q 70 75 79 75 l 89 75 q 100 75 105 70 l 162 66 q 171 70 181 70 l 187 70 q 197 77 218 77 l 227 77 l 259 78 l 291 86 l 290 106 l 293 208 l 288 213 l 288 230 q 280 238 274 238 l 270 237 q 264 237 258 237 l 247 238 q 243 238 229 244 l 206 238 l 202 242 l 170 254 l 162 262 l 142 267 q 136 276 124 285 l 118 328 q 118 344 133 362 l 134 362 q 136 362 138 364 q 141 365 144 368 q 147 371 153 376 q 158 381 163 382 q 168 384 174 385 l 202 397 l 222 398 l 242 406 l 256 406 l 265 413 l 266 420 l 279 422 l 297 420 l 297 427 l 291 437 q 295 466 298 490 l 291 506 l 302 525 l 298 539 l 298 567 l 294 591 l 294 604 q 297 605 301 605 q 304 605 304 602 q 299 612 299 628 q 299 644 316 644 q 332 644 343 625 l 334 610 l 345 600 q 327 595 327 584 l 327 582 l 329 555 l 322 536 l 327 530 l 325 514 l 330 504 l 330 490 l 322 481 l 325 459 l 316 440 q 322 423 332 423 q 334 423 339 425 l 377 440 l 373 461 l 377 477 l 373 507 l 377 522 l 375 542 l 377 566 l 371 594 l 382 598 l 382 623 l 384 641 l 383 648 l 412 651 l 421 639 l 416 626 l 418 602 l 409 589 l 410 573 l 403 564 l 410 545 q 401 539 401 530 q 401 525 412 497 q 400 487 400 468 q 400 441 415 441 l 453 449 l 490 453 l 509 445 l 521 445 l 540 440 l 566 417 l 563 410 q 543 397 532 397 q 525 397 521 398 q 510 409 510 417 q 501 416 498 413 l 492 422 l 466 418 l 442 420 l 437 413 l 423 420 l 414 418 l 413 418 q 409 418 404 399 q 399 379 401 368 q 403 356 403 347 l 403 340 q 403 333 401 324 q 399 315 399 312 q 399 303 405 292 l 398 275 l 400 260 l 396 240 l 421 234 q 431 234 441 237 q 451 224 453 223 q 456 221 459 221 q 464 221 467 228 l 476 224 l 489 226 l 490 221 l 510 221 l 522 212 l 535 215 l 546 206 l 567 203 l 569 198 l 590 173 z m 378 397 q 378 398 374 406 q 370 413 362 413 q 356 413 348 406 q 328 403 325 401 q 322 398 322 395 l 322 391 l 323 366 l 316 330 l 323 283 q 313 266 313 258 l 313 255 q 313 253 316 250 l 330 251 l 347 246 l 361 250 l 375 250 l 375 267 l 377 295 l 375 317 l 377 333 l 373 354 l 377 374 l 375 382 z m 297 318 l 290 331 l 295 362 l 293 395 l 289 396 q 281 396 275 388 l 270 390 l 262 384 q 258 382 234 379 l 229 372 l 210 372 q 201 364 190 363 l 185 353 l 176 353 q 150 335 146 328 q 142 321 142 308 q 142 303 145 295 q 148 287 150 286 q 152 285 176 283 l 183 278 l 192 279 l 202 269 l 234 262 l 250 266 l 256 262 q 270 262 293 260 l 291 311 z m 378 106 l 378 119 l 371 128 l 373 141 l 370 155 l 375 166 l 378 202 l 373 205 l 375 222 l 359 221 l 353 226 q 345 225 341 222 q 333 223 316 230 l 313 210 l 316 198 l 317 158 l 311 128 l 309 102 q 309 95 313 91 l 330 90 q 342 94 352 96 z m 562 167 q 556 176 551 186 l 540 183 l 519 192 l 506 192 l 494 205 l 470 205 l 464 212 l 441 210 l 423 218 l 410 218 l 407 219 q 398 208 398 202 l 402 174 q 396 167 396 150 l 396 142 q 398 117 399 113 q 400 109 405 106 q 425 118 437 118 q 458 122 474 129 q 491 136 494 136 q 497 136 499 134 q 535 143 545 146 q 555 150 558 158 z"},"?":{"x_min":0,"x_max":374,"ha":374,"o":"m 311 427 l 304 406 l 310 397 l 304 391 l 306 381 q 297 374 290 365 q 282 356 277 351 q 272 345 266 334 l 263 334 q 237 313 238 310 l 225 302 l 225 297 l 212 294 q 208 290 208 285 q 208 284 210 278 l 192 274 l 192 266 l 182 260 l 183 254 l 164 238 q 157 220 146 199 q 150 181 153 158 l 169 146 q 182 144 185 141 q 188 138 188 132 l 187 126 l 187 122 l 175 124 q 168 125 164 128 l 151 137 l 141 150 q 132 156 132 162 q 132 164 134 169 l 119 173 l 119 176 l 125 194 l 116 205 l 125 206 l 118 215 l 119 233 q 125 235 129 241 q 133 246 135 246 q 147 257 150 272 l 154 272 l 162 287 l 170 290 q 174 297 182 303 q 190 310 190 313 l 190 315 l 199 317 l 210 333 q 230 336 230 343 q 230 344 229 345 q 229 346 228 347 l 242 356 l 242 363 l 254 370 l 256 382 q 271 385 276 395 q 274 423 270 430 l 274 443 q 272 443 258 471 l 249 470 l 244 473 l 242 480 q 227 494 221 500 l 213 494 l 214 499 q 214 509 202 509 l 196 505 l 169 509 l 166 503 q 156 505 154 505 q 152 505 137 501 q 123 498 121 498 l 102 498 l 64 487 q 61 485 59 485 q 55 485 50 491 q 66 508 87 509 q 94 510 94 515 q 94 517 93 518 l 105 521 l 116 534 l 126 534 q 137 542 148 544 l 166 537 l 175 542 q 187 541 196 534 l 198 539 q 206 533 212 533 q 216 533 218 534 l 231 530 q 232 525 237 521 q 241 523 243 523 q 250 523 278 486 q 294 457 299 453 l 301 439 z m 190 8 l 187 -1 l 157 -9 l 134 0 l 130 10 l 125 8 l 130 18 l 127 39 l 131 39 l 133 47 q 149 42 150 42 l 154 43 q 160 42 182 27 z"},"<":{"x_min":0,"x_max":833,"ha":833,"o":"m 704 48 l 129 283 l 129 313 l 704 549 l 704 505 l 194 298 l 704 91 z"},"'":{"x_min":0,"x_max":200,"ha":200,"o":"m 127 453 l 123 438 q 115 421 115 408 l 118 394 q 118 394 114 382 q 110 370 110 351 l 112 337 l 106 310 l 99 309 l 90 315 l 92 339 q 92 343 90 353 q 85 361 85 366 l 85 369 q 87 371 87 376 l 86 382 q 86 385 87 386 l 83 392 l 86 395 l 82 403 l 85 412 l 78 420 l 82 428 l 75 435 l 76 444 l 74 453 l 77 460 l 74 466 l 76 470 l 70 478 l 70 491 q 76 503 78 506 l 94 510 q 103 513 105 513 q 115 513 124 496 l 120 478 l 125 468 z"},"=":{"x_min":0,"x_max":833,"ha":833,"o":"m 709 367 l 124 367 l 124 406 l 709 406 z m 709 190 l 124 190 l 124 229 l 709 229 z"},"a":{"x_min":0,"x_max":495,"ha":495,"o":"m 407 9 l 393 2 l 390 -7 q 382 -9 375 -12 l 370 -9 l 363 -12 l 347 7 l 347 29 l 340 35 l 342 66 l 336 130 l 340 151 l 333 162 l 342 167 l 336 176 l 338 185 l 343 189 l 342 201 l 347 201 l 347 221 l 349 231 q 345 232 340 240 l 324 233 q 318 221 311 217 l 310 206 l 299 201 l 297 187 l 290 182 l 290 175 q 280 167 276 157 l 269 153 l 254 126 l 230 102 l 222 89 l 201 67 l 196 55 l 167 35 l 135 -3 l 124 -6 q 119 -7 109 -16 l 106 -16 q 98 -16 93 0 q 55 15 53 42 l 61 47 q 54 66 53 86 l 48 90 l 51 95 q 53 98 54 105 q 55 112 57 125 l 64 162 q 63 164 63 169 q 63 174 66 180 q 64 188 64 191 q 64 195 66 201 l 70 202 q 78 213 78 221 q 78 226 75 229 q 72 232 72 233 q 72 236 77 238 q 70 239 70 244 q 70 249 80 249 l 80 251 q 80 262 86 271 q 92 280 93 283 l 86 285 l 99 306 l 99 311 q 99 332 113 347 l 112 365 l 116 368 q 113 373 113 378 q 113 381 119 381 l 119 397 q 124 398 124 402 q 124 405 123 407 q 126 412 137 423 q 147 435 151 443 l 154 443 q 165 443 165 448 q 165 450 162 453 q 182 453 183 461 l 201 470 l 253 466 l 253 462 l 295 453 l 299 453 q 308 453 308 445 l 313 447 q 315 438 324 438 l 329 439 l 338 430 l 359 425 l 359 416 q 373 425 395 432 l 395 416 l 390 416 l 400 411 l 398 409 l 406 384 l 397 374 l 393 357 q 391 349 384 337 l 390 324 q 389 323 385 316 q 380 310 380 294 q 383 292 383 289 l 381 281 l 382 274 l 379 263 l 381 254 l 375 247 l 377 225 l 374 222 l 377 218 l 374 215 q 375 214 375 211 q 375 207 372 202 l 375 196 l 370 187 q 366 185 366 173 l 370 160 l 361 148 q 366 138 370 135 q 363 125 358 96 l 366 94 l 365 89 q 366 87 366 82 q 366 74 359 62 l 365 62 l 368 47 l 388 45 l 395 32 q 392 30 392 29 q 392 25 402 19 l 401 19 q 399 19 399 18 q 399 16 407 9 z m 356 368 l 350 386 l 334 391 l 306 416 q 300 420 296 420 q 293 420 288 418 l 283 423 l 267 423 l 262 429 l 251 425 l 246 429 l 238 427 l 222 429 q 211 429 187 418 l 189 414 l 180 411 l 178 407 l 167 406 l 167 400 q 157 394 144 368 q 136 338 126 317 l 134 313 l 121 302 l 125 294 q 116 281 116 263 l 116 258 l 109 247 l 109 230 q 101 221 100 212 l 96 208 l 96 190 l 93 185 q 93 175 89 158 l 94 146 q 88 144 80 134 l 84 126 l 78 118 l 86 98 l 77 86 l 78 62 l 75 51 l 80 48 l 82 41 q 90 38 96 30 l 119 35 q 125 50 141 51 l 139 58 q 154 62 155 62 q 156 62 157 68 q 159 73 166 78 l 168 78 q 171 78 171 82 l 189 103 l 185 103 l 196 113 q 201 118 212 122 l 219 141 q 238 149 240 162 l 246 162 l 256 175 l 254 183 l 263 185 q 261 188 261 190 q 261 191 268 201 q 275 210 279 217 l 283 215 q 285 227 294 233 q 296 241 302 245 q 308 250 310 250 l 317 250 l 318 262 q 320 264 320 266 q 320 269 317 272 q 326 287 331 290 l 333 301 l 340 306 l 338 315 q 344 324 345 333 l 354 342 z"},"L":{"x_min":0,"x_max":614,"ha":614,"o":"m 609 87 l 618 87 q 630 87 630 81 q 630 71 611 71 q 610 71 604 67 q 599 63 592 62 l 556 57 l 533 57 l 523 51 q 518 47 512 46 l 495 45 l 487 37 l 440 35 l 413 22 q 392 21 386 11 q 374 11 360 16 l 339 9 l 315 8 l 293 0 l 240 0 l 207 9 l 186 7 l 178 14 l 159 16 l 129 47 q 109 68 102 107 q 99 122 90 144 l 98 178 l 94 213 l 101 218 l 102 266 l 107 280 q 110 287 113 313 l 120 318 l 114 329 l 114 386 q 125 406 125 414 l 124 448 l 140 468 l 125 478 l 131 496 l 142 502 l 136 518 l 149 523 l 152 532 l 159 534 l 170 532 l 182 504 q 166 491 166 484 q 166 483 165 482 q 165 480 170 478 q 176 476 177 473 l 166 441 l 166 404 l 156 371 l 153 339 l 137 269 l 142 262 l 138 253 q 136 248 133 229 q 130 210 130 208 l 133 178 l 129 167 l 137 122 l 136 118 l 152 82 l 152 71 l 202 39 l 241 35 l 241 32 l 278 34 l 316 41 l 344 41 l 344 37 l 355 47 l 408 48 l 421 56 l 458 58 l 475 63 l 538 67 l 565 75 q 573 73 584 73 q 595 73 595 80 l 595 82 q 604 82 609 87 z"},"3":{"x_min":0,"x_max":566,"ha":566,"o":"m 515 110 l 504 99 q 502 96 501 92 l 498 80 l 483 72 l 475 72 l 475 64 l 466 62 l 454 47 q 437 42 427 37 q 417 32 411 32 q 404 21 378 19 q 374 15 354 10 q 335 4 335 4 l 323 6 l 279 -7 l 262 -6 l 243 -1 q 237 -1 222 -6 l 202 -9 l 186 -6 l 176 -9 q 169 -5 158 -3 l 146 -9 q 144 -9 140 -4 q 137 1 133 2 q 131 -5 124 -8 q 120 -7 112 -1 q 112 -8 109 -8 q 108 -8 100 -4 q 93 0 82 0 l 80 -3 l 69 6 l 58 0 l 46 5 q 44 5 42 2 q 39 -1 37 -1 l 35 0 l 35 2 q 35 7 24 8 q 14 8 12 15 q 10 22 10 45 q 10 64 23 64 l 29 64 q 30 67 57 71 l 80 74 q 82 74 85 71 q 89 68 89 64 q 89 61 86 59 q 83 57 56 53 q 44 52 43 38 l 37 34 q 55 26 79 23 q 84 19 90 19 q 97 19 104 25 l 106 19 l 137 25 q 147 21 147 10 q 167 22 202 22 q 210 22 221 19 q 224 27 229 27 q 230 27 235 24 q 238 20 243 18 q 257 31 262 31 l 263 31 q 269 24 283 24 l 305 29 l 323 27 l 341 42 q 353 40 356 40 q 372 40 384 51 q 389 50 398 50 q 403 50 405 51 l 403 61 l 419 74 l 434 72 q 436 75 452 85 q 469 95 481 110 q 485 136 485 139 q 485 144 484 146 q 482 149 480 152 q 477 154 473 156 q 469 157 464 159 q 458 160 452 166 l 440 175 l 410 181 l 389 176 l 382 186 l 371 184 l 353 200 l 344 192 q 336 195 329 195 q 325 195 317 192 q 309 200 301 200 l 292 197 q 280 193 270 192 l 264 198 l 237 201 l 218 210 l 198 209 q 181 218 173 225 l 173 240 l 170 251 l 187 254 q 200 266 222 268 q 245 270 245 275 l 278 274 q 285 278 288 288 q 312 293 317 299 l 339 299 l 342 306 l 348 306 q 368 306 368 315 q 368 316 366 322 q 368 324 399 329 q 399 332 407 337 q 415 341 417 349 q 444 356 444 371 l 443 376 q 443 378 445 378 q 441 402 410 411 l 370 422 l 345 420 l 337 422 q 328 424 320 424 l 294 421 l 282 422 l 266 417 l 248 422 l 238 421 l 230 411 q 213 410 210 409 q 208 408 200 402 l 195 406 l 182 402 l 178 405 l 168 399 q 164 391 160 391 q 155 391 150 395 l 147 395 q 136 395 128 384 l 125 384 q 106 384 94 358 q 78 358 77 349 l 63 355 l 56 366 q 53 373 51 375 q 52 377 52 381 q 52 386 50 389 l 62 397 q 63 401 69 401 l 78 400 l 83 407 l 92 406 l 97 406 q 103 406 103 409 q 102 410 102 411 q 111 417 122 418 q 134 419 141 430 l 155 430 q 165 438 176 438 q 179 435 186 436 q 193 437 200 437 q 208 438 222 441 l 247 448 l 264 445 q 275 452 292 452 l 299 452 q 307 448 313 448 q 314 449 315 449 q 319 449 325 442 l 344 448 l 364 447 l 379 448 l 379 445 l 397 438 q 398 435 437 427 l 447 411 l 458 402 q 464 397 466 392 l 472 378 q 470 376 466 366 q 450 325 422 318 l 417 310 q 414 307 395 298 l 371 293 l 357 282 q 333 275 318 266 q 315 270 313 270 q 310 270 307 264 l 296 264 l 290 256 q 269 251 256 243 l 251 245 q 244 239 244 234 q 244 229 251 229 q 267 224 270 221 l 283 225 l 290 221 l 304 222 q 307 218 313 218 l 318 218 l 334 222 l 349 213 l 360 219 q 367 218 368 213 q 391 203 417 203 q 423 195 438 195 l 442 195 l 459 194 l 474 181 l 485 181 l 499 165 l 504 143 q 505 139 515 128 l 513 120 z"},";":{"x_min":0,"x_max":249,"ha":249,"o":"m 180 331 q 176 328 176 325 q 176 324 178 315 q 178 303 167 296 q 155 289 142 279 l 125 281 l 119 276 l 110 285 l 103 284 q 103 292 98 295 q 85 300 85 307 l 90 315 l 94 317 l 89 329 l 89 342 l 94 338 l 96 354 l 110 359 l 110 368 q 117 361 124 361 q 133 361 141 365 q 145 358 148 358 q 150 358 151 359 q 178 337 180 331 z m 166 56 l 157 39 l 143 31 l 136 19 l 121 4 l 116 -5 l 100 -16 l 67 -55 l 46 -68 q 43 -78 40 -84 q 36 -91 32 -92 q 27 -93 23 -96 q 16 -119 10 -122 l 1 -123 q 2 -107 3 -102 l 7 -97 q 7 -82 22 -74 q 22 -73 27 -67 q 31 -61 34 -51 l 35 -54 q 39 -51 39 -48 l 39 -45 l 47 -37 l 46 -29 q 58 -24 61 -10 q 61 -8 75 1 l 75 8 l 82 10 q 82 39 93 49 l 100 46 l 98 62 l 102 77 q 103 86 109 91 q 115 96 125 96 q 144 96 153 83 l 164 80 z"},"J":{"x_min":0,"x_max":262,"ha":262,"o":"m 166 315 l 159 308 l 161 287 l 158 262 l 162 233 l 159 225 l 161 208 l 147 194 l 152 187 l 145 185 l 153 180 l 152 164 l 153 153 l 143 146 l 150 132 q 140 120 140 100 l 143 78 l 143 53 l 150 53 l 137 47 l 137 32 l 136 18 l 136 0 l 124 -16 l 129 -23 l 122 -30 q 120 -42 120 -53 l 113 -62 l 114 -71 l 108 -74 l 108 -83 l 101 -93 l 94 -94 q 94 -99 97 -103 l 90 -103 l 90 -121 l 76 -129 l 74 -138 l 53 -176 l 11 -206 l 5 -209 l 5 -206 l -21 -225 l -31 -224 l -38 -231 l -47 -231 l -54 -237 l -86 -233 l -120 -247 l -150 -238 l -173 -241 l -184 -238 l -197 -249 l -205 -237 l -220 -238 l -248 -229 l -273 -237 l -278 -218 l -317 -222 l -328 -209 l -348 -208 l -350 -200 l -362 -202 l -374 -196 l -385 -196 q -390 -193 -390 -186 q -390 -180 -377 -180 q -363 -180 -341 -189 l -319 -199 l -313 -199 q -296 -199 -280 -204 q -263 -209 -258 -209 l -250 -209 l -242 -217 l -211 -212 l -197 -217 l -197 -222 l -181 -217 l -153 -224 l -153 -218 l -149 -217 q -130 -217 -110 -215 l -93 -213 l -57 -213 l -49 -209 l -45 -200 l -31 -200 l -25 -192 l -18 -192 l -8 -185 q -1 -183 5 -177 l 11 -180 l 13 -169 l 27 -157 l 31 -141 l 46 -133 l 53 -103 l 55 -103 q 61 -103 63 -100 q 65 -97 66 -81 l 76 -74 l 69 -61 l 78 -51 l 76 -39 q 80 -32 84 -32 q 88 -32 92 -37 l 88 -24 l 94 2 l 94 23 l 101 23 l 104 57 l 104 62 l 107 62 q 111 62 111 64 l 104 83 l 111 86 l 111 100 l 108 103 l 114 121 l 111 138 l 118 218 l 124 238 l 118 272 l 127 288 l 118 302 l 124 329 l 113 372 l 113 418 l 104 445 l 104 462 l 97 464 l 106 516 q 110 537 131 537 q 136 537 137 534 l 142 524 q 145 519 152 514 l 145 502 l 153 486 l 152 464 l 159 461 l 159 450 l 162 437 l 153 425 l 162 422 l 159 400 l 162 347 l 159 325 z"},"V":{"x_min":0,"x_max":632,"ha":632,"o":"m 591 479 q 598 478 599 469 q 601 459 600 457 l 597 442 l 587 429 l 580 408 l 570 398 l 558 378 q 549 368 548 350 q 545 336 535 329 q 525 322 524 314 q 523 306 518 300 q 512 293 506 288 q 500 283 497 278 q 494 272 494 272 l 470 246 l 456 213 l 437 190 l 425 169 l 417 162 l 406 146 l 371 102 l 355 75 l 334 58 q 333 48 322 30 l 325 -5 q 321 -17 318 -20 q 314 -23 308 -23 q 300 -23 296 -12 q 292 -2 285 9 q 278 21 276 25 l 266 50 q 249 74 245 86 l 234 118 l 223 137 l 222 157 l 206 197 l 182 242 l 156 283 l 145 317 l 130 325 l 117 353 l 108 361 l 92 387 q 87 395 82 405 q 77 414 72 414 l 71 414 q 55 423 38 446 l 37 457 q 37 464 44 478 l 53 481 q 68 481 74 477 q 77 470 85 470 l 97 446 l 108 436 q 124 412 127 405 q 131 398 145 386 l 149 372 l 158 364 l 159 352 l 177 322 l 178 313 l 191 292 q 204 280 206 264 q 208 249 218 239 l 224 224 l 230 202 l 247 175 l 245 162 l 253 150 l 265 113 q 274 83 298 63 q 303 63 307 71 q 312 78 325 91 l 337 100 l 351 117 q 357 122 363 129 q 368 136 373 145 q 377 154 380 156 q 383 159 387 168 q 388 167 390 167 q 393 167 395 171 q 398 174 404 187 q 409 199 413 203 l 422 213 l 428 230 l 438 242 l 449 260 q 464 274 474 287 q 478 289 480 293 q 483 297 486 308 q 489 319 493 324 q 496 328 496 331 q 496 333 495 333 q 496 336 501 342 q 506 347 506 350 l 505 353 l 511 359 l 515 375 l 515 383 l 523 391 l 529 407 q 537 415 537 422 l 537 425 l 541 445 l 546 455 q 549 460 550 475 q 567 484 567 490 l 575 487 q 577 488 581 488 q 588 488 591 479 z"},"\"":{"x_min":0,"x_max":283,"ha":283,"o":"m 127 453 l 123 438 q 115 421 115 408 l 118 394 q 118 394 114 382 q 110 370 110 351 l 112 337 l 106 310 l 99 309 l 90 315 l 92 339 q 92 343 90 353 q 85 361 85 366 l 85 369 q 87 371 87 376 l 86 382 q 86 385 87 386 l 83 392 l 86 395 l 82 403 l 85 412 l 78 420 l 82 428 l 75 435 l 76 444 l 74 453 l 77 460 l 74 466 l 76 470 l 70 478 l 70 491 q 76 503 78 506 l 94 510 q 103 513 105 513 q 115 513 124 496 l 120 478 l 125 468 z m 210 478 l 204 470 l 206 466 l 203 460 l 206 453 l 204 444 l 205 435 l 198 428 l 202 420 l 195 412 l 198 403 l 194 395 l 197 392 l 194 386 q 195 385 195 383 q 195 381 194 379 q 193 376 193 375 q 193 371 195 369 l 195 366 q 195 361 190 353 q 188 343 188 339 l 190 315 l 181 309 l 174 310 l 168 337 l 170 351 l 169 372 l 162 394 l 165 408 l 163 425 q 153 447 153 453 q 153 469 160 478 l 156 496 q 165 512 176 512 q 178 512 202 506 q 210 496 210 491 z"},"7":{"x_min":0,"x_max":644,"ha":644,"o":"m 661 263 l 635 258 l 604 244 l 570 249 l 562 240 l 546 246 l 537 237 l 513 237 l 498 242 q 474 235 467 235 l 409 240 q 408 240 400 238 q 400 231 394 229 q 388 217 380 211 l 375 190 l 362 181 l 361 173 l 353 168 l 343 141 l 332 137 q 328 125 320 122 l 319 111 l 310 104 q 296 84 292 82 l 289 72 l 282 72 q 277 56 270 54 q 262 26 251 26 l 247 27 l 242 21 q 239 0 222 -9 l 209 -37 l 191 -45 l 187 -53 l 177 -53 l 177 -61 q 168 -69 166 -78 l 151 -85 l 147 -94 l 124 -104 q 119 -115 108 -128 q 98 -129 94 -137 l 79 -141 q 78 -149 74 -149 q 72 -149 68 -147 q 64 -158 53 -169 l 42 -168 l 33 -178 l 20 -182 l 7 -188 q 0 -192 -7 -192 l -26 -193 l -40 -185 q -31 -183 -9 -168 l 12 -169 l 17 -160 l 20 -160 q 31 -160 33 -150 q 36 -142 42 -142 q 44 -142 52 -145 q 60 -127 71 -127 q 74 -127 78 -129 q 92 -110 100 -110 q 114 -102 114 -95 l 114 -92 l 140 -73 l 143 -61 l 146 -61 q 154 -61 155 -55 q 157 -49 166 -33 q 195 -20 213 13 q 219 15 223 19 q 227 23 230 31 q 234 38 241 46 q 249 54 253 61 q 257 67 257 71 q 257 74 263 88 q 279 90 285 99 q 283 102 283 106 q 283 113 297 128 l 302 128 l 310 138 q 313 142 322 165 l 341 179 l 347 200 l 353 202 l 359 216 q 369 229 369 231 q 369 237 362 237 q 360 237 356 234 q 351 231 344 231 l 340 231 l 327 238 l 316 234 l 289 237 l 275 234 l 252 240 q 240 245 233 245 q 220 245 210 235 l 202 235 l 191 243 l 178 243 l 172 250 l 177 254 q 178 254 178 256 q 178 257 174 262 q 170 266 170 269 q 170 276 185 282 q 191 281 194 274 l 194 275 q 194 282 225 282 q 229 282 239 275 l 244 275 q 259 269 289 269 l 314 272 l 388 264 l 393 262 l 394 278 l 406 282 q 411 310 418 310 q 421 310 423 309 l 423 312 l 424 329 q 424 334 423 337 l 437 352 l 435 370 l 449 375 l 453 395 q 465 402 473 442 l 481 447 l 473 456 l 447 454 l 441 445 l 428 447 l 423 438 l 402 442 l 380 434 l 375 437 l 362 422 l 347 430 l 330 424 l 318 429 q 288 425 279 419 q 261 425 251 425 q 248 425 242 423 q 236 422 234 422 l 213 422 l 185 421 l 178 425 q 175 427 153 429 q 147 426 141 426 q 132 426 122 432 l 116 429 l 105 434 l 100 433 l 71 438 l 58 434 q 38 434 27 444 q 16 454 16 472 q 16 482 17 487 l 36 483 l 42 490 l 48 477 q 55 482 59 482 q 65 482 80 470 q 94 458 109 458 l 114 458 l 132 462 l 158 454 l 174 458 l 204 452 l 259 452 l 273 450 l 285 456 l 290 448 q 303 458 310 458 q 314 458 322 452 l 337 462 l 362 464 l 402 470 l 425 477 l 435 475 l 441 483 q 443 487 461 487 q 468 493 475 493 l 478 493 l 481 492 q 487 492 497 504 q 507 516 511 518 l 529 525 q 533 527 536 527 q 544 527 553 518 l 561 485 l 541 483 q 522 461 508 458 l 508 432 l 498 424 l 492 397 l 482 392 q 475 374 469 367 q 463 361 463 352 q 463 350 465 342 q 453 337 451 331 l 435 290 l 422 274 l 428 266 l 454 263 l 472 267 q 479 264 485 264 q 491 264 496 267 q 500 262 504 262 q 515 262 529 269 q 547 268 563 262 q 569 267 578 267 q 584 267 587 265 q 595 268 608 269 q 621 270 621 275 l 659 270 z"},"S":{"x_min":0,"x_max":720,"ha":720,"o":"m 605 206 l 613 194 l 647 167 q 662 154 662 121 l 663 106 q 663 98 651 81 q 639 64 621 57 q 618 51 609 51 l 606 51 q 592 37 571 37 q 564 29 553 23 l 532 25 l 514 9 l 506 14 l 493 10 q 472 9 470 6 l 439 9 q 418 0 409 0 l 382 2 l 363 -7 l 352 -5 q 349 -2 346 -2 q 341 -2 338 -7 l 306 -7 l 297 -1 l 290 -7 l 242 -5 l 219 -1 q 209 -6 203 -6 q 192 -6 175 7 l 158 0 l 153 6 l 142 6 q 124 6 107 12 q 90 18 86 18 q 84 18 80 16 l 45 41 l 23 47 q 0 76 0 93 q 0 99 7 121 l 14 120 q 23 120 26 132 l 41 134 l 34 137 l 45 138 q 53 148 57 148 q 68 148 68 130 q 55 127 45 116 q 45 112 37 108 q 29 103 26 100 l 29 94 l 29 77 q 45 68 59 51 l 71 49 q 77 48 91 39 l 109 41 l 107 47 l 134 45 l 128 41 l 150 37 l 153 32 l 199 32 l 199 29 q 206 34 213 34 q 217 34 222 32 q 228 30 244 29 l 246 23 l 260 22 l 275 22 l 285 18 l 281 22 q 294 28 303 28 q 308 28 313 23 q 322 29 334 29 q 345 29 358 25 q 364 30 372 30 q 379 30 387 25 l 423 35 l 430 45 l 461 41 l 486 47 l 482 48 q 484 50 516 51 q 519 54 521 54 l 528 53 l 553 64 l 558 62 l 558 67 l 575 67 l 575 69 q 575 78 591 78 l 598 78 l 602 82 l 599 86 q 607 94 611 94 q 622 94 622 102 q 635 121 635 128 q 635 151 558 183 l 514 201 q 497 201 466 213 q 452 224 432 224 q 419 224 413 222 l 407 230 l 393 224 l 382 237 l 366 233 l 338 247 l 320 247 l 308 256 l 292 256 l 285 266 l 283 261 l 272 261 l 258 278 q 210 278 196 295 l 185 292 l 178 308 l 162 325 q 149 357 142 365 l 146 395 l 162 416 q 171 420 176 434 q 191 444 199 445 q 202 441 205 441 l 215 455 l 219 448 l 221 455 l 258 468 l 247 470 l 257 469 q 274 469 278 480 q 301 480 329 487 l 324 491 q 327 493 333 493 q 340 493 343 491 l 340 494 l 348 493 q 358 493 361 502 l 366 502 l 378 503 q 381 503 381 502 l 381 498 q 388 503 394 503 l 400 503 l 459 509 l 462 503 l 462 510 l 475 518 q 480 508 495 508 l 500 508 q 524 508 532 503 l 525 502 q 544 502 580 490 q 615 479 615 453 q 615 434 590 430 l 586 439 l 553 450 l 539 450 l 528 464 l 507 461 l 500 468 l 491 457 l 477 468 l 447 464 l 413 473 l 404 468 q 372 466 366 462 q 364 463 359 463 q 352 463 345 455 l 322 453 l 260 430 l 244 434 l 221 416 l 208 416 l 198 402 l 173 384 q 169 382 169 380 l 169 379 q 174 363 175 352 l 185 347 l 190 337 l 205 333 l 216 325 q 221 322 244 313 l 246 308 l 269 308 l 299 288 l 311 292 q 322 289 335 280 q 347 272 352 272 q 356 272 363 276 l 363 269 l 397 266 l 407 260 l 407 263 l 414 263 l 429 253 q 456 253 466 247 q 472 248 481 248 q 494 248 503 239 q 513 230 517 230 l 519 230 l 530 233 l 537 230 l 551 230 l 578 210 z"},"}":{"x_min":0,"x_max":400,"ha":400,"o":"m 309 276 q 292 266 275 264 l 270 272 q 259 265 243 264 l 235 253 l 230 253 l 234 243 q 220 238 214 231 l 217 222 l 212 206 l 216 190 l 206 170 l 209 157 l 206 142 l 210 118 l 203 112 l 206 90 l 198 82 l 204 77 l 198 58 l 202 36 l 196 23 l 195 13 l 194 4 q 194 0 188 -9 l 195 -14 l 181 -23 l 184 -41 l 172 -43 l 167 -53 l 160 -60 q 156 -63 150 -77 q 137 -82 111 -85 l 88 -89 l 75 -85 l 62 -97 l 51 -93 l 45 -82 l 50 -58 l 62 -52 l 79 -57 l 92 -54 l 106 -60 l 111 -55 q 129 -53 145 -45 l 147 -32 l 155 -24 q 158 -22 160 -18 q 162 -13 166 -5 l 165 13 l 172 30 l 170 61 l 178 90 l 175 120 l 180 122 l 181 149 l 177 178 l 181 190 l 178 201 l 186 210 l 177 218 q 185 238 193 250 l 188 258 q 207 271 218 276 l 209 285 l 199 287 q 187 299 187 308 l 187 326 l 190 347 l 182 362 l 193 368 l 190 377 l 195 396 l 186 418 l 189 442 q 190 450 195 460 l 187 477 l 187 493 l 184 515 l 187 526 l 178 550 l 180 565 q 180 572 169 591 l 158 591 l 155 603 l 151 603 l 143 601 l 130 610 q 127 612 94 619 l 85 613 l 78 618 l 75 612 l 60 614 l 50 610 l 41 624 l 43 633 q 44 637 57 654 l 65 647 l 75 651 l 101 650 l 113 646 l 125 648 l 144 641 l 151 629 l 169 629 l 203 601 l 211 572 l 208 560 l 211 547 l 221 542 l 211 522 q 217 495 224 488 l 218 466 l 225 437 l 220 399 l 228 388 l 220 380 l 219 358 l 224 345 l 218 328 q 223 311 241 295 l 241 291 l 253 296 l 258 290 l 261 297 q 275 297 304 290 z"},"Z":{"x_min":0,"x_max":881,"ha":881,"o":"m 742 37 l 753 46 l 768 77 l 773 110 l 779 118 q 789 137 798 137 q 803 137 808 133 q 812 129 812 127 l 810 105 l 800 73 l 784 34 q 777 28 774 17 q 770 5 768 2 l 758 -1 l 753 -12 q 733 -17 729 -30 l 717 -22 l 706 -25 l 698 -19 l 694 -30 l 688 -25 l 676 -32 q 667 -25 659 -25 q 652 -25 644 -29 q 644 -24 624 -24 l 594 -25 l 567 -12 l 557 -12 l 554 -19 l 541 -9 l 530 -16 l 515 -5 l 470 -1 l 451 7 l 441 2 l 408 11 l 408 12 q 408 15 403 15 q 396 15 376 10 l 369 16 l 344 14 l 330 23 l 284 29 l 270 29 l 229 39 l 225 37 l 222 41 l 207 37 l 194 41 l 186 32 l 176 37 q 172 39 152 41 l 147 45 l 136 41 l 130 47 l 122 41 l 114 45 l 102 32 l 74 29 l 49 7 l 40 10 l 30 10 q 28 17 18 30 l 18 42 l 22 51 q 40 58 42 65 l 70 75 q 99 102 108 102 q 117 111 127 113 l 130 122 l 137 122 q 144 127 151 138 q 158 149 159 150 l 166 150 l 168 160 q 184 160 190 169 q 196 178 204 178 l 206 178 q 210 179 210 190 q 217 190 223 194 l 238 213 q 241 217 249 221 l 268 230 l 270 246 q 289 263 294 263 l 300 263 l 321 290 l 330 292 q 333 292 347 303 l 351 313 l 362 317 l 362 324 q 366 328 370 328 q 372 328 375 327 q 377 325 379 325 q 381 325 383 330 q 383 341 396 345 l 396 352 l 403 349 l 408 361 l 417 363 l 435 390 l 456 404 l 462 422 q 468 424 485 445 l 492 445 l 499 457 l 502 457 l 499 462 l 509 466 l 508 477 l 509 487 l 479 487 l 472 494 q 466 481 453 480 l 446 487 l 424 484 l 415 487 l 408 486 l 392 486 l 385 491 l 369 477 l 362 486 l 357 487 l 344 486 q 338 485 324 485 q 305 485 294 487 l 271 478 l 264 484 l 253 478 l 237 486 l 230 484 q 227 477 224 477 q 222 477 219 480 q 216 483 214 484 l 207 479 l 200 486 l 186 487 l 178 478 l 159 486 l 145 480 l 142 480 q 125 480 124 518 l 137 525 q 146 524 161 524 l 194 526 l 203 522 l 227 528 l 278 522 l 289 528 l 310 527 q 309 526 309 525 q 309 524 312 523 q 315 522 316 519 l 324 525 q 333 521 342 521 q 351 521 355 528 q 376 524 418 524 l 432 527 l 440 523 q 459 525 468 525 l 484 524 l 505 527 l 532 524 l 558 528 l 563 528 l 574 527 q 577 527 578 529 q 586 537 593 537 q 594 541 596 541 q 599 541 607 539 q 619 527 622 509 l 618 502 l 596 495 q 591 493 584 486 l 568 484 q 563 478 563 475 q 563 472 568 470 l 556 464 l 537 445 l 517 430 l 511 422 q 491 398 486 388 l 470 386 l 463 369 l 447 359 l 447 353 l 442 353 q 441 345 433 342 q 419 339 419 331 l 419 329 l 413 325 l 413 318 q 391 307 387 300 q 384 294 382 291 q 380 288 369 285 l 364 272 q 345 265 337 249 l 321 249 q 305 244 298 227 q 292 210 290 209 l 268 202 l 268 194 l 255 185 l 232 175 l 206 138 l 170 116 l 161 100 q 148 94 147 90 q 145 86 145 84 q 145 77 152 77 l 166 77 l 206 78 l 252 75 q 259 65 268 65 q 271 65 278 67 q 292 62 301 62 l 305 62 l 318 70 q 322 65 325 55 l 334 55 q 350 57 357 57 q 380 57 394 45 l 406 47 l 425 41 l 431 45 l 440 37 l 447 41 q 461 39 479 37 q 496 36 502 30 l 510 26 l 578 25 l 602 18 l 646 16 l 660 10 l 706 14 q 740 27 742 37 z"},"x":{"x_min":0,"x_max":461,"ha":461,"o":"m 445 -3 q 439 -10 433 -10 q 429 -10 423 -7 l 407 -14 l 397 -9 l 384 -5 l 365 11 q 361 14 354 15 l 337 19 l 313 42 l 283 83 l 256 113 l 254 121 l 249 126 l 230 158 l 225 169 l 217 178 q 207 203 196 205 q 191 201 178 199 l 170 183 q 156 161 157 158 l 144 150 l 132 128 q 119 117 115 114 q 112 110 109 102 q 107 93 106 90 l 89 83 q 88 62 78 53 l 53 30 l 53 26 l 26 -3 l 2 -41 l -5 -46 l -5 -57 l -14 -63 q -19 -67 -22 -73 l -30 -87 l -41 -78 l -32 -62 l -23 -61 l -16 -42 q -5 -37 -3 -32 l 10 -3 l 18 2 q 31 29 35 32 l 35 47 l 52 51 l 51 57 q 51 64 57 71 q 63 77 63 79 q 63 81 58 87 l 66 86 q 64 88 64 90 q 64 93 68 96 q 81 99 85 104 q 89 109 89 122 l 94 125 l 96 132 l 103 134 l 103 136 q 103 147 118 154 l 126 178 l 137 183 l 137 198 l 144 201 l 148 213 l 151 212 l 158 217 q 158 237 175 237 l 178 237 l 175 254 l 167 264 q 164 269 162 281 l 154 285 l 138 318 l 121 349 l 109 377 l 94 395 l 98 404 l 94 420 l 107 423 l 122 420 l 124 412 q 125 409 141 390 l 138 377 l 146 372 l 152 355 q 153 352 156 349 l 166 340 l 160 340 l 169 333 l 169 322 l 187 297 l 190 283 l 202 272 l 202 275 q 202 288 217 295 l 222 288 l 222 302 q 231 306 238 322 l 244 322 l 244 329 l 254 334 l 258 334 l 256 343 q 261 349 264 349 q 268 349 270 345 l 270 358 l 283 359 l 283 366 l 292 372 l 295 384 q 309 387 313 404 l 313 393 q 317 398 317 403 q 317 404 315 406 l 337 415 l 343 423 q 351 424 372 430 q 379 417 384 413 q 383 402 374 399 q 365 396 359 391 l 297 334 l 290 322 l 274 315 q 263 288 253 276 l 237 269 l 231 254 l 215 242 l 215 238 q 214 236 214 234 q 214 227 231 217 l 230 206 q 238 193 238 189 l 249 183 q 257 162 260 157 q 262 152 281 138 l 287 113 l 304 98 l 313 83 q 315 80 329 71 l 331 64 q 343 57 347 48 l 358 45 l 368 29 q 371 19 381 19 l 391 22 l 404 14 l 445 9 z"},")":{"x_min":0,"x_max":400,"ha":400,"o":"m 250 210 l 244 198 l 240 158 l 234 158 l 230 127 l 222 94 l 215 75 l 201 53 q 195 25 191 17 q 188 9 178 -6 l 166 -12 q 153 -62 106 -85 l 105 -93 q 87 -98 71 -125 l 53 -134 l 48 -133 l 48 -130 q 48 -121 56 -113 q 64 -104 83 -88 q 84 -79 97 -72 q 109 -65 122 -40 l 126 -41 l 128 -24 q 147 -7 153 10 q 159 27 165 36 q 170 44 170 47 l 169 53 l 180 70 l 181 88 l 194 113 l 194 125 q 211 186 211 229 q 211 242 208 252 l 213 262 l 210 271 l 213 280 l 210 294 l 213 321 l 205 350 l 189 431 q 188 435 183 435 q 186 442 186 447 q 186 452 174 468 l 176 474 l 167 497 l 153 513 q 153 513 150 522 l 146 533 q 146 541 141 543 l 137 547 l 125 579 l 112 579 l 112 583 q 112 596 103 607 l 77 639 l 77 650 q 83 665 110 671 l 119 668 l 122 659 l 130 652 l 154 616 l 173 579 l 189 556 l 187 547 l 201 515 l 202 506 l 208 502 q 208 495 216 478 q 224 460 227 439 q 230 417 237 408 l 235 391 q 235 383 242 378 l 244 344 l 244 318 l 249 296 l 244 286 l 249 278 l 249 275 q 249 272 246 255 q 243 238 244 234 z"},"&":{"x_min":0,"x_max":585,"ha":585,"o":"m 535 448 q 533 443 528 439 l 514 443 l 502 443 l 498 461 l 480 462 l 477 482 q 472 482 462 494 l 453 496 l 450 502 l 411 507 l 391 505 l 374 507 l 358 505 l 350 510 l 342 503 l 331 505 q 328 505 319 501 q 311 498 290 496 l 262 482 l 247 472 q 244 470 230 468 l 221 455 l 202 447 q 202 437 201 434 l 190 436 l 190 429 l 176 411 l 182 384 q 179 376 179 370 q 179 359 187 353 l 224 325 l 258 320 q 269 320 288 313 l 297 318 l 306 317 l 317 322 l 324 320 l 345 322 l 352 320 q 356 320 370 325 l 382 329 q 390 329 393 320 l 407 318 l 415 312 q 418 310 432 308 q 419 288 407 288 l 368 288 q 363 286 359 281 l 350 287 l 342 285 l 331 288 l 283 285 l 278 279 l 266 279 l 262 276 l 244 276 l 231 269 l 215 266 l 194 250 l 164 244 l 113 206 q 104 200 103 182 q 102 164 93 160 l 105 122 l 122 109 l 160 103 l 166 96 q 178 101 185 101 q 190 101 198 95 q 206 90 213 90 q 219 96 228 96 l 237 96 l 247 89 l 262 89 l 270 96 l 281 94 l 290 98 l 299 93 q 302 98 316 101 l 329 105 l 330 105 q 331 105 336 103 q 341 101 345 101 q 353 101 359 106 q 379 113 393 116 q 407 120 413 128 l 452 142 q 477 160 480 160 l 477 196 l 489 192 l 500 196 l 504 196 q 508 196 514 192 q 520 188 532 157 l 519 135 l 526 119 l 523 110 l 525 93 l 523 83 l 525 73 l 517 55 q 517 47 532 23 l 523 16 l 525 -7 l 518 -16 l 521 -29 l 518 -46 l 521 -63 q 521 -78 514 -89 q 514 -100 511 -111 q 508 -121 508 -124 q 508 -129 509 -132 q 506 -137 493 -150 l 494 -162 l 462 -202 q 448 -215 439 -221 q 408 -233 401 -238 l 377 -234 l 370 -238 l 358 -234 l 350 -238 l 347 -233 l 333 -237 l 313 -228 l 306 -231 l 295 -225 l 274 -224 l 242 -218 l 226 -219 l 206 -211 l 192 -199 l 138 -185 q 123 -174 98 -173 l 90 -164 l 77 -160 l 75 -153 l 58 -151 l 55 -142 l 29 -132 q 14 -114 6 -110 l 6 -97 l 0 -83 q 32 -65 35 -65 q 46 -65 46 -72 q 46 -75 16 -97 q 17 -106 30 -110 l 34 -119 l 45 -119 l 48 -128 l 64 -135 l 75 -142 l 113 -154 l 118 -164 q 119 -168 126 -168 q 127 -168 146 -164 l 154 -170 l 170 -170 l 182 -180 l 194 -180 l 221 -190 q 223 -190 226 -192 q 229 -194 232 -194 l 238 -192 q 252 -192 265 -198 q 277 -205 279 -205 q 284 -205 287 -200 q 314 -205 324 -213 l 342 -212 l 345 -206 q 356 -213 366 -213 q 375 -213 384 -206 l 402 -206 q 410 -198 422 -196 l 432 -186 q 437 -181 441 -170 l 457 -164 l 457 -154 l 469 -137 l 468 -122 l 480 -106 l 477 -100 q 484 -92 488 -72 q 491 -52 491 -46 l 484 -30 l 489 30 l 487 42 q 487 61 486 62 l 475 86 l 484 105 q 484 111 478 115 q 472 120 467 120 q 462 120 457 113 l 445 112 q 438 103 425 94 l 404 93 l 361 86 l 353 78 l 346 78 q 319 78 297 67 l 288 71 l 276 64 l 272 70 l 237 61 q 213 62 202 67 l 198 64 l 190 70 l 189 66 l 173 78 l 151 73 q 143 73 141 78 q 105 91 86 113 q 67 136 67 150 l 67 162 l 62 169 l 64 175 l 62 190 l 96 222 q 97 223 101 229 q 104 234 112 237 q 112 241 117 248 q 123 254 137 254 l 142 263 l 153 263 l 154 269 l 176 274 q 195 274 218 302 l 194 327 l 182 327 l 164 336 l 162 347 q 156 348 153 360 q 149 372 142 379 q 148 379 150 386 l 142 388 l 142 402 l 141 414 q 141 415 147 427 q 153 439 157 439 l 158 439 l 158 441 q 158 452 173 452 l 180 473 l 212 489 q 234 500 243 500 l 246 500 q 248 505 267 511 l 306 525 l 342 534 l 347 537 l 390 539 q 396 541 398 541 q 403 541 408 537 q 413 533 419 533 q 423 533 427 537 l 438 531 q 445 528 452 527 l 470 526 l 478 514 l 498 505 l 513 485 q 516 482 532 473 l 530 468 z"},"_":{"x_min":0,"x_max":400,"ha":400,"o":"m 400 -145 l 0 -145 l 0 -106 l 400 -106 z"},"v":{"x_min":0,"x_max":475,"ha":475,"o":"m 475 478 l 470 468 l 471 453 l 461 447 l 456 426 q 455 422 447 413 l 445 400 l 434 400 q 439 385 439 382 q 439 374 423 370 l 423 363 l 414 329 l 406 313 l 400 313 q 406 307 406 301 l 393 288 l 370 228 l 349 192 l 349 176 q 349 172 342 166 q 335 160 335 156 q 335 153 340 148 q 332 141 318 141 l 322 130 q 312 115 311 109 q 301 101 301 95 q 301 91 302 89 l 294 89 l 294 78 l 281 70 l 274 57 l 254 35 l 228 -5 q 220 -16 206 -16 q 186 -16 178 -3 l 146 48 l 144 66 l 138 70 l 137 93 l 126 105 l 126 128 l 102 189 l 103 201 l 97 212 q 94 218 93 233 l 86 242 l 81 255 q 78 263 74 267 l 62 278 l 53 313 l 43 322 q 37 327 34 333 l 25 350 q 21 348 19 348 q 9 348 9 374 q 9 391 29 398 q 46 383 54 376 q 62 369 73 346 q 84 324 94 322 q 90 321 90 317 q 90 314 93 310 l 93 302 l 105 292 l 102 283 l 105 263 l 116 231 l 119 228 l 121 215 l 126 212 l 126 202 l 138 158 l 141 141 l 157 105 l 170 58 l 180 50 l 180 48 q 180 34 201 34 l 205 34 l 205 39 q 205 41 212 43 q 218 45 224 57 q 228 55 229 55 q 232 55 232 59 q 232 61 230 67 l 253 80 q 253 86 255 92 q 257 97 261 101 l 270 109 l 288 135 l 294 153 l 304 160 l 308 171 q 310 176 318 183 l 317 194 l 322 196 l 325 206 l 329 202 q 327 208 327 210 q 327 217 334 218 q 337 225 343 225 q 350 239 350 253 l 358 253 l 359 266 q 366 281 368 294 l 374 295 l 388 336 l 391 340 l 390 334 q 397 342 399 351 q 401 360 403 360 q 404 360 407 358 l 420 404 l 429 416 l 429 422 l 436 420 l 434 436 q 447 448 453 464 q 458 479 464 479 q 467 479 469 478 l 470 484 z"},"O":{"x_min":0,"x_max":697,"ha":697,"o":"m 657 269 l 648 247 l 645 217 l 636 208 l 626 176 q 625 169 623 167 q 622 164 617 162 l 606 157 l 547 110 l 533 103 q 527 100 513 87 l 513 93 l 472 61 l 454 53 l 411 30 q 402 34 393 34 q 386 34 383 29 q 379 24 375 23 l 366 25 l 350 10 l 342 14 l 338 9 l 321 9 l 312 0 l 282 2 l 234 -7 q 231 -6 225 -6 l 210 -8 l 193 -5 l 189 -1 l 147 6 l 127 16 l 118 16 l 118 35 l 104 30 l 97 40 q 93 45 87 48 l 72 55 q 64 77 63 106 l 58 113 l 56 153 l 70 196 l 68 217 l 77 225 l 70 242 l 87 256 l 87 270 l 93 283 l 93 294 l 100 306 l 97 310 l 102 313 l 123 361 l 162 423 q 171 426 175 433 q 179 441 196 453 l 194 462 l 206 462 l 203 468 q 214 479 234 486 l 241 494 l 240 494 q 240 495 259 497 l 305 503 l 334 499 l 356 500 l 382 500 q 392 498 396 498 q 410 498 417 507 q 422 502 428 502 q 431 502 433 503 q 434 493 443 493 q 447 489 465 487 l 472 480 l 487 478 l 506 478 l 533 464 l 527 464 l 545 451 q 549 448 555 437 l 570 430 l 577 418 l 594 411 l 627 356 q 631 351 639 328 l 652 292 q 657 280 657 276 z m 625 295 l 616 318 l 617 325 q 617 330 615 336 q 612 342 594 353 l 587 372 l 581 375 l 578 386 l 550 416 l 525 437 l 517 434 l 481 457 q 476 460 460 462 q 444 465 436 470 q 436 469 433 469 q 431 469 418 471 l 413 468 l 398 473 l 388 468 q 375 472 370 472 q 367 472 362 470 q 356 468 353 468 q 348 468 346 470 q 336 465 330 458 q 324 451 310 445 l 296 448 l 282 439 l 266 441 l 260 438 q 257 437 255 435 q 252 433 249 430 q 245 427 240 423 q 235 419 229 415 q 223 411 215 406 q 212 404 202 386 l 203 372 l 185 364 q 182 363 173 352 q 166 335 155 325 l 155 313 q 143 308 141 301 l 132 272 l 115 261 q 112 200 105 190 q 98 181 95 173 q 92 165 91 155 q 90 146 84 128 l 90 116 l 93 98 l 102 86 q 104 83 105 79 l 107 67 q 126 45 154 37 q 183 28 187 29 l 219 37 l 226 30 l 242 30 l 242 23 l 258 23 l 262 35 l 278 37 l 318 32 q 323 42 330 42 l 334 41 q 356 55 366 55 l 370 55 l 390 68 q 394 70 411 71 l 424 82 q 460 83 465 87 q 471 91 475 95 q 479 100 494 103 l 501 122 l 504 121 l 506 128 q 518 131 525 141 l 534 138 l 539 148 l 555 160 l 582 190 l 598 196 l 606 213 l 619 222 l 616 240 l 623 256 l 619 285 z"},"(":{"x_min":0,"x_max":400,"ha":400,"o":"m 378 665 q 378 655 372 651 q 367 646 360 640 q 354 633 343 624 q 342 614 332 610 q 314 600 304 576 l 300 578 l 298 560 q 277 541 272 525 q 268 509 262 500 q 256 492 256 489 l 258 483 l 247 466 l 246 448 l 233 423 l 233 410 q 216 359 216 309 q 216 296 218 284 l 213 274 l 217 265 l 213 256 l 217 242 l 213 215 l 222 187 l 237 105 q 238 101 243 101 q 241 95 241 87 q 241 81 247 76 q 252 71 252 67 q 252 66 250 62 l 259 39 l 269 29 q 274 23 276 18 l 281 3 q 283 -4 286 -7 l 290 -11 l 302 -43 l 314 -43 l 314 -47 q 314 -61 323 -71 l 350 -103 l 350 -114 q 344 -128 316 -135 l 307 -132 l 304 -123 l 297 -116 l 272 -80 l 253 -43 l 237 -20 l 240 -11 l 225 21 l 224 30 l 218 34 q 219 38 209 60 q 200 82 197 101 q 195 120 190 128 q 191 137 191 148 q 191 152 185 158 l 182 192 l 182 218 l 178 240 l 182 250 l 177 261 q 177 265 179 281 q 182 298 182 302 l 176 325 l 182 337 l 187 378 l 192 378 l 197 409 l 204 442 l 211 461 l 225 483 q 230 506 233 515 q 237 525 240 529 l 246 538 q 249 542 261 548 q 274 596 320 621 l 322 630 l 334 634 q 349 651 355 662 l 373 670 l 378 669 z"},"C":{"x_min":0,"x_max":608,"ha":608,"o":"m 605 176 l 587 165 l 591 150 q 591 137 566 137 l 558 116 l 525 94 q 516 80 506 70 q 491 70 476 58 q 460 46 455 42 q 450 39 444 35 q 438 32 431 30 q 424 28 412 22 q 400 15 398 15 q 395 14 390 14 l 384 14 q 365 14 336 -9 l 321 -6 l 309 -10 q 296 -14 291 -14 q 285 -14 277 -12 q 269 -10 266 -10 l 264 -10 q 257 -15 252 -15 q 247 -15 241 -9 l 224 -7 q 220 -7 214 -10 l 200 -5 l 191 -9 l 171 0 l 162 7 q 158 10 139 16 l 134 29 q 110 35 108 36 q 106 37 104 48 q 102 59 96 63 q 90 67 87 72 q 83 78 80 87 q 77 96 73 104 q 66 113 63 123 q 60 132 60 141 l 60 144 l 62 175 q 56 186 56 196 l 62 213 l 62 230 l 68 233 l 70 249 l 82 295 l 91 317 l 95 318 l 97 333 q 102 334 104 350 q 106 366 116 377 q 126 388 126 394 q 126 402 122 407 l 134 411 q 144 425 153 432 l 158 453 l 171 461 l 175 477 q 196 481 204 494 q 211 507 223 510 l 229 516 q 232 519 250 525 l 253 523 l 264 534 l 271 526 l 281 524 q 296 530 313 530 l 333 526 q 334 526 340 523 l 372 511 l 442 467 q 446 453 456 446 l 462 427 q 471 404 471 396 l 470 374 q 468 364 468 353 q 468 352 469 351 q 469 348 463 341 q 456 333 453 329 l 435 325 l 429 330 q 425 333 424 335 l 421 340 q 419 343 418 349 q 417 354 415 360 l 415 375 l 412 392 l 412 416 l 416 434 q 397 467 369 474 q 363 475 363 477 l 363 478 q 362 480 358 482 q 354 484 353 487 l 332 487 l 318 498 q 303 498 303 492 l 294 498 l 284 491 l 271 493 l 261 486 q 257 487 249 487 q 242 487 234 484 l 218 461 l 191 434 l 170 402 l 161 398 l 153 372 l 139 361 l 139 347 l 122 318 l 114 285 l 107 285 l 111 266 l 101 247 l 104 240 l 98 240 l 98 225 l 94 222 l 95 183 l 91 154 q 103 137 102 128 l 111 121 l 111 109 l 118 98 l 114 87 l 133 67 l 134 57 l 165 45 l 162 32 l 203 29 l 216 16 l 237 23 l 248 10 l 271 18 q 279 25 284 25 q 287 25 287 22 l 302 23 l 310 16 l 326 22 l 331 22 q 346 22 352 30 q 358 37 373 37 q 377 37 387 35 q 390 46 408 47 q 416 56 433 61 q 440 61 462 71 l 469 83 q 475 84 497 95 l 508 109 l 525 116 l 578 172 l 596 182 z"},"W":{"x_min":0,"x_max":956,"ha":956,"o":"m 953 497 l 942 478 q 948 471 948 467 q 948 465 947 463 q 946 460 944 456 q 942 452 939 438 q 936 425 931 412 q 927 399 924 393 q 920 386 918 383 q 916 379 916 379 l 906 355 l 894 334 l 894 331 l 853 276 l 847 254 l 827 231 l 814 201 l 800 196 l 794 183 q 781 173 778 160 l 772 146 l 762 137 l 756 125 l 731 90 l 727 78 q 725 71 721 66 l 710 53 l 710 35 l 701 18 l 708 -23 q 702 -29 688 -32 q 685 -35 679 -35 l 666 -29 l 653 9 l 631 47 l 630 75 l 610 93 l 599 118 q 593 126 588 142 l 582 162 q 578 175 571 185 l 564 195 q 560 201 559 208 l 557 224 l 547 231 l 539 270 l 523 306 l 525 313 q 506 341 506 360 l 506 365 q 499 362 491 345 l 480 335 q 471 331 447 310 l 447 309 q 447 301 437 295 q 427 290 423 287 q 417 287 411 283 q 405 279 396 268 q 388 257 383 253 l 372 243 l 349 213 l 325 175 q 311 164 307 161 q 303 158 295 141 q 292 126 290 126 l 279 122 l 279 110 l 270 106 l 263 86 q 256 76 253 63 q 245 59 245 53 l 247 48 l 247 45 q 247 36 253 30 l 246 29 l 250 19 q 248 10 240 6 l 242 -1 l 242 -6 q 242 -22 230 -22 q 221 -22 217 -16 l 190 23 l 185 37 l 157 87 l 146 128 l 128 164 l 125 187 l 113 210 l 103 247 l 103 260 l 78 342 l 82 355 l 77 361 q 76 362 75 365 q 73 368 71 373 q 69 378 67 384 l 67 402 l 62 445 l 55 455 l 61 471 q 67 479 67 487 l 67 491 q 70 507 78 507 q 90 507 99 495 q 109 484 109 466 l 109 462 l 106 455 l 110 450 l 106 434 l 106 418 l 118 333 l 117 324 l 128 302 l 138 238 l 144 225 l 153 183 l 160 180 l 160 167 l 165 157 q 167 153 169 132 l 175 130 l 180 103 l 187 100 q 200 71 209 70 q 220 95 222 98 l 230 98 l 247 119 l 251 131 q 253 137 263 148 l 263 157 q 263 161 284 174 l 288 192 l 310 215 l 317 231 l 331 237 q 332 260 351 262 l 354 271 q 368 271 368 276 l 368 279 l 375 288 q 379 298 387 300 q 407 311 407 322 l 407 324 l 418 325 q 427 335 430 352 l 437 352 l 447 370 l 455 370 q 460 370 468 379 l 468 398 l 477 410 q 479 413 480 421 l 484 442 q 501 453 501 458 q 501 460 500 461 l 516 461 q 531 443 539 441 l 541 427 l 538 401 l 541 370 l 566 308 l 564 294 l 570 283 q 573 278 576 260 l 585 254 l 596 198 l 604 182 q 608 174 611 156 l 623 145 l 640 102 q 671 45 676 45 l 676 46 q 676 47 675 49 l 679 78 l 692 87 l 694 98 q 697 102 713 111 l 722 130 l 724 140 q 725 144 737 158 q 749 163 749 176 l 749 180 l 763 183 l 775 206 l 800 233 l 822 273 l 837 295 l 849 322 l 862 336 q 870 344 878 365 l 893 404 l 887 411 l 897 432 l 894 441 l 902 445 l 902 453 l 903 462 l 894 471 q 895 487 903 500 l 900 507 l 907 507 q 911 525 920 525 q 926 525 932 519 z"},"A":{"x_min":0,"x_max":704,"ha":704,"o":"m 672 247 q 672 240 665 237 l 649 242 l 631 228 l 610 231 q 597 222 582 222 q 570 222 567 217 q 555 222 544 222 q 534 222 531 215 q 533 210 538 206 l 535 196 l 538 162 l 551 143 l 553 125 l 575 93 l 572 78 l 587 64 l 610 25 q 628 4 631 -5 l 649 -14 l 656 -30 l 663 -35 l 650 -45 l 634 -32 l 624 -32 l 611 -22 l 601 -22 l 592 -5 l 582 0 q 570 23 556 37 l 556 47 l 547 55 l 546 71 l 531 87 l 510 137 l 503 146 l 500 171 q 499 175 487 194 l 487 215 l 475 215 l 462 206 l 442 210 l 428 201 l 423 206 l 412 199 l 409 206 q 407 206 399 203 q 392 200 383 200 l 370 201 l 353 201 l 336 190 l 318 194 l 293 192 l 293 187 l 284 192 l 272 185 l 263 192 l 247 192 l 231 185 l 218 199 l 211 194 l 197 199 q 180 192 151 148 l 135 144 q 95 83 92 82 l 83 77 l 55 41 l 50 41 l 26 2 l 0 -14 l -20 -9 l -16 0 l -16 14 l -9 23 l -12 30 l 6 32 l 18 39 q 34 46 38 64 q 59 69 62 87 q 86 101 94 132 l 108 137 l 140 187 l 140 201 q 133 207 130 216 l 149 233 l 149 240 l 172 238 l 185 246 l 188 242 l 201 260 q 197 261 197 264 q 197 267 211 276 l 215 270 q 216 282 225 299 l 222 301 l 234 302 l 238 315 q 250 316 250 325 l 250 337 q 274 357 274 375 l 274 377 l 287 379 l 290 393 l 297 395 l 307 416 l 314 411 l 309 422 q 324 423 325 441 l 332 437 l 332 457 l 339 457 l 339 471 q 341 473 350 481 q 359 489 362 503 l 373 514 l 366 530 q 380 548 392 548 l 394 548 l 400 557 l 407 547 q 409 544 416 541 l 432 532 l 434 507 q 441 501 447 487 l 455 484 l 457 462 l 465 432 l 478 409 l 487 377 l 489 356 l 503 337 l 499 329 l 510 317 l 510 302 l 512 288 q 512 284 508 278 q 523 242 543 242 l 562 246 l 585 246 q 596 243 603 243 q 616 243 623 249 q 630 255 632 255 q 635 255 650 246 z m 482 272 q 476 289 466 294 l 471 308 l 458 315 l 454 353 l 442 372 l 440 388 l 433 402 l 433 407 l 430 407 l 428 429 q 428 432 423 439 l 416 450 q 414 453 408 458 q 402 462 389 468 l 378 462 l 371 450 l 347 416 l 341 405 q 339 400 318 379 l 314 363 l 293 352 q 286 314 263 308 l 254 278 l 234 270 l 234 260 l 231 247 q 249 242 256 237 l 268 238 l 288 233 q 294 231 297 231 q 301 231 311 233 q 312 234 315 234 q 316 234 323 232 q 329 230 334 230 l 347 233 l 386 236 l 418 240 q 449 236 457 236 q 480 236 480 246 q 480 252 471 263 z"},"f":{"x_min":0,"x_max":394,"ha":394,"o":"m 461 611 q 461 604 455 598 l 451 602 l 442 596 l 434 615 q 425 642 418 650 q 412 658 408 658 l 401 653 q 390 661 373 662 l 362 654 q 354 658 346 658 l 322 655 q 318 648 318 642 q 315 638 314 638 q 313 638 312 640 q 310 642 309 642 q 302 642 269 582 q 265 556 261 548 l 256 547 q 250 526 242 510 l 250 490 l 238 485 q 234 459 228 451 l 229 435 l 215 398 l 217 379 q 217 372 210 358 q 205 352 205 339 q 205 322 221 322 l 227 322 q 234 328 242 328 l 246 328 q 251 328 261 330 q 263 332 272 330 q 282 329 289 329 l 297 329 q 307 333 309 333 q 313 333 330 326 l 352 331 q 353 331 357 329 q 362 327 367 327 q 375 327 380 329 q 385 322 389 322 q 397 327 402 327 q 405 327 405 322 q 405 320 403 310 l 375 301 l 345 307 q 338 301 321 298 q 313 306 308 306 q 305 306 288 294 q 284 294 270 297 l 267 292 l 252 285 l 241 291 l 234 290 l 226 290 q 223 289 216 283 q 210 276 202 276 l 191 263 l 194 250 l 190 234 l 194 218 l 183 194 l 186 152 l 180 136 l 183 122 l 174 98 l 179 76 l 179 75 q 179 73 176 62 q 172 51 172 35 l 171 9 q 171 -5 178 -12 l 174 -25 l 180 -48 l 176 -63 l 187 -117 l 190 -177 l 206 -199 l 199 -204 l 196 -219 q 208 -235 208 -249 l 208 -254 q 211 -265 211 -271 q 211 -284 199 -285 l 194 -274 l 186 -269 l 185 -258 l 165 -200 l 165 -185 l 158 -177 l 164 -167 l 159 -145 l 163 -128 q 163 -127 161 -121 q 159 -114 158 -104 q 158 -94 158 -93 l 151 -41 l 155 -39 l 150 -14 l 152 4 l 147 13 l 151 20 l 150 73 l 154 78 l 154 119 l 158 128 l 156 162 l 158 172 l 167 239 q 167 243 170 251 q 172 259 172 263 q 172 264 163 283 l 147 276 l 132 281 l 122 275 l 111 282 l 108 278 l 92 275 l 75 279 l 47 274 l 32 277 l 28 274 q 11 280 5 284 q -1 288 -5 303 l 0 318 q 1 324 9 324 q 13 324 27 320 l 30 313 l 62 317 l 102 314 l 130 321 l 150 320 q 164 320 169 313 q 169 316 181 321 l 178 330 l 183 350 l 185 369 q 185 378 191 393 l 187 418 q 188 419 191 424 q 194 429 194 436 l 194 441 l 203 450 l 208 483 l 214 491 l 211 506 q 219 520 222 530 q 221 532 221 535 q 221 540 225 550 q 229 561 231 566 q 232 571 237 578 q 241 586 241 591 l 240 596 l 240 599 q 240 606 248 611 l 245 616 q 245 620 254 626 q 265 642 271 659 q 279 660 287 682 l 302 687 l 315 687 l 322 696 l 340 690 q 356 698 366 698 l 386 694 q 397 690 399 690 q 403 690 413 694 q 417 691 422 679 l 437 669 q 445 649 458 636 l 461 614 z"},"Q":{"x_min":0,"x_max":714,"ha":714,"o":"m 802 39 q 802 37 805 34 q 807 31 807 30 q 807 23 800 16 l 788 12 q 782 10 768 -1 l 761 2 l 725 -9 l 714 -23 l 707 -22 l 706 -25 l 697 -23 l 688 -30 l 677 -30 l 629 -48 q 627 -41 615 -41 l 595 -48 l 581 -41 l 569 -48 l 553 -46 l 546 -53 l 528 -39 l 522 -45 l 505 -35 l 489 -32 q 474 -21 454 -10 l 442 10 l 428 10 l 420 20 q 416 25 405 30 q 400 45 397 48 q 395 50 386 51 l 364 37 l 353 37 l 339 23 l 326 25 l 313 16 l 300 18 l 282 9 l 268 9 l 247 -5 l 230 2 l 214 -5 l 195 2 l 185 -1 l 154 7 l 137 7 l 127 18 l 115 16 l 111 22 l 106 37 l 98 45 l 72 77 l 62 86 l 66 100 l 56 116 l 60 141 l 58 183 l 66 201 q 77 204 77 218 q 77 226 76 232 q 74 239 74 241 q 74 252 88 256 l 83 260 l 90 262 l 90 279 q 108 290 108 322 l 106 324 l 115 331 l 115 325 l 121 329 l 125 347 l 150 379 l 146 379 l 154 391 q 157 385 158 385 q 159 385 159 391 q 159 394 158 398 q 157 403 157 406 q 157 411 167 411 q 171 411 174 410 q 190 434 201 434 l 199 442 l 206 445 l 207 441 l 214 461 l 223 462 l 288 491 l 281 480 l 290 487 l 339 491 q 340 485 345 485 q 350 485 357 487 l 412 503 l 462 509 q 530 503 553 499 q 576 494 578 484 l 583 484 q 602 484 606 471 l 611 470 l 611 464 q 616 453 630 438 q 645 423 651 411 q 658 399 658 379 l 658 353 q 653 319 652 295 q 634 281 632 277 q 630 273 629 265 q 628 256 627 253 l 617 249 l 613 233 l 601 230 l 604 225 q 599 222 591 212 q 583 203 581 201 l 569 178 l 562 172 q 558 170 553 160 l 524 146 l 508 122 l 498 118 l 493 111 q 490 108 451 93 q 441 72 437 71 l 437 55 l 469 23 l 469 16 l 475 8 l 492 14 l 513 -1 l 551 -14 l 608 -17 l 617 -10 l 622 -16 l 666 -7 l 681 -7 l 688 0 l 759 18 l 762 16 l 762 23 q 778 23 778 35 z m 620 287 l 620 294 q 634 321 634 353 q 634 380 615 415 q 597 451 574 450 l 544 473 l 482 484 l 462 477 l 451 478 q 447 480 443 480 q 441 480 435 478 l 432 484 l 416 477 l 400 480 l 381 473 q 377 471 368 462 q 353 462 343 456 q 333 451 330 447 l 318 448 l 304 445 l 293 447 l 281 432 l 274 433 q 261 433 247 411 q 247 415 245 415 q 244 415 232 405 l 222 398 l 201 365 l 190 331 l 182 331 l 174 347 l 169 347 q 142 335 142 310 l 142 302 l 127 287 l 127 279 q 116 267 106 237 q 104 219 102 213 l 90 185 l 92 144 l 83 130 l 90 121 l 98 86 l 122 61 l 122 53 q 130 47 137 47 l 143 47 l 179 30 q 182 35 185 37 q 194 29 201 29 l 275 29 l 275 32 l 286 37 q 291 39 318 41 l 326 51 q 326 47 328 47 q 331 47 334 53 q 362 54 364 64 q 375 67 375 75 l 375 77 l 380 77 l 358 118 l 345 134 l 342 150 l 313 218 q 310 227 310 256 q 326 257 330 269 q 349 258 350 253 l 361 201 l 370 187 l 377 160 l 400 130 l 400 126 q 400 98 414 98 q 418 98 428 102 l 430 106 l 438 106 l 448 111 l 454 125 l 475 130 l 476 134 q 482 135 483 140 q 483 144 487 144 q 490 144 492 141 q 497 145 497 149 q 497 152 496 154 l 506 154 l 513 169 l 521 169 l 535 178 q 544 180 546 196 l 558 201 q 561 212 562 214 q 564 216 571 219 q 578 223 578 228 l 578 230 q 587 234 588 244 q 589 254 593 254 l 597 253 l 595 256 l 598 256 q 606 256 606 269 q 611 271 611 278 z"},"w":{"x_min":0,"x_max":656,"ha":656,"o":"m 640 414 l 637 400 l 638 390 l 626 340 l 613 324 l 608 302 l 598 287 l 582 247 l 564 213 l 535 166 l 530 151 l 514 122 l 498 83 l 468 23 q 461 -5 457 -10 q 444 -5 436 0 l 422 47 l 404 80 l 404 90 l 390 126 l 384 134 l 350 212 l 322 269 q 320 271 315 271 q 310 271 306 269 l 287 237 l 270 222 l 247 187 l 230 166 l 221 137 l 198 106 l 196 94 q 180 61 180 58 l 180 45 l 173 32 l 162 3 l 164 -1 q 162 0 158 0 q 155 0 144 -5 q 142 -1 134 2 l 134 7 l 126 18 l 121 45 l 113 62 l 113 75 l 112 82 l 98 128 l 93 162 l 86 170 l 87 180 l 77 208 l 77 218 l 67 247 l 55 265 l 57 285 l 55 295 l 45 324 l 43 337 q 42 343 35 354 q 29 366 29 373 q 29 378 30 381 l 23 384 l 10 416 l 23 420 q 24 429 27 429 l 41 432 l 47 423 l 57 423 l 61 406 l 66 402 l 64 391 l 67 381 l 64 370 l 75 350 l 73 336 l 86 288 l 84 276 l 90 242 l 103 208 l 110 162 l 119 151 l 119 130 q 127 101 128 89 l 138 80 l 142 67 l 151 67 l 198 151 q 206 151 206 169 q 218 176 218 184 q 218 194 224 205 q 230 211 230 218 q 238 213 244 213 q 241 219 241 225 q 241 233 249 233 l 252 232 q 253 232 254 233 q 254 234 253 235 q 252 236 252 237 q 252 240 258 244 l 256 253 l 256 258 q 257 262 260 262 q 262 262 262 258 q 269 263 272 263 q 275 263 276 262 l 274 276 l 281 285 l 278 299 l 283 297 l 285 304 l 294 308 l 290 313 l 294 317 l 295 322 l 306 322 q 293 336 293 351 q 293 360 299 372 l 315 374 q 324 365 333 352 l 336 331 q 337 327 345 313 l 343 302 l 350 278 l 350 265 l 368 233 l 368 224 l 375 218 l 391 175 l 393 157 l 404 142 l 434 71 l 452 67 l 484 134 l 496 144 l 503 166 l 516 173 l 516 190 q 537 204 537 217 l 537 233 l 542 233 l 542 238 l 550 244 l 567 278 q 568 291 582 310 l 580 320 l 594 340 l 606 372 q 594 410 594 429 q 594 444 603 447 l 613 443 q 614 438 626 437 l 628 427 z"},"-":{"x_min":0,"x_max":341,"ha":341,"o":"m 301 210 l 290 196 l 271 200 l 230 190 l 198 195 l 194 191 l 177 190 l 162 192 l 141 187 l 134 190 l 103 184 q 95 189 89 189 q 82 189 70 182 l 58 186 l 50 186 l 40 208 l 40 223 l 47 224 l 51 234 l 61 226 l 70 225 l 82 233 q 87 232 92 227 q 95 226 101 226 q 111 226 112 232 l 129 227 l 144 228 q 141 225 141 223 q 141 219 145 219 q 146 219 150 221 l 153 226 l 162 223 l 178 225 q 180 226 183 226 q 188 226 193 221 l 208 218 l 218 222 q 228 217 236 217 q 246 217 257 222 l 267 217 l 288 217 q 296 217 301 210 z"},"E":{"x_min":0,"x_max":599,"ha":599,"o":"m 570 514 q 568 507 565 503 l 554 503 l 547 498 l 533 503 l 517 502 q 505 502 503 505 q 501 509 496 509 q 492 509 483 503 q 477 507 470 507 q 464 507 450 501 q 437 496 431 496 q 426 496 417 497 q 409 498 404 498 q 397 498 396 492 q 388 498 380 498 q 366 498 351 486 l 341 491 l 332 486 l 309 493 l 293 484 l 275 484 q 259 480 250 478 q 240 476 225 468 l 216 474 l 198 460 l 180 461 l 167 437 l 172 418 q 162 416 162 392 l 163 384 l 162 363 l 165 359 l 158 353 l 162 347 q 155 332 155 320 q 155 298 181 298 q 185 298 194 300 q 202 303 211 300 q 220 298 227 298 l 242 304 l 258 299 l 268 302 l 278 301 l 293 304 l 302 302 l 304 302 q 310 302 322 308 q 331 304 343 305 q 354 306 360 307 l 373 310 l 395 306 q 398 306 401 312 q 426 307 431 307 l 442 308 l 476 306 l 494 310 q 496 316 506 316 l 529 313 l 538 315 l 551 310 l 564 313 l 561 301 q 543 294 535 294 q 533 294 525 296 q 517 298 510 299 l 484 286 l 462 288 l 449 283 l 440 285 l 424 276 l 413 279 l 373 278 q 366 278 360 272 l 346 276 l 339 269 l 326 273 l 319 266 l 300 275 l 286 266 l 270 270 q 268 271 262 271 q 255 271 242 267 l 230 263 l 194 260 l 186 264 q 181 260 156 256 l 148 237 l 157 185 l 152 178 l 158 162 l 157 144 l 161 139 q 162 137 166 110 l 175 100 l 170 83 l 180 86 l 198 58 q 236 29 264 29 l 282 26 q 287 26 303 30 l 307 35 l 316 35 q 326 35 330 35 q 333 36 351 47 q 365 47 367 51 l 378 54 q 384 55 389 59 l 403 70 q 409 78 418 86 l 431 87 l 456 109 q 486 118 492 141 l 499 137 l 502 153 l 515 154 l 517 169 l 520 169 q 529 169 533 157 l 499 113 l 487 110 q 469 83 463 79 l 438 62 l 422 47 l 415 48 l 403 35 l 357 16 l 346 2 l 330 7 l 325 -1 l 321 0 l 313 -7 l 286 -1 l 253 -16 l 229 -7 l 188 14 q 170 23 156 42 q 143 62 128 104 q 114 146 114 150 l 117 164 l 110 183 l 117 192 l 108 246 q 95 263 93 265 q 91 267 91 275 q 91 293 99 297 q 108 301 108 302 l 108 308 q 108 315 117 317 l 120 331 l 117 337 l 117 365 l 114 377 l 125 407 q 130 426 133 434 l 120 450 l 98 448 l 96 448 q 91 448 86 452 q 82 457 82 462 q 82 471 95 486 q 100 488 102 491 q 120 498 122 498 q 125 498 129 493 q 132 500 137 500 q 152 500 152 509 q 152 512 149 516 l 182 514 l 188 503 q 204 514 220 514 l 227 513 l 248 518 q 256 518 268 525 l 268 518 q 277 526 293 526 l 310 525 l 313 525 l 408 534 l 430 525 l 437 537 q 439 530 445 530 q 446 530 454 532 l 465 526 l 472 532 l 490 525 l 502 528 l 508 523 l 540 526 l 545 523 q 569 518 570 514 z"},"s":{"x_min":0,"x_max":435,"ha":435,"o":"m 386 77 l 379 69 q 377 66 366 39 l 352 29 l 353 23 l 340 23 l 327 9 l 310 9 l 299 3 q 294 3 288 -3 q 282 0 275 0 q 270 0 262 -3 l 262 -9 l 244 -7 l 230 -9 l 217 -7 l 215 -10 l 210 -7 l 201 -10 l 195 -10 q 188 -10 180 -12 l 170 -9 l 162 -14 l 158 -10 l 151 -14 q 138 -7 130 -7 q 127 -7 121 -10 q 115 -6 104 -5 l 82 -3 q 72 -3 66 -5 l 64 -1 l 55 -7 q 52 -3 48 -3 l 45 3 q 14 4 14 47 l 35 50 l 34 57 l 39 64 l 42 58 l 48 58 l 48 53 l 57 58 q 65 57 65 51 q 65 48 62 42 l 71 41 l 71 26 l 96 22 l 106 13 l 109 18 l 237 26 l 281 34 l 283 39 l 294 41 l 297 45 q 320 49 337 61 l 340 58 l 342 64 l 349 70 l 350 73 l 345 80 l 347 89 l 336 98 l 334 106 q 326 109 324 112 l 320 110 l 310 119 l 306 119 l 302 125 l 292 125 q 289 133 281 133 l 274 132 q 257 132 244 142 l 234 142 l 221 150 l 215 146 l 212 151 l 205 151 l 194 160 l 164 173 l 153 183 l 119 189 l 118 192 l 90 212 l 77 244 l 67 260 l 64 306 l 67 311 q 67 331 77 345 q 96 356 96 366 l 103 365 q 107 377 122 389 l 134 400 l 192 425 l 221 430 l 250 439 l 295 436 l 297 430 l 300 430 q 308 430 313 425 l 313 416 l 325 407 q 320 384 320 381 q 320 372 311 372 q 307 372 297 393 l 270 395 l 263 393 q 248 405 245 405 q 242 405 242 402 l 233 395 q 216 395 206 386 q 188 383 180 374 l 169 374 l 161 368 q 157 365 141 361 l 137 356 l 132 353 l 118 340 l 109 325 q 95 316 94 313 l 84 272 l 89 269 l 89 266 q 89 250 105 238 l 105 233 l 132 217 l 138 217 l 153 202 l 173 202 l 185 192 l 208 189 l 215 183 l 258 170 q 258 164 265 164 q 277 164 288 158 q 298 152 307 151 l 308 146 l 317 141 l 336 141 l 353 130 q 356 119 366 112 l 365 109 l 370 102 l 379 100 l 375 93 q 384 85 386 77 z"},">":{"x_min":0,"x_max":833,"ha":833,"o":"m 704 283 l 129 48 l 129 91 l 639 298 l 129 505 l 129 549 l 704 313 z"},"l":{"x_min":0,"x_max":304,"ha":304,"o":"m 278 122 q 284 118 284 113 q 284 101 278 99 q 266 80 254 80 q 254 76 221 47 q 211 44 208 41 q 205 38 195 29 q 181 28 177 17 l 167 14 l 163 16 l 160 8 l 157 8 q 150 8 136 2 q 123 -4 119 -5 l 109 -9 l 102 -9 l 96 0 l 87 8 q 81 23 72 34 l 69 58 l 70 70 l 65 76 l 66 105 l 65 130 l 66 142 q 69 146 69 150 q 69 157 62 168 q 66 209 66 214 q 66 223 58 232 l 66 236 l 69 274 l 67 290 l 74 308 l 69 328 q 77 339 77 354 l 77 387 l 80 395 l 79 444 l 82 492 q 75 510 77 530 l 80 560 l 77 571 l 82 616 q 87 618 94 621 q 100 624 101 624 q 102 624 105 622 l 110 606 l 120 597 l 113 587 l 113 583 q 113 577 116 571 q 115 554 109 554 l 112 549 q 113 518 117 507 l 109 481 l 115 472 q 104 453 104 434 q 104 424 113 422 l 106 403 q 110 394 110 391 q 110 386 106 378 l 108 366 l 103 334 l 103 319 q 102 312 94 287 l 99 266 l 96 228 l 91 224 l 97 212 l 93 193 l 89 163 l 93 156 l 89 153 q 95 145 95 129 q 95 126 91 117 l 95 106 l 93 91 l 97 80 l 95 72 l 106 39 l 118 34 q 136 43 141 43 l 147 42 l 161 54 q 163 56 173 59 q 178 68 190 69 l 195 74 l 202 73 l 204 78 l 214 81 l 223 88 l 233 91 q 234 91 242 100 q 251 108 258 112 q 258 116 264 119 q 266 117 268 117 q 271 117 278 122 z"},"8":{"x_min":0,"x_max":528,"ha":528,"o":"m 507 406 q 497 386 490 384 q 483 368 471 360 q 459 351 454 342 l 447 342 l 445 336 l 417 317 l 399 298 l 375 288 l 318 254 l 309 243 l 296 240 l 291 230 l 282 227 l 282 221 q 261 218 261 200 l 299 173 l 347 133 l 375 115 l 375 110 l 384 98 l 395 90 l 403 74 q 418 61 418 44 l 414 24 l 414 22 q 414 17 404 3 q 394 -11 384 -11 q 381 -11 375 -9 l 367 -16 q 366 -17 363 -18 l 347 -24 l 315 -21 q 308 -21 295 -26 l 290 -19 l 280 -24 l 261 -19 l 245 -25 l 230 -21 l 219 -24 q 196 -24 182 -16 l 175 -17 l 130 -11 l 115 3 l 102 6 l 102 14 l 88 10 l 85 18 l 77 19 l 77 29 q 61 44 61 46 q 61 47 64 54 q 67 60 67 67 q 81 89 82 99 l 87 104 l 88 113 l 99 120 q 112 138 115 141 l 120 139 l 130 149 l 142 150 q 141 152 141 155 q 141 162 157 163 l 152 170 q 158 175 165 175 l 169 175 q 174 175 189 188 q 190 191 205 203 q 203 208 198 211 l 166 227 l 152 240 q 136 245 130 262 l 123 264 l 120 278 l 112 278 q 108 288 96 296 l 80 334 l 69 349 q 62 353 62 356 q 62 360 67 360 q 68 363 70 366 q 72 370 72 371 q 72 373 69 382 q 76 385 79 404 l 90 414 l 91 423 q 92 427 102 440 l 107 440 q 111 459 121 459 l 122 459 l 122 460 q 122 464 133 474 q 145 483 152 483 l 157 482 l 195 513 q 210 514 229 522 l 234 520 l 243 530 q 244 531 259 535 q 273 539 290 540 l 294 536 l 313 542 l 333 540 q 337 539 344 538 l 360 537 l 413 528 q 422 523 427 517 l 442 515 q 445 506 458 502 q 472 498 475 490 q 494 461 502 452 l 501 445 l 507 429 l 502 424 z m 477 414 q 483 423 483 430 q 483 436 475 446 q 468 457 466 464 q 458 471 445 484 q 433 497 431 498 q 429 498 403 499 l 394 507 l 389 502 l 362 515 l 344 510 l 336 515 l 329 513 l 325 520 l 318 522 l 311 507 l 339 483 l 336 474 l 342 459 q 335 448 324 448 q 321 448 315 450 l 301 474 l 291 470 l 287 475 l 262 474 l 253 466 l 243 470 l 240 466 q 225 466 213 459 q 217 453 158 440 q 155 429 147 429 q 134 429 133 414 q 129 412 123 410 l 117 389 l 107 384 l 102 364 l 102 352 l 115 339 l 123 298 l 139 290 l 141 282 q 151 268 158 258 l 169 255 q 175 253 179 249 l 190 238 l 211 234 l 237 219 l 247 222 l 251 219 l 251 234 l 283 250 l 288 266 l 306 269 q 309 273 319 281 l 327 287 q 330 290 333 293 q 336 296 340 297 l 352 301 q 358 303 363 308 l 376 322 l 395 325 l 395 331 l 411 336 q 414 347 421 347 l 426 346 q 428 346 429 347 l 430 353 l 438 353 q 441 353 443 365 q 445 377 454 378 q 463 382 463 389 q 463 393 462 395 q 477 407 477 412 z m 392 43 l 392 45 q 392 61 371 90 l 353 99 l 341 117 l 309 134 l 290 157 l 256 173 q 237 192 231 192 q 228 192 225 186 q 222 186 202 177 q 182 167 175 152 q 174 151 166 147 l 133 130 l 125 117 l 128 110 l 120 106 q 109 104 107 94 q 105 84 99 82 q 93 79 93 75 q 93 62 95 44 q 97 26 117 17 q 137 8 137 8 l 158 8 l 168 2 l 190 5 l 210 0 l 225 2 l 243 -1 l 274 2 l 287 0 l 323 2 l 325 10 l 336 6 q 339 4 345 4 q 359 4 389 29 z"},"\\":{"x_min":0,"x_max":413,"ha":413,"o":"m 411 -37 l 404 -41 q 394 -37 394 -25 q 386 -20 377 0 l 379 10 l 368 18 l 370 25 l 356 33 l 350 45 l 336 63 q 331 73 315 88 l 315 100 l 292 136 l 283 139 l 279 152 l 254 184 l 251 193 l 237 194 l 237 210 l 233 222 l 178 296 l 173 312 l 132 363 q 131 375 122 381 q 113 388 112 390 l 98 413 l 86 428 l 80 446 l 52 482 l 36 511 q 25 531 13 545 q -1 554 -1 561 l -1 564 q -1 565 1 575 q 14 577 22 585 l 47 582 l 48 566 l 61 559 q 58 558 58 555 q 58 551 70 545 l 70 522 l 78 506 l 78 495 l 89 492 l 86 480 l 109 455 q 108 452 108 446 q 108 428 126 424 q 135 415 135 406 q 135 378 155 376 l 164 360 l 174 351 q 179 346 187 332 l 188 322 q 189 318 203 299 l 213 297 l 215 280 l 228 275 l 228 264 l 244 250 l 249 234 l 258 234 l 267 214 l 267 200 l 283 168 l 289 165 q 292 154 310 130 l 310 122 l 325 112 l 334 81 l 340 84 q 347 77 348 65 l 366 42 q 372 39 375 37 q 377 35 379 29 l 381 18 l 404 -18 z"},"e":{"x_min":0,"x_max":359,"ha":359,"o":"m 320 90 q 327 79 327 73 q 327 69 318 57 q 309 44 304 30 l 297 29 l 286 8 l 274 6 l 247 -12 l 242 -23 l 234 -22 l 225 -32 l 211 -32 l 208 -37 l 201 -36 q 190 -36 182 -46 l 176 -41 q 166 -46 159 -46 q 148 -46 141 -41 q 136 -42 128 -42 l 122 -37 q 95 -36 86 -22 l 86 -10 l 70 -1 l 66 9 q 64 14 55 22 l 55 30 l 44 77 l 46 111 l 50 130 l 50 151 l 55 169 l 53 182 q 59 187 60 193 q 62 200 66 208 q 64 217 62 233 l 71 240 l 62 250 q 69 261 69 264 l 64 294 q 64 305 67 315 q 73 306 80 306 q 84 306 99 310 q 98 313 98 317 q 98 324 106 329 q 114 354 128 375 q 137 382 137 395 l 142 395 l 147 405 l 153 407 q 155 414 163 422 q 174 425 190 445 q 192 444 198 444 q 200 444 206 455 q 223 461 224 461 q 229 461 233 455 l 242 457 l 247 453 l 253 453 q 258 437 273 437 l 276 437 q 277 430 282 427 l 278 425 q 295 417 295 386 l 292 375 l 295 347 l 290 343 l 279 313 l 259 288 l 258 274 q 222 245 199 234 q 197 228 193 228 q 191 228 185 230 l 163 215 l 150 215 l 131 206 l 123 211 q 119 213 102 215 q 87 201 87 178 l 80 170 q 78 151 75 144 l 70 141 l 75 105 l 70 100 l 71 89 l 70 75 q 70 72 72 57 q 75 42 80 39 q 78 32 90 22 q 102 13 115 9 l 115 3 l 141 -1 l 178 -3 l 203 0 q 218 11 225 13 l 233 25 l 242 25 l 243 30 q 265 37 267 40 q 269 42 269 45 q 272 51 278 51 l 281 57 q 303 61 308 86 q 313 90 320 90 z m 238 318 q 242 318 251 330 l 254 342 q 266 362 268 368 q 270 374 270 382 q 270 390 263 411 l 243 418 q 235 416 233 416 l 227 418 q 220 418 217 409 q 208 409 190 402 l 187 395 q 185 396 183 396 q 182 396 180 396 q 179 395 178 394 q 177 393 176 392 q 175 391 175 389 q 174 387 173 385 q 172 382 172 380 q 171 378 166 372 l 158 363 l 144 336 l 137 330 q 133 327 131 317 q 129 307 105 270 l 112 266 l 115 258 l 132 253 q 146 263 162 266 l 165 272 q 170 270 173 270 q 178 270 182 276 l 194 278 l 201 290 l 208 290 l 213 301 q 226 301 238 313 z"},"b":{"x_min":0,"x_max":465,"ha":465,"o":"m 401 151 l 394 142 l 396 118 l 375 89 l 375 77 l 362 62 l 367 53 q 357 44 346 22 l 326 10 q 321 2 313 0 q 305 -1 298 -3 l 296 -9 l 293 -5 l 284 -9 l 278 -5 q 272 -5 264 -10 l 266 -14 l 252 -12 l 248 -17 l 241 -12 l 223 -22 l 214 -12 l 194 -14 l 177 -9 q 159 -4 152 6 l 140 10 l 134 29 q 133 36 120 39 l 111 35 l 97 41 l 82 75 l 85 83 l 79 94 l 79 113 l 75 121 l 79 137 l 72 146 l 75 157 l 75 189 l 79 199 l 81 263 l 85 288 l 81 292 l 88 315 l 85 329 l 85 343 l 90 350 q 88 378 85 382 l 94 414 l 88 448 l 94 452 l 90 464 l 90 482 l 88 512 l 91 521 l 87 539 l 91 541 q 86 543 86 547 q 86 548 88 552 q 91 557 91 561 l 91 564 l 87 573 q 89 581 89 586 q 89 597 81 608 q 81 615 87 615 l 81 630 l 85 642 l 77 662 l 88 663 l 87 672 l 94 676 q 98 671 101 658 l 111 650 l 104 644 l 117 628 l 111 619 l 104 617 q 112 609 112 608 q 112 604 108 603 l 113 596 l 108 592 l 117 585 q 113 581 113 575 l 122 555 l 118 544 l 122 541 l 117 539 q 122 532 122 529 q 122 524 114 518 l 124 516 q 122 504 121 495 q 120 486 113 475 q 120 472 120 457 l 117 445 l 120 436 l 111 395 l 120 382 l 111 365 l 114 350 l 111 340 l 117 331 l 108 322 l 111 315 l 110 306 l 111 301 l 108 292 l 113 283 l 108 276 l 113 266 l 108 262 q 111 254 111 250 q 111 244 104 238 l 110 233 l 108 218 l 108 178 q 116 170 117 170 q 124 170 124 185 l 124 189 q 128 192 134 201 q 140 209 140 210 l 140 217 l 145 222 q 146 242 153 250 l 152 269 l 158 270 l 159 276 l 162 274 l 165 288 l 172 302 l 172 308 l 178 320 l 177 329 l 186 342 l 193 345 l 193 352 q 201 356 202 368 l 213 381 l 218 379 l 218 384 l 223 388 q 224 397 236 413 q 232 416 232 418 q 232 421 237 422 l 239 427 q 244 428 257 437 l 262 452 l 268 452 l 266 457 q 275 464 294 464 l 286 466 l 296 471 l 300 471 l 296 475 l 302 477 l 300 480 l 310 480 l 309 477 l 334 473 l 339 463 q 342 459 344 437 l 353 436 l 355 422 l 364 414 l 364 402 l 367 397 l 366 388 l 378 382 l 380 363 l 380 359 q 380 349 392 329 q 389 319 385 317 q 390 311 394 311 q 398 311 401 313 q 401 301 392 297 l 398 256 q 401 254 401 251 l 399 242 l 398 189 l 401 180 l 398 164 z m 378 224 l 375 246 l 375 263 l 367 315 l 358 352 l 344 386 l 321 425 q 319 430 313 436 l 298 432 l 291 434 l 284 425 l 271 422 l 271 409 q 271 407 263 406 q 256 405 252 391 q 240 380 236 374 q 232 367 225 359 l 220 359 l 214 336 l 206 324 l 193 292 q 193 277 187 267 q 181 257 174 244 l 175 228 l 161 208 l 153 175 l 143 167 q 144 166 144 165 q 144 163 143 162 q 145 157 145 146 q 145 132 140 122 l 133 119 l 137 103 l 129 100 l 130 90 l 127 82 q 118 76 118 71 q 118 66 124 66 q 120 62 120 59 q 120 57 124 53 l 145 62 l 159 61 q 159 58 161 58 l 162 58 q 174 58 175 50 l 177 55 l 178 47 q 189 45 193 42 l 193 29 q 200 26 209 16 l 243 16 l 271 23 l 273 29 l 279 25 l 287 31 q 291 34 309 39 l 307 45 l 316 45 l 316 50 l 319 50 q 326 50 329 62 q 333 74 334 75 l 362 106 l 362 119 l 373 142 l 373 170 l 376 199 l 375 213 z"},"%":{"x_min":0,"x_max":687,"ha":687,"o":"m 587 659 q 579 642 574 628 l 558 622 l 499 578 l 485 557 q 479 540 462 534 l 458 514 l 449 514 l 444 502 l 435 496 l 434 489 q 433 486 417 464 l 417 452 q 417 449 408 440 q 399 430 394 423 l 396 416 l 383 407 l 383 393 l 366 370 l 366 359 l 335 325 l 334 311 l 313 281 q 312 275 306 250 l 302 249 l 280 212 q 277 206 277 202 q 277 198 280 198 l 264 182 l 261 164 q 245 138 236 105 l 229 102 l 226 83 l 207 35 l 207 23 l 193 9 l 194 -5 l 175 -48 l 175 -64 l 170 -73 q 168 -81 162 -90 l 164 -104 l 162 -112 q 159 -120 159 -125 q 159 -129 161 -135 q 166 -144 166 -154 l 161 -169 l 163 -177 l 158 -183 l 174 -218 l 172 -231 q 178 -236 184 -256 l 200 -269 q 203 -281 213 -285 l 245 -299 l 257 -297 q 257 -304 266 -304 l 271 -308 l 280 -304 q 284 -306 289 -306 l 318 -305 l 329 -307 q 339 -307 346 -303 q 353 -299 373 -295 q 379 -300 384 -300 q 388 -300 394 -295 l 392 -304 l 375 -315 l 342 -315 l 335 -318 l 313 -320 q 285 -329 278 -327 l 221 -312 q 199 -298 181 -289 l 178 -277 l 161 -260 l 159 -249 l 149 -240 q 142 -214 136 -208 l 137 -167 l 134 -148 l 140 -135 l 134 -126 q 142 -72 149 -62 q 156 -52 156 -32 l 156 -26 q 160 -21 166 -6 l 170 7 l 190 50 q 193 56 193 61 l 192 71 l 193 75 l 194 75 q 200 75 207 119 l 222 135 l 219 145 q 235 171 242 189 l 247 190 l 268 233 l 282 266 q 300 282 303 292 l 312 322 q 320 336 321 345 l 341 366 l 350 402 q 361 406 375 438 q 390 469 405 487 q 405 492 399 502 q 403 502 410 511 q 417 519 424 521 q 427 532 444 555 q 446 559 446 561 q 446 566 438 571 l 417 562 q 403 546 394 542 q 388 548 382 551 q 365 549 360 547 q 350 538 347 538 q 346 538 344 540 q 341 541 338 541 q 337 541 326 538 q 314 534 309 535 l 277 541 l 270 537 q 252 534 252 528 q 252 526 254 521 q 256 516 278 498 l 277 489 q 285 483 285 476 q 285 470 282 464 q 287 455 287 448 q 287 431 278 406 l 266 396 q 260 392 247 374 l 236 370 l 229 353 l 200 345 l 191 336 l 110 329 l 91 334 l 65 356 q 55 372 43 384 l 46 400 l 40 407 l 40 420 q 53 450 53 452 l 53 468 q 61 481 65 510 q 81 516 81 523 q 81 526 79 530 q 95 542 100 557 q 105 572 109 573 q 113 575 125 592 l 120 603 l 137 608 q 146 614 152 614 q 154 614 156 613 l 206 592 q 215 564 226 564 l 245 573 l 271 567 l 305 567 l 330 562 l 354 566 q 377 570 380 570 q 382 569 400 578 q 417 587 420 587 l 425 587 q 440 587 442 596 l 451 594 q 483 604 483 621 l 501 628 l 495 635 q 497 636 502 639 q 529 654 549 676 q 553 683 558 683 q 572 683 575 678 z m 241 402 q 261 413 261 455 q 261 468 250 473 q 252 476 252 482 q 252 490 244 500 q 235 511 227 524 q 219 537 209 539 q 199 541 188 551 q 176 547 156 547 q 149 547 146 552 q 143 558 140 558 q 125 558 120 532 l 111 528 l 101 505 l 98 490 q 86 473 78 452 l 81 445 l 70 427 l 74 413 l 70 398 l 82 370 q 104 352 120 352 l 152 353 l 170 349 q 178 349 188 360 q 199 371 202 374 l 222 374 q 228 377 241 402 z m 588 178 l 587 150 l 589 139 q 589 132 586 126 q 584 120 584 119 q 584 117 585 113 q 587 108 587 105 q 587 95 579 89 q 581 83 581 81 q 581 75 577 68 q 574 62 567 54 q 561 46 554 34 q 538 21 538 17 l 538 16 q 535 8 528 6 q 521 4 513 -5 l 495 -14 q 465 -37 456 -37 l 447 -35 l 425 -41 l 396 -37 l 364 -16 l 355 18 l 355 42 l 351 55 l 355 64 l 353 77 q 358 89 363 103 q 367 116 373 136 q 379 157 385 168 q 392 179 401 196 q 410 213 412 218 q 414 222 416 225 q 418 228 430 233 l 430 249 l 440 250 q 444 250 464 262 l 486 262 l 503 257 q 511 254 531 253 l 534 245 q 535 242 548 234 q 561 226 566 217 z m 566 150 l 558 185 l 545 206 l 533 212 q 528 224 513 224 l 501 222 l 492 225 q 481 225 470 222 l 467 210 q 454 210 447 208 q 439 206 438 202 l 435 187 l 428 182 l 425 167 l 405 146 l 401 125 q 392 118 391 116 q 391 115 390 102 q 388 90 383 87 l 383 83 l 384 72 q 384 66 380 62 q 382 -17 419 -17 q 429 -17 447 -12 q 461 -5 463 -5 l 469 -5 l 525 37 q 526 44 533 49 q 540 55 540 57 l 541 57 q 543 57 550 68 l 556 80 l 563 121 l 563 130 z"},"m":{"x_min":0,"x_max":861,"ha":861,"o":"m 844 85 l 839 77 l 832 75 q 832 65 825 60 q 819 55 819 52 l 819 50 l 816 48 q 813 41 805 36 q 798 31 796 31 l 787 32 l 786 22 q 778 14 777 14 q 776 14 764 16 q 753 10 742 10 q 734 10 709 14 q 706 19 702 19 q 699 19 694 16 q 691 23 678 30 l 680 37 q 669 42 669 57 l 670 66 l 658 75 l 652 105 l 643 121 l 643 128 l 636 160 l 637 173 l 630 208 l 629 223 l 631 254 l 627 293 l 614 279 l 593 242 l 584 221 q 564 208 559 189 q 549 189 549 167 q 543 161 539 153 q 534 146 531 141 q 529 137 529 136 l 529 134 q 512 119 508 100 q 505 98 498 85 q 491 72 472 51 q 463 47 457 33 q 453 23 447 21 q 440 20 440 11 l 440 7 q 432 7 410 -3 q 401 -2 398 9 l 396 23 l 390 35 l 390 47 l 382 80 q 383 83 383 87 q 383 92 378 100 l 382 134 l 378 141 l 382 157 l 380 166 l 380 173 l 376 182 l 383 197 l 378 228 l 380 237 l 383 274 l 376 297 l 378 315 l 373 329 q 364 352 362 359 q 359 366 355 366 q 354 367 351 367 q 348 367 326 353 l 312 334 l 300 322 l 273 285 l 271 274 l 255 256 l 248 237 q 242 231 239 220 q 235 208 230 207 q 226 205 218 199 l 217 181 q 212 175 208 166 q 204 156 197 150 q 191 145 188 130 q 177 130 177 116 q 174 106 166 106 q 162 96 162 92 l 162 89 q 150 79 150 76 q 150 73 153 70 q 142 64 135 51 q 129 38 125 35 l 125 31 q 125 24 121 21 q 117 18 108 9 q 98 -1 92 -1 q 84 -1 81 22 q 82 24 82 28 q 82 36 75 41 l 75 55 q 75 63 79 71 l 74 93 l 75 109 l 74 126 l 74 130 q 74 141 79 146 l 81 154 q 81 158 80 169 q 78 180 78 182 l 78 198 q 81 208 87 214 l 79 224 q 83 228 82 231 q 80 235 80 237 q 80 240 85 249 q 90 257 92 266 l 85 285 l 88 295 l 82 329 l 85 343 l 79 370 l 81 388 l 74 404 q 84 427 94 427 l 98 425 l 101 411 q 114 408 114 395 l 112 374 q 112 368 120 366 q 111 352 111 345 l 111 342 l 116 291 l 114 253 l 110 242 l 114 230 l 111 225 l 115 218 q 108 212 108 205 l 110 197 q 110 189 104 185 l 108 157 l 104 147 q 100 136 101 129 q 103 122 103 118 q 103 112 101 110 q 106 100 106 99 q 106 95 101 89 l 111 82 l 130 107 l 134 121 q 139 124 143 130 q 146 135 147 142 q 149 148 159 162 q 161 162 165 167 q 169 172 176 181 q 182 190 190 199 q 191 204 195 209 q 198 214 201 218 q 204 221 209 238 l 220 258 l 222 265 q 223 269 231 278 l 250 298 q 253 298 262 315 q 270 333 280 343 q 291 352 291 359 q 300 360 300 368 q 311 373 312 382 l 315 381 q 320 381 326 400 q 341 413 347 413 q 348 413 371 407 q 373 403 373 401 q 373 399 371 395 l 378 393 q 378 388 392 368 l 392 352 l 401 342 l 401 329 q 412 305 412 290 l 408 274 l 412 260 l 403 249 l 408 218 q 405 208 405 194 l 408 167 l 406 158 l 408 148 l 405 144 q 412 112 412 90 l 410 82 l 406 78 q 413 67 413 55 l 430 50 l 476 106 q 479 109 485 123 q 491 137 496 145 q 501 145 504 159 q 506 174 515 176 q 515 183 517 186 q 519 189 534 199 l 534 201 q 534 215 553 230 q 558 245 566 258 q 580 271 583 279 l 594 299 q 600 310 603 322 q 619 328 630 361 q 641 364 645 382 l 661 389 l 675 382 l 670 377 l 677 370 q 669 367 669 363 q 669 358 674 356 l 667 343 l 661 297 q 666 294 668 290 q 660 278 660 256 l 661 238 l 659 231 l 662 218 q 661 216 658 214 q 656 211 656 208 q 656 205 659 199 q 665 197 665 186 q 665 183 662 180 q 664 178 664 175 q 664 173 661 169 q 661 150 670 128 q 674 119 678 93 l 691 86 l 696 64 q 707 58 710 51 l 722 46 l 737 43 q 745 41 748 41 q 753 41 762 44 q 771 48 776 52 q 782 55 795 61 q 803 72 810 85 l 823 91 l 829 101 l 843 100 q 843 86 844 85 z"},"#":{"x_min":0,"x_max":618,"ha":618,"o":"m 617 318 q 607 318 601 312 l 593 317 q 590 319 574 320 q 566 315 564 315 q 561 315 558 319 l 549 316 l 538 321 l 528 314 l 513 318 l 475 313 l 464 317 q 439 317 423 313 l 417 294 q 416 290 413 286 l 404 274 l 402 237 l 396 230 q 393 227 386 203 l 376 196 l 375 185 l 362 171 l 369 165 l 362 157 q 376 159 384 157 q 391 155 402 155 l 407 156 q 412 156 416 152 l 432 151 l 448 153 l 462 147 l 477 152 q 480 147 482 147 q 484 147 494 149 q 505 151 516 149 q 526 147 535 147 q 542 151 547 151 l 566 149 l 575 137 l 566 137 l 558 131 l 550 136 q 547 138 531 139 q 524 135 521 135 q 517 135 515 138 l 506 135 l 496 141 l 486 134 l 471 138 l 431 132 l 422 136 l 416 137 q 405 137 367 129 q 364 134 358 134 q 349 116 343 98 l 333 90 l 327 66 l 313 32 l 310 10 l 301 -9 l 299 -37 l 283 -62 l 270 -105 l 268 -119 q 267 -127 263 -134 l 253 -152 l 241 -147 l 251 -116 l 250 -97 q 250 -97 254 -90 q 258 -83 258 -74 l 265 -71 l 266 -47 l 271 -31 l 277 0 q 287 2 289 7 q 291 11 292 42 l 305 56 l 306 70 q 306 78 309 84 l 316 102 l 314 112 l 328 131 l 318 130 l 310 132 q 302 135 297 135 l 253 130 l 237 134 l 209 125 l 183 133 l 174 133 q 165 116 159 98 l 149 90 l 143 66 l 129 32 l 125 10 l 117 -9 l 115 -37 l 99 -62 l 86 -105 l 84 -119 q 83 -127 79 -134 l 69 -152 l 57 -147 l 67 -116 l 66 -97 q 66 -97 70 -89 q 74 -82 74 -74 l 81 -71 l 82 -47 l 87 -31 l 93 0 q 103 2 105 7 q 107 11 108 42 l 121 56 l 122 70 q 122 78 125 84 l 132 102 l 130 112 l 145 133 q 127 132 106 123 q 102 131 94 131 l 78 127 l 63 132 l 31 129 l 24 125 q 15 130 7 136 l 7 147 l 5 153 l 10 153 q 40 163 48 163 l 69 158 l 87 160 l 119 156 l 142 160 l 153 158 l 153 162 l 160 175 q 164 182 166 197 l 169 197 q 166 205 166 208 q 166 213 171 228 l 179 232 l 178 252 l 198 258 q 190 268 190 272 q 190 278 199 290 q 208 302 209 313 l 191 314 q 188 314 174 311 q 159 309 149 303 q 146 312 137 312 l 120 308 l 106 313 l 74 310 l 66 306 q 58 311 50 317 l 50 328 l 47 334 l 53 334 q 83 344 91 344 l 112 339 l 130 341 l 162 337 l 186 341 l 203 338 l 222 342 l 226 377 l 250 425 l 250 457 l 267 466 l 272 505 q 284 524 284 526 q 284 528 310 545 l 325 530 l 294 453 l 283 434 l 275 405 l 260 369 l 249 365 l 252 358 l 247 337 l 256 334 l 270 337 l 282 336 q 285 333 289 333 q 290 333 292 334 q 295 336 299 337 q 309 333 313 330 q 317 336 328 336 q 337 336 341 332 l 406 338 l 410 377 l 434 425 l 434 457 l 451 466 l 456 505 q 467 524 468 526 q 468 528 494 545 l 509 530 l 498 498 l 478 453 l 467 434 l 459 405 l 444 369 l 433 365 l 436 358 l 431 337 l 445 335 l 453 337 q 455 337 459 333 l 475 332 l 491 333 l 505 328 l 520 333 q 521 327 528 329 q 540 331 551 331 q 554 331 563 329 q 573 328 578 327 q 581 329 590 332 q 597 330 609 330 z m 393 316 l 390 316 l 384 313 q 380 311 361 311 l 342 316 q 338 316 318 313 q 298 310 296 310 l 281 314 l 251 306 l 238 310 l 234 296 q 232 290 220 274 l 218 237 l 211 230 q 209 227 202 203 l 192 196 l 191 185 l 178 171 l 185 165 l 182 162 l 191 164 l 213 153 l 227 157 l 238 155 q 244 153 246 153 q 250 153 256 156 q 263 155 270 149 q 273 155 284 155 q 294 155 298 151 l 336 155 l 337 162 l 344 175 q 348 182 350 197 l 353 197 q 350 203 350 210 q 350 215 355 228 l 363 232 l 362 252 l 382 258 q 373 269 373 274 q 373 279 383 291 q 393 303 393 316 z"},",":{"x_min":0,"x_max":249,"ha":249,"o":"m 166 56 l 157 39 l 143 31 l 136 19 l 121 4 l 116 -5 l 100 -16 l 67 -55 l 46 -67 q 40 -91 23 -96 q 16 -119 10 -122 l 1 -123 q 2 -107 3 -102 l 7 -97 q 8 -81 22 -74 q 22 -73 27 -67 q 31 -61 34 -51 l 35 -54 q 39 -51 39 -48 l 39 -45 l 47 -37 l 46 -29 q 52 -26 58 -17 q 65 -3 75 1 l 75 8 l 82 10 q 82 39 93 49 l 100 46 l 98 62 l 102 78 q 106 96 125 96 q 144 96 153 83 l 164 80 z"},"n":{"x_min":0,"x_max":623,"ha":623,"o":"m 626 152 q 628 144 614 136 l 615 133 q 615 128 602 112 q 589 96 589 88 l 578 85 q 578 64 560 61 q 559 55 555 55 l 553 55 q 552 47 542 47 l 536 35 l 522 32 l 510 24 q 508 23 504 22 l 482 18 l 474 19 l 467 18 l 464 22 l 455 23 l 444 37 l 439 37 q 435 41 435 48 q 419 65 419 75 l 419 83 l 412 96 l 412 102 l 417 105 l 413 119 l 406 137 l 407 164 l 397 180 l 397 205 q 383 278 383 294 l 383 298 q 381 306 381 309 q 381 313 382 315 q 371 332 370 343 l 365 347 l 344 325 l 334 311 l 299 269 l 285 244 q 278 228 273 220 q 269 213 254 198 l 257 189 l 250 170 l 242 169 l 242 160 l 237 160 l 218 137 q 217 121 205 118 q 201 112 197 100 q 194 87 186 87 l 182 83 q 173 67 165 58 q 157 50 142 39 q 139 22 130 19 l 129 14 q 128 7 124 1 q 120 -5 100 -10 q 93 -9 89 7 q 85 22 77 26 l 74 32 l 82 45 l 81 57 l 86 62 l 81 71 l 82 83 l 74 105 l 81 118 l 77 132 q 84 146 84 173 l 84 178 q 84 181 78 190 q 86 196 86 202 l 84 218 l 90 256 l 86 263 l 87 279 l 82 288 l 86 320 l 84 331 l 87 349 l 84 375 l 91 388 q 109 383 111 381 q 112 379 113 372 q 114 365 114 349 l 122 336 l 119 317 l 123 276 l 116 254 l 119 228 l 119 216 l 110 201 l 116 180 q 113 176 109 153 l 114 141 q 105 114 106 102 l 107 66 l 110 61 l 122 67 l 132 67 l 137 89 q 148 92 151 100 q 152 112 166 112 q 167 123 173 127 q 177 127 182 141 q 192 151 198 162 l 198 176 l 199 176 q 203 176 208 183 q 213 190 221 190 q 225 203 230 208 l 244 225 l 257 253 q 255 261 255 263 q 255 266 258 266 q 278 279 278 292 l 278 304 q 293 310 293 315 q 293 317 292 321 q 290 324 290 325 q 290 330 294 330 q 297 330 302 327 q 309 354 324 354 q 327 354 333 352 q 333 366 342 375 q 344 381 365 390 l 370 398 l 374 398 q 382 387 388 384 l 390 377 l 395 375 l 397 356 l 410 348 l 406 331 l 413 300 l 413 271 l 420 237 l 423 201 l 433 168 l 435 135 q 436 134 440 125 q 445 117 447 103 l 451 100 l 451 85 l 460 75 l 458 68 l 465 64 l 465 59 q 474 53 481 53 q 489 53 496 57 q 500 55 501 55 q 505 55 510 63 q 524 64 524 71 l 524 73 q 525 77 544 83 q 549 89 554 93 l 553 95 q 554 98 557 101 q 560 104 566 110 q 573 115 576 120 l 581 131 q 587 140 600 159 l 614 166 l 623 166 z"},"h":{"x_min":0,"x_max":513,"ha":513,"o":"m 434 6 q 435 1 435 -7 q 435 -30 413 -30 q 398 -30 393 -5 l 386 26 l 386 35 q 387 42 387 52 q 387 63 377 78 l 384 94 l 380 118 l 384 130 l 384 146 l 386 160 l 382 176 l 386 185 l 386 222 l 387 270 l 380 302 l 384 315 l 375 353 l 375 365 l 359 372 l 341 355 q 337 352 331 349 l 314 342 l 286 302 l 275 299 l 250 258 l 250 253 l 243 253 l 240 244 l 229 234 q 224 228 220 215 l 210 180 l 195 161 q 192 157 188 144 l 178 135 l 174 109 l 153 89 l 151 61 l 147 61 l 140 42 l 124 13 q 105 -8 101 -16 l 96 -14 l 90 -14 l 87 -9 l 78 25 l 76 80 l 73 96 l 76 116 l 75 151 l 80 153 l 87 238 l 90 254 l 89 266 l 94 269 l 92 276 l 96 311 l 101 325 l 98 340 l 101 347 l 98 353 l 101 386 l 96 391 l 99 398 l 98 436 l 92 453 l 98 453 l 98 462 l 89 503 l 89 523 l 85 532 l 80 564 q 74 586 64 605 l 75 621 l 73 624 q 85 624 85 612 l 99 599 l 103 587 q 105 582 115 571 l 113 562 l 119 544 l 113 535 l 122 528 l 121 502 l 122 452 l 128 427 l 124 416 l 125 397 l 121 381 l 124 356 l 117 331 l 121 324 l 119 263 l 121 254 l 117 249 l 113 212 l 108 201 l 112 189 l 110 183 l 108 150 l 98 121 q 109 108 109 104 l 101 90 q 106 80 106 66 l 115 73 l 119 86 l 135 118 l 142 141 q 158 146 158 162 q 161 164 173 186 l 177 199 q 179 205 187 215 l 188 228 l 185 231 l 192 237 l 194 234 l 210 254 q 218 258 218 266 l 218 270 q 231 272 231 288 l 234 290 l 234 295 l 242 297 l 243 310 l 250 310 l 249 318 l 256 318 l 256 324 q 263 329 264 329 q 265 329 265 327 l 265 325 l 266 334 l 269 334 q 281 334 281 353 l 293 363 l 295 359 q 302 367 304 379 l 311 382 l 314 390 l 322 391 q 326 395 333 396 q 340 397 341 398 l 339 402 q 359 413 364 413 q 370 413 380 400 q 387 399 387 391 l 396 384 q 396 377 412 350 l 412 272 l 410 231 l 414 221 l 414 148 l 412 135 l 412 110 l 414 89 l 410 64 q 414 60 416 34 l 426 22 l 426 10 z"},"z":{"x_min":0,"x_max":535,"ha":535,"o":"m 479 87 q 488 75 488 59 q 488 52 487 51 l 463 22 l 460 10 l 446 6 l 441 -4 l 426 -7 l 410 -7 l 367 -1 l 355 -7 l 339 -1 l 318 -5 l 310 2 q 276 -4 275 -4 l 257 0 l 222 2 l 200 0 l 188 3 q 176 7 170 7 q 157 7 137 0 l 118 7 q 83 7 60 -1 l 58 -12 l 49 -16 l 44 -23 l 35 -26 l 25 -22 l 22 -13 l 22 0 l 25 7 l 38 18 q 44 30 49 33 q 53 37 65 41 q 67 43 73 49 q 79 55 79 62 l 79 64 q 90 64 92 73 q 112 84 115 87 q 117 89 117 93 q 124 100 130 102 q 133 114 152 130 q 166 131 168 141 q 171 150 177 157 l 182 157 l 182 164 l 198 166 l 198 168 q 198 171 204 185 q 215 189 216 199 q 226 208 236 210 l 237 218 l 248 225 l 258 241 q 264 249 271 254 q 283 257 284 270 l 298 281 l 303 294 l 313 301 l 330 329 l 346 340 q 351 354 358 361 l 358 370 q 371 373 375 379 q 372 391 355 391 l 351 391 l 326 379 l 312 381 l 300 377 l 282 379 l 270 375 l 260 380 l 230 370 q 218 373 207 373 q 193 373 178 370 l 168 375 l 147 372 l 137 375 l 118 370 l 87 377 l 62 375 l 17 386 l 0 382 l -13 388 l -18 404 l -6 413 l 4 410 q 13 417 24 418 l 37 413 l 56 413 q 56 403 65 403 l 70 404 l 90 404 l 104 400 l 121 403 l 136 398 l 150 401 l 153 401 l 165 402 l 182 400 l 188 404 l 276 403 l 287 400 l 303 407 l 313 407 l 313 414 l 353 414 l 369 418 l 385 414 l 407 423 l 422 422 l 440 425 l 442 425 q 454 425 456 404 l 447 398 l 438 390 l 424 384 l 394 353 l 385 352 l 362 320 q 329 308 325 281 l 312 269 l 294 242 l 284 237 l 243 183 l 229 178 l 216 160 l 207 157 l 204 148 l 184 130 l 175 113 l 156 96 l 133 67 l 122 64 l 120 57 l 113 53 q 117 43 125 43 q 139 38 147 32 l 153 34 l 202 35 l 213 30 l 266 34 l 316 25 q 320 28 325 28 q 329 28 335 19 l 353 30 l 371 23 l 387 28 l 405 25 l 422 26 q 430 34 440 34 q 448 46 452 48 q 457 49 458 58 q 468 64 468 75 l 468 80 l 471 90 z"},"B":{"x_min":0,"x_max":662,"ha":662,"o":"m 631 162 l 625 146 l 628 137 q 616 122 610 109 l 599 106 l 589 94 l 567 84 q 562 82 558 77 l 546 62 l 522 71 q 514 71 500 47 l 486 53 l 462 45 l 457 47 q 443 37 430 31 q 417 26 406 25 q 395 24 394 24 q 393 23 377 10 l 368 16 l 358 9 l 339 14 q 329 6 318 6 l 294 9 l 285 -5 l 270 2 l 265 2 q 264 1 261 1 q 259 1 255 2 q 251 3 249 3 q 243 3 231 -7 q 229 -10 221 -10 q 212 -10 199 -7 l 185 -23 l 170 -17 l 170 -13 q 170 -7 166 -5 q 164 -9 157 -9 l 153 -9 l 140 22 l 141 37 l 138 58 l 144 77 l 141 99 l 147 118 l 144 134 l 146 148 q 147 151 147 156 q 147 160 145 167 l 140 183 l 137 215 q 119 216 112 221 q 106 226 102 231 q 105 243 115 251 q 125 260 128 260 q 131 260 134 256 l 138 269 l 144 272 l 138 292 l 146 295 l 140 318 l 144 324 l 137 342 l 144 356 l 138 361 l 137 374 q 137 381 134 387 l 126 404 l 130 423 l 122 427 l 124 445 l 118 457 l 110 486 l 94 502 q 86 501 78 493 l 71 498 l 62 493 l 55 500 l 48 493 l 48 498 l 32 502 l 9 487 q -20 502 -20 518 q -20 524 -15 524 q -11 524 -9 523 q -1 540 9 541 l 23 534 l 30 537 q 58 537 73 535 l 86 532 q 91 532 97 535 l 103 537 l 110 537 l 118 530 q 121 532 130 534 l 153 525 l 215 516 q 223 518 227 518 q 233 518 246 514 l 262 518 q 265 518 275 510 q 296 498 317 498 l 322 498 l 336 502 l 342 494 q 347 497 351 497 q 355 497 358 492 q 360 487 364 487 l 391 486 q 407 468 430 468 l 438 465 q 442 464 453 453 l 470 453 l 473 445 l 493 432 l 497 413 q 486 391 481 385 q 477 380 470 375 q 463 371 456 369 q 449 367 439 361 l 430 363 l 409 347 q 403 349 402 349 q 394 349 391 337 q 386 341 382 341 q 378 341 377 337 l 368 337 l 355 322 l 337 318 q 332 313 325 310 q 319 308 310 307 q 301 306 291 302 l 285 294 l 275 294 l 263 287 q 256 282 249 280 l 230 276 l 225 270 q 211 267 208 264 q 204 261 194 260 q 187 250 187 246 q 187 243 190 243 l 202 243 q 220 243 233 242 l 287 238 l 298 242 l 350 233 l 359 237 q 372 226 375 226 q 378 226 378 231 l 380 231 q 381 231 388 228 q 396 225 408 225 l 416 225 q 432 218 444 218 q 454 218 461 222 q 475 218 502 218 l 513 210 l 525 213 l 557 199 l 569 199 q 580 188 594 187 q 602 178 615 171 q 628 165 631 162 z m 455 416 l 437 425 q 434 427 423 441 l 407 441 l 400 445 q 377 446 377 455 l 368 448 l 358 457 l 347 459 q 342 461 333 468 l 323 462 l 310 470 q 306 469 298 469 q 290 469 279 471 l 269 473 l 253 471 l 240 484 l 225 480 l 215 486 l 208 478 l 194 484 l 179 477 l 163 480 l 156 471 l 170 457 l 170 432 l 176 414 l 170 398 l 178 372 l 175 349 l 180 334 l 176 318 l 176 294 l 175 288 q 175 281 187 278 q 192 291 204 293 q 216 295 228 299 q 239 303 240 306 l 254 308 l 256 315 l 278 317 l 282 329 q 287 325 294 325 q 302 325 311 334 l 323 333 q 332 350 352 355 q 372 360 378 363 l 397 370 l 409 370 l 414 381 l 434 384 l 442 393 l 442 398 l 444 398 q 455 398 455 416 z m 582 125 q 586 130 586 140 q 586 145 585 147 q 585 150 573 167 l 557 169 l 550 180 l 538 176 l 518 187 l 502 185 l 493 192 l 473 190 q 462 198 453 198 q 445 198 439 192 q 433 195 430 199 l 420 199 l 356 202 l 333 213 q 332 214 326 215 q 321 215 317 217 q 297 214 285 205 l 272 215 l 254 213 l 253 206 l 233 208 q 223 217 210 217 q 177 217 177 185 l 178 175 l 176 160 l 182 147 l 178 134 l 179 125 l 178 106 q 181 101 183 95 q 186 90 186 79 l 178 57 l 183 48 l 179 39 l 185 37 l 187 22 l 199 16 l 236 18 l 252 23 l 275 22 q 283 20 285 20 q 296 20 314 33 l 325 30 l 374 41 l 393 51 l 407 48 l 434 64 l 461 64 q 482 72 509 87 q 511 86 516 86 q 522 86 525 87 l 530 98 l 566 110 l 572 122 z"},"K":{"x_min":0,"x_max":731,"ha":731,"o":"m 732 102 l 725 90 l 698 53 q 678 37 661 27 q 644 17 604 7 l 595 10 l 581 6 l 565 9 l 547 6 l 542 10 l 531 7 l 518 10 l 501 10 l 488 23 l 465 29 l 456 39 l 447 37 l 433 52 q 430 55 425 57 l 410 61 l 396 77 l 367 77 l 360 90 l 350 90 l 346 98 l 332 103 l 330 122 l 318 113 l 310 122 l 292 135 l 280 148 q 275 154 263 162 q 250 170 242 179 q 234 187 222 193 q 213 210 198 210 l 193 210 l 191 218 l 177 215 l 175 224 l 168 222 l 153 225 l 142 213 l 147 178 l 136 176 l 145 148 q 145 132 133 103 q 143 99 145 87 q 137 73 137 61 l 137 38 l 130 22 l 128 8 q 126 -8 102 -47 l 92 -39 l 96 -25 l 97 -14 q 98 -9 103 -1 l 99 9 l 108 14 q 98 14 98 23 q 97 24 97 25 q 97 30 108 37 l 102 45 l 110 55 l 114 53 q 111 71 106 82 l 114 100 l 108 98 q 104 104 104 112 q 104 116 110 132 q 107 147 107 161 q 107 175 104 177 q 102 178 102 183 l 108 190 l 102 210 l 111 222 l 106 231 l 106 254 l 102 279 l 114 292 q 108 295 108 308 l 109 317 q 109 323 108 325 l 111 337 l 106 340 l 106 349 q 112 351 112 355 l 110 365 l 110 412 l 111 418 q 114 422 114 439 q 106 451 106 466 q 106 481 114 500 q 120 503 128 503 q 136 503 147 498 l 161 479 l 158 455 l 165 447 l 161 437 l 165 425 l 152 404 l 159 371 l 152 347 l 154 314 l 145 299 l 153 292 l 166 269 q 167 267 182 263 q 197 260 209 256 l 215 260 l 225 256 l 234 262 l 250 260 l 255 256 q 280 276 291 276 q 300 276 309 272 l 309 279 l 318 279 q 332 294 346 294 l 350 294 l 356 301 l 356 302 q 356 304 361 304 l 370 304 l 403 318 q 412 334 417 337 q 421 339 424 339 q 427 339 429 337 l 431 349 l 438 349 l 440 356 l 453 359 l 462 375 l 472 375 q 477 375 479 389 q 481 403 494 404 q 501 415 508 418 l 508 425 l 522 427 q 528 454 538 457 q 545 467 548 475 q 550 483 572 506 l 572 512 q 572 527 582 527 q 593 527 604 510 l 598 509 l 598 498 q 594 490 581 477 l 579 464 l 570 461 l 561 430 l 550 417 q 542 403 539 401 q 537 399 532 397 q 526 395 517 387 q 519 377 522 372 q 499 372 492 356 l 481 353 l 481 345 l 469 340 l 449 318 l 422 303 l 403 289 l 385 285 l 369 275 l 342 269 q 307 245 291 240 l 262 230 l 242 227 l 270 206 l 275 199 l 286 199 l 296 183 l 320 162 l 349 145 l 353 134 l 380 125 l 403 109 l 433 93 l 451 76 l 470 71 l 497 51 l 534 39 l 563 35 l 611 41 l 630 41 q 638 41 643 47 q 648 53 652 53 q 653 53 656 52 q 659 50 662 50 l 664 50 q 667 62 677 62 l 680 62 l 682 73 q 694 88 706 95 l 707 103 q 718 106 725 113 l 730 110 z"},"R":{"x_min":0,"x_max":737,"ha":737,"o":"m 768 67 q 772 56 772 53 q 772 49 763 42 q 754 35 742 25 l 731 29 l 718 9 q 702 8 687 0 l 658 7 l 642 0 l 637 -9 q 623 2 619 2 q 617 2 617 -1 l 612 0 l 603 -9 l 594 2 l 587 -1 q 579 6 571 6 l 539 6 l 530 16 l 519 14 l 503 23 l 493 18 l 486 30 l 471 30 l 462 41 l 450 41 q 449 41 444 48 q 439 56 430 61 l 400 77 q 374 90 359 121 l 347 121 l 331 141 l 302 164 l 269 202 l 260 205 l 245 221 q 242 224 224 230 q 217 226 212 226 q 208 226 202 230 l 202 229 q 202 228 200 228 l 190 228 l 180 242 q 186 248 187 262 l 199 266 l 199 272 l 212 275 q 218 280 224 280 q 228 280 232 277 q 237 275 238 275 q 239 275 241 278 q 246 260 283 260 q 316 260 334 266 l 334 269 l 409 272 q 435 285 464 285 l 470 283 l 487 289 l 491 295 l 503 294 l 518 300 l 529 300 q 537 300 539 302 q 541 303 541 309 l 541 313 q 553 314 553 317 q 591 327 591 350 q 591 361 580 372 l 547 404 l 539 404 q 516 418 510 418 l 500 418 l 480 427 l 468 427 l 455 437 l 432 437 l 423 441 l 368 445 l 359 450 l 353 447 l 342 450 l 331 447 l 302 450 l 272 445 l 256 450 l 238 448 l 222 450 l 210 445 l 201 448 l 183 437 l 169 439 q 162 424 154 414 l 160 400 l 157 342 l 164 292 q 153 257 153 249 l 146 121 l 154 48 l 148 9 l 148 -1 q 148 -9 129 -9 l 125 -9 l 130 30 l 125 45 l 116 86 l 122 90 q 110 105 110 110 q 110 119 121 130 l 113 146 l 112 146 q 110 146 110 147 q 110 152 122 175 q 115 182 115 194 l 118 210 l 118 218 q 125 230 125 239 q 125 248 118 262 l 125 279 l 122 294 l 128 299 q 125 303 125 309 q 125 316 132 333 l 122 331 l 116 358 l 121 377 l 116 418 l 121 423 q 105 439 97 439 l 94 439 l 87 432 l 64 434 l 49 415 q 39 423 30 425 q 22 435 22 441 q 22 446 24 450 q 26 455 32 459 l 45 468 l 75 471 l 116 473 l 125 480 l 125 483 q 125 498 148 498 l 160 498 q 166 477 178 477 q 181 477 199 486 l 224 480 l 263 486 l 315 480 l 388 478 l 425 471 l 453 471 l 464 462 q 465 468 470 468 q 474 468 480 462 q 480 455 484 450 l 494 448 l 494 461 l 534 445 l 548 434 l 550 437 q 559 432 576 430 l 583 422 l 592 420 q 608 395 616 383 q 625 371 625 361 q 625 343 610 329 q 594 315 576 295 l 566 294 l 558 294 q 555 294 541 287 l 537 279 l 509 279 l 501 272 q 499 270 492 268 l 477 263 q 452 263 432 242 l 416 253 l 402 246 q 397 249 394 249 q 388 249 379 240 l 365 246 l 352 240 l 347 246 l 329 236 l 305 239 q 298 239 290 237 l 300 223 l 324 202 l 331 190 l 370 160 l 379 144 l 385 137 q 388 134 398 110 l 425 109 l 455 78 l 471 71 l 493 57 l 514 51 l 544 39 l 555 41 l 560 37 l 562 39 l 566 32 l 580 35 l 583 25 l 594 32 l 606 29 l 640 32 l 654 29 l 702 37 l 738 47 l 740 41 l 747 53 l 762 53 z"},"T":{"x_min":0,"x_max":591,"ha":591,"o":"m 655 484 l 650 473 l 637 471 l 607 471 l 593 468 l 581 471 l 519 466 l 498 471 q 472 461 461 461 l 431 461 l 413 468 q 413 463 406 461 q 392 461 379 457 q 366 453 355 453 l 335 461 l 318 453 l 316 447 l 307 447 l 302 437 l 298 372 l 302 363 l 300 352 l 301 323 l 298 294 l 298 285 q 298 279 295 276 q 292 272 291 260 l 299 247 l 297 231 l 290 226 q 290 220 296 211 l 290 201 l 290 190 l 282 178 l 287 150 l 285 109 l 278 83 q 280 79 280 77 q 280 74 278 71 q 276 67 278 63 q 279 60 279 57 q 279 54 274 44 q 269 34 271 32 q 271 31 274 16 q 269 3 269 -4 q 269 -11 271 -26 q 265 -26 260 -24 q 256 -23 255 -23 q 247 -23 247 6 l 249 21 q 249 29 247 45 q 245 61 245 68 l 251 138 q 243 151 243 153 q 243 158 248 162 q 244 167 244 171 q 244 174 250 177 q 246 187 246 190 q 246 195 250 204 q 253 213 253 215 l 252 231 q 252 234 261 253 q 253 253 253 266 q 253 289 259 292 l 259 333 l 253 353 l 259 395 l 253 425 l 259 448 q 255 462 245 462 q 240 462 236 457 l 222 456 q 214 455 206 450 l 194 451 l 182 450 l 182 447 l 174 447 q 157 447 147 453 l 145 447 l 124 453 l 66 455 l 43 448 q 17 471 17 478 q 17 480 21 494 l 37 494 l 108 480 l 125 486 l 172 484 l 216 480 l 245 491 l 253 491 l 261 514 l 275 510 l 278 500 l 284 503 q 292 493 307 486 l 323 491 q 339 491 351 478 l 357 486 l 394 493 l 417 491 q 427 487 435 487 l 440 487 q 449 490 455 490 l 469 488 q 474 488 475 491 l 495 494 l 518 489 q 523 484 532 487 q 541 490 544 490 l 562 487 l 612 488 l 634 484 z"},"P":{"x_min":0,"x_max":550,"ha":550,"o":"m 544 353 l 538 341 q 535 334 529 328 l 514 313 l 514 306 q 503 304 497 295 q 491 287 486 287 q 477 271 443 263 q 431 246 407 246 l 402 246 l 402 240 l 382 240 l 370 231 l 359 230 q 359 222 352 222 l 343 215 l 320 215 l 306 202 l 265 194 l 260 190 l 237 192 q 236 188 228 175 q 224 178 199 180 l 190 175 l 176 170 q 166 163 154 160 l 148 141 l 158 122 l 153 98 l 160 71 l 154 67 l 162 55 l 162 35 l 166 25 l 166 7 l 189 9 q 194 4 194 -2 q 194 -17 173 -17 l 167 -17 l 151 -23 l 137 2 l 119 41 l 119 82 l 109 102 l 116 110 l 112 130 l 114 144 l 107 153 l 66 160 l 55 176 l 105 180 l 100 183 q 102 185 106 185 q 111 185 113 183 l 113 206 l 119 218 l 122 278 l 128 285 l 126 331 l 130 356 l 132 411 l 138 427 l 146 432 l 144 447 q 144 457 156 457 q 190 457 190 434 q 190 428 182 412 q 174 396 174 388 q 174 379 185 361 l 176 352 l 175 325 l 162 313 l 166 292 l 158 269 l 162 247 l 158 230 l 160 217 l 153 206 q 154 189 167 187 l 192 202 l 213 202 q 227 216 247 216 l 254 222 q 259 220 268 220 q 288 220 308 237 l 324 238 l 337 249 l 350 249 l 353 254 l 406 269 q 420 271 420 276 q 424 280 425 285 q 430 284 436 284 q 450 284 453 302 q 469 304 470 308 q 472 312 478 315 l 484 310 l 489 325 l 496 331 l 500 353 q 492 375 478 393 l 468 395 l 450 411 l 413 427 q 377 454 337 457 l 337 450 l 320 462 l 297 461 l 283 470 l 267 470 l 253 478 l 239 478 q 229 478 222 486 l 183 491 q 172 488 153 480 l 130 494 l 116 486 l 105 493 l 84 487 l 84 484 l 75 484 l 55 473 l 42 471 q 35 470 22 462 q 9 479 6 498 l 16 512 l 16 519 q 19 523 34 525 q 49 526 61 532 q 72 530 75 530 q 80 530 84 534 l 93 530 q 101 532 103 532 q 109 532 112 526 l 160 526 l 189 525 l 222 519 q 225 516 231 513 q 237 511 237 509 l 244 516 l 248 516 q 259 516 259 512 q 259 510 258 509 l 272 509 q 299 501 317 500 l 320 494 l 347 494 l 365 482 q 368 480 386 478 l 391 470 l 396 470 q 422 470 432 450 l 445 457 l 445 445 q 454 442 470 430 l 482 430 l 491 416 l 523 395 l 523 384 z"},"|":{"x_min":0,"x_max":500,"ha":500,"o":"m 272 -236 l 228 -236 l 228 764 l 272 764 z"},"t":{"x_min":0,"x_max":348,"ha":348,"o":"m 140 375 l 209 372 l 275 375 l 291 374 l 298 375 l 334 375 q 344 375 344 366 q 344 356 328 353 q 325 355 320 355 q 313 355 307 350 l 293 353 l 266 352 q 248 342 229 342 l 210 345 l 200 336 l 191 336 l 191 342 l 174 334 l 165 334 l 162 325 q 154 328 133 329 q 131 323 128 323 q 126 323 122 327 l 108 325 l 98 315 l 95 266 l 97 237 l 94 199 l 95 157 l 98 137 l 98 119 l 110 94 l 110 90 q 110 73 130 57 l 133 49 l 151 45 l 164 31 l 201 24 l 250 35 l 264 31 l 299 47 l 312 45 q 319 38 319 32 q 319 25 306 16 l 299 19 l 283 6 l 250 2 l 239 -5 l 227 2 q 210 -7 192 -7 l 172 -3 l 161 -3 l 125 18 l 108 42 l 96 55 l 78 103 l 70 148 l 74 166 l 66 176 l 70 187 l 66 205 l 76 213 l 72 222 l 74 234 l 70 247 l 72 266 l 70 276 l 74 279 l 74 315 q 71 328 66 328 q 62 328 60 324 l 49 329 l 33 325 l 17 337 l 9 337 q -3 337 -3 350 l -2 365 l -9 370 l -5 379 l 10 377 l 21 379 l 37 374 l 79 374 l 81 397 l 81 420 l 74 437 l 82 443 q 84 449 84 450 q 84 457 76 461 l 78 500 l 70 512 l 72 521 q 62 523 62 529 l 69 555 q 77 566 78 569 q 108 554 108 552 l 108 551 l 104 541 q 111 527 111 519 l 111 516 q 108 508 108 502 q 108 497 111 494 l 110 486 l 111 475 l 102 461 l 108 436 l 104 406 l 108 400 l 102 391 l 110 366 l 128 366 z"},"M":{"x_min":0,"x_max":853,"ha":853,"o":"m 802 -16 q 799 -19 787 -23 l 766 -9 l 739 25 l 731 45 q 728 64 723 77 q 712 90 712 132 q 712 139 714 142 q 716 146 719 175 l 709 196 l 712 206 l 709 225 l 710 247 l 703 254 l 709 269 l 703 278 l 709 287 l 702 308 l 702 340 l 694 359 q 693 372 693 381 q 692 390 674 402 l 661 386 l 650 381 l 616 334 l 587 299 l 577 278 l 549 246 l 511 218 l 508 201 l 488 194 l 485 180 l 462 169 l 454 150 l 438 144 l 415 103 q 401 103 399 78 q 395 77 392 77 q 388 86 376 103 l 378 116 l 371 125 l 378 134 l 372 141 q 369 144 364 162 l 350 175 q 346 176 340 186 q 333 196 330 201 q 326 206 321 225 l 310 238 l 291 276 l 271 299 l 264 313 l 245 334 l 225 365 q 208 391 198 391 q 191 391 185 389 q 179 386 178 386 l 177 386 l 177 374 q 177 341 168 324 l 147 285 l 152 260 l 145 242 l 125 175 l 117 153 l 114 138 l 101 106 l 85 78 l 87 56 l 70 15 q 70 6 79 2 q 60 -22 53 -22 q 51 -22 45 -14 q 40 -7 40 4 q 40 6 44 16 q 48 27 51 42 q 54 56 59 63 q 65 69 65 70 l 65 94 q 65 115 85 125 l 85 141 l 91 164 q 90 166 90 170 q 90 175 95 190 q 102 198 102 208 l 102 230 l 111 246 l 129 306 l 124 333 l 133 340 l 136 352 l 137 395 q 142 422 142 433 q 142 444 129 470 l 137 487 l 133 494 q 137 496 137 503 q 152 503 156 510 l 165 509 l 177 500 l 177 491 l 188 484 l 191 461 l 200 453 l 204 439 l 209 439 q 207 435 207 432 q 207 423 223 422 q 229 419 237 411 l 239 398 l 250 386 l 257 363 l 302 315 l 310 288 l 325 276 l 339 237 l 373 176 q 384 158 399 144 l 401 157 l 419 157 l 430 182 l 451 197 q 457 205 469 217 l 469 225 q 480 232 491 239 q 503 245 503 246 q 503 247 502 247 q 502 254 508 263 l 518 263 l 527 276 q 530 271 532 271 q 533 271 533 274 q 533 275 531 292 q 553 322 570 322 l 570 334 q 570 344 587 349 l 593 347 l 595 353 l 616 386 l 618 393 l 625 393 q 640 409 647 430 q 653 435 662 435 q 666 435 667 432 l 674 447 l 670 477 l 664 491 q 675 507 678 523 q 689 521 694 519 q 696 516 707 514 l 709 498 q 726 484 726 482 q 727 481 727 476 l 726 468 l 726 441 l 732 432 l 726 427 l 732 425 l 730 414 l 734 409 l 737 388 l 742 384 l 732 370 l 737 368 l 734 347 l 741 329 l 739 306 l 748 270 q 750 259 753 240 q 747 228 741 222 l 747 210 q 751 208 751 205 q 751 203 747 196 q 744 188 742 183 l 750 176 l 747 121 l 757 87 l 757 47 l 764 39 q 770 24 774 19 q 778 14 789 2 q 801 -10 802 -16 z"},"g":{"x_min":0,"x_max":579,"ha":579,"o":"m 492 125 l 484 87 l 486 78 l 482 73 q 488 62 488 52 l 486 42 l 487 22 q 487 3 482 -25 q 478 -54 477 -64 l 476 -79 q 475 -85 465 -106 l 470 -106 l 468 -121 l 462 -128 q 459 -132 455 -145 q 452 -158 447 -167 q 442 -176 434 -188 q 427 -200 417 -207 q 408 -215 391 -230 l 376 -237 q 364 -247 358 -247 l 353 -253 q 318 -260 317 -260 l 315 -260 l 313 -263 q 299 -269 281 -269 l 245 -269 l 219 -263 l 203 -266 l 196 -260 l 167 -256 l 155 -245 q 150 -240 130 -229 q 104 -218 98 -197 l 102 -192 l 98 -174 q 102 -169 107 -169 q 110 -165 113 -165 q 114 -165 124 -167 q 134 -169 148 -170 l 147 -180 q 152 -180 161 -186 q 161 -190 159 -194 l 157 -199 q 157 -210 166 -212 q 166 -218 168 -219 q 169 -219 175 -221 l 217 -235 l 228 -233 l 230 -237 l 252 -237 q 260 -237 269 -240 q 278 -233 322 -229 q 331 -228 338 -221 q 356 -219 360 -213 l 363 -213 q 368 -213 372 -211 q 377 -209 380 -205 l 414 -170 l 433 -141 l 434 -128 l 445 -112 l 447 -97 l 452 -85 l 458 -55 l 466 -26 l 465 -5 l 465 3 q 465 25 472 39 l 466 61 l 466 113 l 459 132 l 459 162 l 450 183 l 452 217 l 440 254 q 437 257 433 257 q 427 257 420 247 l 422 237 l 408 231 l 401 212 l 388 199 l 370 170 l 346 153 l 318 121 q 305 109 295 101 q 284 92 273 84 q 262 76 260 73 l 255 65 q 253 62 242 55 l 226 48 l 217 39 q 213 34 196 25 q 192 18 183 18 l 180 18 q 160 1 136 1 q 126 1 122 2 l 114 -3 q 108 0 93 2 q 56 39 52 62 l 46 101 l 48 126 l 59 164 l 58 176 l 62 192 q 66 209 71 218 q 76 226 77 242 l 78 258 l 98 297 q 99 299 104 304 q 109 309 121 330 l 132 342 q 140 360 148 365 q 157 370 161 388 q 166 394 182 397 q 197 400 203 416 l 210 414 l 228 427 q 237 438 246 438 q 248 438 254 436 l 283 447 l 302 443 l 315 443 l 325 436 l 331 436 q 333 431 350 415 q 367 399 369 395 q 369 381 363 372 l 347 372 l 334 393 q 316 400 313 406 l 308 404 q 294 410 287 410 q 271 410 253 397 l 246 398 l 244 391 l 235 391 l 222 388 q 217 374 205 374 q 193 362 186 358 l 180 345 l 171 343 l 170 336 l 161 336 l 145 308 l 132 299 l 126 281 l 112 260 q 110 256 109 237 l 98 225 l 87 180 l 77 169 l 78 151 l 66 110 l 70 96 l 68 77 q 72 73 76 62 q 79 51 86 48 l 89 38 q 99 35 102 32 q 109 35 116 35 l 126 33 q 128 33 138 35 q 145 43 186 48 q 191 53 198 62 q 205 71 211 75 q 218 79 228 86 q 238 93 242 94 q 260 99 260 113 q 284 123 287 134 l 295 136 q 298 137 305 144 q 313 151 328 173 l 334 169 l 338 178 l 349 182 q 348 184 348 187 q 348 193 354 199 q 358 199 361 200 q 364 202 366 206 l 369 213 l 388 238 l 392 238 l 395 258 q 401 261 422 322 l 429 324 l 424 340 l 420 356 q 418 365 414 371 l 404 388 l 410 404 l 406 422 q 411 432 417 432 q 420 432 422 431 q 425 429 433 414 l 443 409 l 442 391 l 446 378 q 448 372 449 368 q 449 363 453 354 q 456 344 456 340 q 456 336 453 336 q 458 322 466 310 l 463 290 q 474 275 474 272 q 474 266 468 260 l 470 247 l 477 244 l 474 231 l 478 205 q 483 194 483 183 q 483 183 482 181 q 479 176 479 158 l 486 153 z"},"j":{"x_min":0,"x_max":255,"ha":255,"o":"m 170 706 l 156 698 l 152 690 q 144 688 141 681 q 138 674 133 670 l 129 672 l 102 637 l 88 628 l 85 619 l 81 619 q 80 605 66 592 l 63 626 l 76 653 l 92 667 q 112 717 117 718 l 114 720 l 122 720 l 125 733 l 130 731 l 133 736 l 136 736 l 142 738 l 142 734 q 150 734 153 732 q 156 730 156 724 q 159 727 161 727 q 165 727 168 724 z m 145 -3 l 142 -3 l 137 -46 l 137 -87 l 140 -94 l 137 -125 l 142 -150 l 137 -162 l 140 -174 q 136 -184 134 -211 q 133 -239 126 -249 q 120 -260 118 -269 q 112 -291 95 -305 l 97 -309 l 95 -309 q 83 -309 81 -324 l 76 -322 q 65 -327 60 -337 l 47 -340 l 42 -345 l 37 -343 l 27 -349 l 10 -345 l 6 -350 l 2 -350 l 1 -345 l -5 -352 l -8 -347 l -15 -347 q -32 -335 -40 -336 l -45 -331 q -52 -329 -66 -327 l -72 -320 l -82 -315 l -114 -295 l -122 -283 q -142 -271 -147 -265 q -152 -259 -156 -245 l -166 -238 q -172 -234 -174 -229 l -181 -217 l -188 -215 l -198 -190 l -205 -186 l -205 -174 l -198 -176 l -177 -205 l -177 -209 l -169 -214 q -165 -217 -159 -228 l -149 -233 l -149 -244 l -137 -249 q -136 -253 -118 -263 l -120 -266 q -117 -266 -102 -272 l -97 -281 l -79 -289 l -81 -295 l -65 -297 l -65 -302 l -57 -302 l -50 -309 l -40 -308 l -33 -312 q -32 -311 -30 -311 q -27 -311 -24 -317 q -22 -316 -20 -316 q -18 -316 -18 -318 l -9 -320 q 4 -320 27 -315 l 25 -312 q 38 -304 40 -304 l 50 -304 l 53 -297 l 60 -292 l 66 -292 l 70 -277 l 81 -266 l 87 -266 q 85 -262 85 -258 l 85 -254 l 90 -256 l 87 -249 l 90 -244 l 93 -245 q 94 -244 98 -233 l 94 -233 l 102 -212 l 97 -200 l 110 -164 l 110 -141 l 113 -137 l 104 -128 q 115 -100 115 -94 q 115 -90 106 -87 l 111 -80 l 110 -69 l 114 -57 l 108 -51 q 108 -37 117 -25 l 108 -1 l 114 13 l 106 32 l 114 39 l 114 45 l 108 55 l 108 64 q 112 64 112 67 q 112 70 111 71 l 114 86 l 106 112 q 104 118 104 122 q 104 132 111 142 l 110 150 l 111 183 l 101 217 l 106 233 l 101 256 l 106 263 l 97 318 l 97 361 l 101 363 l 92 382 l 94 395 l 90 398 l 94 402 l 95 409 l 102 411 q 102 430 111 430 q 118 430 118 422 l 125 425 q 125 414 134 412 q 142 409 142 406 l 142 397 l 137 398 l 137 390 l 136 375 l 137 358 l 136 352 l 140 340 l 134 317 l 137 299 l 134 269 l 137 228 l 134 206 l 143 198 q 134 185 134 178 l 142 118 l 142 106 l 136 66 q 146 54 145 47 l 143 7 z"},"i":{"x_min":0,"x_max":304,"ha":304,"o":"m 191 635 q 188 626 174 618 l 174 612 l 165 602 q 161 596 157 596 q 156 596 152 598 l 125 566 l 118 555 l 94 548 l 82 530 l 71 525 q 66 523 49 506 l 43 510 l 42 522 l 65 532 q 70 557 77 560 q 85 563 85 564 l 85 568 l 90 571 l 92 570 l 94 577 l 98 577 l 94 586 l 110 586 l 110 600 l 117 602 l 122 610 l 130 613 l 137 626 q 141 626 143 632 l 149 632 l 150 642 q 160 651 162 662 q 186 654 191 635 z m 290 132 l 288 122 l 279 115 l 275 103 l 261 99 q 255 80 247 74 l 235 70 l 224 58 q 220 56 207 40 l 200 40 q 193 30 178 29 q 167 16 166 13 q 159 8 147 6 q 136 4 133 3 l 129 -3 l 113 -3 l 104 -10 l 79 9 l 65 41 l 63 93 l 60 103 l 70 185 l 76 190 l 73 241 q 73 250 76 259 q 79 267 81 281 l 85 283 q 85 297 78 311 l 82 324 l 82 343 l 87 349 q 86 356 83 365 q 81 374 81 375 q 81 383 85 383 q 86 382 87 382 q 80 397 80 402 q 80 409 87 409 q 89 409 94 406 q 98 404 101 404 q 102 404 106 406 q 106 414 113 414 q 119 414 119 412 q 120 410 122 393 l 133 388 l 124 377 l 114 313 l 122 297 q 122 286 113 278 l 110 265 l 113 254 l 101 213 l 102 208 l 97 175 l 97 151 l 90 135 l 92 121 l 90 98 q 90 71 98 53 l 97 48 l 106 42 l 116 45 l 128 40 l 142 47 q 147 51 159 54 l 166 61 l 168 58 l 174 66 l 184 69 q 195 79 209 82 q 212 88 223 90 l 229 99 l 240 100 l 238 111 l 242 111 l 244 116 l 265 127 l 267 139 l 286 138 q 288 136 290 132 z"},"y":{"x_min":0,"x_max":638,"ha":638,"o":"m 534 190 q 524 182 524 172 q 524 168 525 162 l 531 126 l 525 87 l 527 71 l 522 57 l 525 13 l 522 7 l 522 -29 l 520 -57 l 524 -67 l 522 -133 l 527 -145 l 522 -151 l 525 -169 l 520 -174 l 524 -189 l 520 -189 l 518 -197 l 518 -212 l 513 -224 l 515 -233 l 494 -270 l 492 -289 l 487 -288 l 478 -300 q 465 -314 460 -325 l 442 -336 q 434 -359 413 -359 q 414 -360 414 -362 q 414 -365 410 -365 l 406 -369 q 392 -376 389 -381 l 378 -381 l 375 -385 l 362 -382 l 342 -395 l 330 -393 l 298 -398 l 289 -397 l 284 -398 l 255 -393 l 247 -393 l 237 -384 l 232 -385 l 197 -373 l 172 -369 l 166 -359 l 150 -357 l 143 -340 l 134 -337 l 120 -318 l 106 -311 l 93 -292 q 90 -288 84 -285 l 69 -276 l 74 -263 l 65 -253 l 66 -247 q 66 -237 59 -221 q 57 -213 57 -207 q 57 -199 61 -187 l 65 -176 l 65 -173 l 72 -169 l 74 -164 l 78 -165 l 81 -153 q 82 -146 104 -126 l 118 -122 l 142 -101 l 170 -103 q 177 -93 182 -93 q 189 -93 189 -101 q 189 -104 188 -106 l 175 -112 l 166 -119 q 162 -122 143 -128 l 136 -142 l 122 -142 q 112 -160 94 -177 l 95 -196 q 87 -208 87 -221 l 82 -224 l 104 -276 l 124 -283 l 127 -295 l 158 -325 l 170 -329 q 177 -331 183 -336 l 197 -349 l 213 -349 l 225 -361 l 241 -359 l 248 -365 l 305 -363 l 313 -361 l 313 -363 q 313 -368 317 -368 q 317 -368 319 -366 q 330 -356 345 -356 l 350 -356 l 382 -343 l 382 -347 q 388 -342 388 -341 l 385 -341 q 387 -339 391 -339 q 394 -339 396 -340 q 397 -331 405 -331 l 408 -331 l 410 -325 q 417 -325 417 -317 l 418 -317 q 423 -317 426 -310 q 429 -302 435 -302 l 438 -304 q 439 -292 453 -283 q 465 -272 465 -256 l 470 -256 q 485 -224 492 -205 l 490 -202 l 492 -177 l 497 -174 l 497 -151 l 501 -144 l 492 -133 q 501 -124 501 -123 q 501 -122 499 -115 q 497 -109 497 -100 l 497 -96 l 499 -55 l 499 3 l 494 14 l 499 34 l 497 57 l 497 110 l 495 121 l 499 132 l 495 141 l 499 150 l 497 187 l 488 196 l 497 205 l 495 213 l 497 228 l 492 234 l 494 246 l 488 258 q 483 253 475 250 l 470 238 l 462 233 l 460 221 l 444 210 l 446 205 l 438 194 l 431 192 l 428 187 l 413 182 l 413 169 l 406 169 l 403 157 l 369 126 l 346 100 l 334 96 l 328 87 l 305 66 l 296 64 q 295 63 278 48 l 275 39 l 266 34 l 258 34 l 253 25 l 242 23 l 222 3 l 204 0 l 197 -7 q 189 -9 177 -14 l 174 -22 q 169 -25 151 -25 q 129 -25 124 -16 l 104 18 l 102 34 l 92 71 l 92 103 l 88 113 l 94 137 l 90 153 l 94 157 l 95 170 l 102 185 l 101 208 l 106 221 l 101 230 l 111 276 l 108 306 l 111 333 l 102 370 l 106 379 l 102 386 l 110 406 l 106 414 l 113 420 l 113 433 l 124 434 q 128 421 137 414 l 134 407 l 140 406 l 137 393 l 145 379 l 142 372 l 145 356 l 150 352 l 143 337 l 149 311 l 137 295 l 143 288 l 137 250 l 137 215 l 133 210 l 129 158 l 118 144 l 120 135 l 120 112 l 125 98 l 120 87 l 122 70 l 118 62 l 122 53 l 122 41 l 133 30 l 136 18 l 143 19 l 145 13 l 153 18 l 174 16 l 181 32 l 206 42 l 207 39 q 208 47 215 51 q 222 54 232 63 q 242 71 253 75 l 252 70 q 257 72 257 75 q 257 76 255 80 q 265 81 287 103 q 310 125 334 128 l 346 148 l 348 142 l 348 151 q 363 154 364 167 l 375 175 q 385 179 385 189 l 385 192 q 398 202 410 205 l 412 213 q 431 234 437 246 q 452 254 458 266 l 476 304 l 475 327 l 483 331 l 483 350 l 478 366 l 481 381 l 472 386 l 471 389 q 471 393 476 400 q 481 408 483 413 l 487 416 l 488 423 q 494 427 499 427 l 520 406 l 521 394 l 521 384 q 522 381 531 365 l 525 359 l 527 345 l 525 334 l 533 325 l 525 324 l 525 310 l 520 292 l 525 266 l 524 247 l 527 240 l 525 222 z"},"@":{"x_min":0,"x_max":685,"ha":685,"o":"m 661 356 l 658 339 l 658 335 q 658 332 660 326 q 661 320 661 318 q 661 304 657 294 l 652 282 l 653 267 q 635 251 632 242 q 630 232 628 221 q 625 210 624 205 l 605 187 q 601 167 581 153 q 561 140 547 117 l 530 120 q 521 108 513 103 q 505 99 475 92 l 468 98 l 454 97 l 451 91 l 446 91 l 441 88 l 437 91 l 433 88 l 416 102 l 418 116 l 413 121 l 416 142 l 416 186 l 421 202 l 416 209 l 422 213 l 419 219 l 421 225 l 425 228 l 425 236 l 428 236 l 430 258 l 435 259 l 432 263 l 421 259 q 416 250 410 247 l 409 240 l 401 236 l 399 226 l 394 222 l 393 218 q 387 213 383 206 l 377 203 l 366 184 l 348 167 l 331 148 q 325 143 322 135 l 300 121 l 276 94 q 265 91 257 85 q 250 87 247 96 q 223 107 223 126 l 228 128 l 225 142 l 225 155 l 222 159 l 226 164 l 229 183 l 237 209 l 237 213 l 239 222 l 238 227 q 238 228 240 236 l 244 237 q 250 243 250 249 q 250 254 247 259 l 250 262 q 246 262 246 266 q 246 270 254 270 q 254 280 264 294 l 259 295 l 270 309 l 270 312 q 270 329 286 336 l 286 348 l 289 350 q 287 355 287 356 q 287 359 290 359 l 292 359 l 293 370 q 296 371 296 375 l 296 378 q 299 382 307 391 q 315 399 318 403 l 321 403 q 327 403 327 406 q 327 407 325 409 q 341 410 341 414 l 353 420 l 385 421 l 385 419 l 414 412 l 417 412 q 423 412 423 406 l 426 407 q 426 403 436 403 l 442 396 l 456 393 l 456 386 q 466 394 482 397 l 481 386 l 484 383 l 482 381 l 486 363 l 479 356 q 473 337 469 331 l 471 322 q 463 314 463 306 q 463 304 465 296 l 462 292 l 463 287 l 460 280 l 461 274 l 456 268 l 456 253 l 454 251 l 456 248 l 454 247 l 454 245 q 454 243 452 237 l 454 233 q 449 227 446 217 l 448 208 l 440 199 q 442 195 446 191 q 441 183 436 163 l 441 162 l 440 158 l 440 155 q 440 149 434 140 l 438 140 l 440 128 l 454 128 l 457 118 q 473 121 483 125 l 490 117 l 499 124 l 505 124 q 520 124 524 140 l 533 140 l 536 148 q 542 146 544 146 q 553 146 556 156 q 567 158 573 178 q 578 199 593 200 q 596 219 606 221 q 604 229 604 233 q 604 249 615 255 q 619 259 621 264 q 623 270 623 273 q 623 277 630 293 l 624 302 l 624 316 q 621 316 621 319 q 621 323 630 332 l 632 359 l 620 369 l 629 391 l 614 403 l 609 443 l 596 441 l 580 469 l 570 471 l 556 490 l 546 486 l 535 494 l 527 494 l 520 502 l 510 504 l 496 518 l 479 517 l 460 531 l 458 526 q 452 528 438 528 q 427 528 421 526 q 403 524 400 524 q 396 524 390 526 q 385 529 383 529 q 379 529 374 525 l 362 516 q 361 515 351 515 q 340 515 330 518 q 323 516 317 513 q 310 510 303 507 l 287 499 q 277 494 275 492 l 270 484 l 253 483 l 245 477 q 229 475 222 457 l 214 458 q 206 443 180 429 l 174 408 l 165 411 q 147 392 145 378 q 143 365 129 364 l 128 358 l 116 353 q 119 344 119 339 q 119 330 104 321 l 104 307 q 103 299 100 292 l 91 272 l 69 212 q 73 207 73 200 q 73 196 70 190 l 75 182 q 71 173 71 159 l 77 132 l 75 112 l 82 100 q 85 94 88 74 l 93 76 q 101 56 101 53 l 100 44 l 107 37 l 126 10 l 140 5 l 144 -2 l 150 -4 q 164 -29 189 -29 l 197 -36 l 209 -34 l 218 -43 l 230 -43 l 244 -54 l 249 -50 l 265 -55 l 274 -52 q 278 -50 281 -50 q 284 -50 301 -58 q 317 -66 326 -66 q 336 -66 370 -57 q 374 -59 383 -59 q 393 -59 402 -54 l 419 -49 l 436 -48 l 455 -36 q 491 -30 523 -10 l 529 -4 q 532 -2 554 8 l 576 3 l 582 3 q 597 3 597 -16 q 597 -18 593 -24 q 588 -29 580 -31 l 577 -34 q 566 -35 552 -48 q 538 -60 527 -60 l 521 -59 q 517 -59 476 -78 q 474 -77 469 -77 q 461 -77 452 -83 l 434 -88 l 404 -93 q 394 -95 389 -95 q 383 -95 374 -92 l 366 -90 l 336 -90 q 328 -84 316 -84 l 303 -86 q 295 -85 289 -85 q 282 -85 267 -80 l 259 -76 q 256 -74 244 -73 q 242 -71 238 -70 q 234 -69 226 -68 q 217 -67 213 -65 l 202 -59 q 198 -60 192 -60 q 179 -60 175 -52 q 170 -45 165 -45 l 159 -47 l 150 -47 l 146 -32 l 123 -22 l 116 -9 l 99 -2 l 94 12 l 91 12 q 81 23 69 42 l 65 62 q 64 66 57 74 l 55 85 l 48 89 l 49 97 l 45 108 l 46 118 q 47 120 47 125 q 47 132 42 144 l 38 163 l 42 193 l 41 206 q 52 225 52 235 l 50 244 l 57 256 l 59 281 l 82 329 l 97 372 l 115 388 l 134 416 l 156 440 q 162 446 173 460 q 185 475 192 481 q 199 488 217 496 l 248 510 q 283 537 291 537 l 303 537 l 311 544 q 316 549 321 551 l 335 555 q 338 549 343 549 q 345 549 352 554 q 358 559 367 559 l 372 559 l 381 554 l 387 566 q 409 562 425 556 l 433 563 q 443 560 449 560 q 455 560 458 563 q 465 562 470 556 q 481 556 490 551 l 508 545 q 528 542 540 535 q 551 528 560 524 q 569 520 577 510 q 581 502 589 501 q 598 499 600 497 q 602 495 615 471 l 628 466 l 631 448 l 640 440 q 645 436 647 431 l 653 416 l 648 407 l 656 392 q 651 385 651 382 l 652 366 z m 441 328 q 440 350 437 353 l 428 358 q 410 375 406 375 l 401 374 l 398 378 l 388 378 l 386 381 l 378 379 l 375 381 l 370 381 q 359 380 352 376 l 337 367 q 335 366 329 364 l 328 360 q 319 356 295 311 l 299 309 l 291 302 l 293 296 q 285 287 285 274 l 280 268 l 279 256 q 274 251 274 245 l 271 243 l 270 231 l 267 228 q 266 223 262 211 l 265 203 q 259 199 256 196 l 259 192 l 254 186 l 258 173 l 251 166 l 251 152 l 248 144 l 252 143 l 252 137 l 257 136 l 261 131 l 275 135 q 279 143 289 144 l 289 149 l 299 152 q 299 155 303 158 q 308 162 322 177 l 319 177 q 331 187 337 189 l 343 201 q 350 203 357 213 l 361 213 l 368 222 l 367 227 l 372 228 l 372 230 q 372 231 376 237 q 376 238 384 248 l 387 247 q 387 253 394 259 q 394 262 405 270 l 409 270 l 410 276 q 412 276 412 278 q 412 279 410 283 l 424 296 l 425 303 l 431 305 l 430 313 q 433 316 435 323 z"},".":{"x_min":0,"x_max":249,"ha":249,"o":"m 162 38 l 159 35 l 161 24 l 156 21 l 156 13 q 150 12 137 -4 q 124 -5 111 -9 q 107 -8 106 -4 q 104 0 101 0 l 98 0 q 98 4 96 4 q 95 4 93 2 l 91 6 l 87 7 l 88 12 l 84 16 l 87 22 l 80 24 l 80 50 q 80 56 92 62 q 104 69 106 75 l 110 78 q 120 74 126 73 q 133 72 140 65 q 146 59 156 54 z"},"p":{"x_min":0,"x_max":449,"ha":449,"o":"m 393 103 l 384 90 l 390 86 q 384 77 377 71 l 375 58 l 363 57 l 359 50 q 358 47 343 37 l 336 39 q 330 33 308 30 l 302 34 l 301 26 l 278 37 q 276 37 267 30 l 263 34 l 233 37 l 215 34 l 206 42 l 185 39 l 175 48 q 165 43 159 43 q 152 43 144 48 q 139 43 139 37 q 139 36 141 28 q 143 20 143 16 q 143 10 138 -3 l 142 -16 l 134 -26 q 137 -47 137 -65 l 134 -93 l 137 -128 l 128 -141 l 134 -160 l 128 -183 l 137 -186 l 137 -197 q 130 -198 130 -207 q 130 -209 132 -217 l 135 -218 q 126 -231 126 -237 l 124 -316 q 124 -333 116 -333 q 114 -333 102 -331 l 103 -312 l 98 -270 l 106 -254 l 109 -224 l 103 -190 q 111 -185 111 -179 q 111 -176 105 -157 l 112 -144 l 105 -122 l 112 -105 l 109 -87 l 118 -81 q 104 -78 104 -65 q 104 -58 112 -29 l 106 -17 l 110 -1 l 106 3 l 110 9 l 106 45 l 112 93 l 105 103 l 119 110 l 112 112 l 106 122 l 100 125 l 105 128 l 106 125 l 109 130 l 105 134 l 116 132 l 112 138 l 116 137 l 116 142 q 109 146 109 149 q 109 156 112 162 l 109 173 q 103 174 103 178 q 103 180 108 180 l 110 180 l 110 183 l 116 183 l 109 192 l 112 205 l 112 217 l 113 224 l 109 240 l 113 258 l 109 272 l 113 290 l 109 297 l 110 313 l 109 324 l 110 340 q 104 345 103 363 l 94 363 l 86 368 l 71 356 l 71 359 l 64 356 l 50 356 l 47 350 l 35 349 l 26 340 l 14 342 l 6 327 l -7 333 l -10 325 q -30 336 -30 347 q -30 350 -24 353 q -19 356 -19 360 q -19 362 -22 370 q -4 379 13 379 l 16 377 l 25 386 q 29 390 52 400 l 55 397 l 64 407 l 86 406 l 102 411 l 105 409 l 109 430 l 118 430 q 127 410 142 404 l 146 411 l 153 406 l 158 409 q 175 408 187 401 q 199 394 209 392 q 219 390 225 384 l 231 388 l 233 381 l 246 374 l 247 377 l 256 374 l 263 364 q 267 359 273 355 l 290 345 l 292 340 l 304 336 l 304 333 q 316 327 318 315 l 329 308 l 337 290 l 342 290 l 342 281 l 348 275 q 350 272 353 258 l 361 256 q 362 237 374 230 l 374 217 l 382 206 l 381 194 q 381 193 386 183 q 391 172 391 160 l 386 158 l 388 150 l 388 142 l 393 141 l 386 121 z m 366 134 l 365 142 l 366 148 l 361 166 l 365 176 l 359 189 l 358 201 l 349 218 l 345 231 l 327 263 l 317 272 l 310 294 l 297 299 l 283 318 l 283 322 l 272 325 l 262 324 l 249 342 l 242 340 l 237 349 l 222 352 l 210 352 l 208 356 l 201 352 l 196 358 l 189 356 l 185 363 l 176 361 l 144 366 q 135 362 135 353 q 135 351 136 348 q 138 345 138 331 l 135 310 l 142 288 l 150 281 l 142 263 l 144 246 l 138 210 l 142 202 l 137 190 l 146 178 l 141 175 l 142 162 l 150 157 l 142 148 l 148 138 l 138 125 l 142 105 l 141 89 l 146 71 l 183 73 l 185 67 q 191 75 192 75 q 192 75 202 64 q 205 64 210 66 q 214 68 216 68 q 221 68 233 64 q 236 70 240 70 q 243 70 244 66 l 260 66 l 272 64 l 287 70 l 288 66 q 324 70 331 77 l 334 77 q 342 77 342 86 l 349 83 l 350 94 l 359 96 l 361 106 l 358 116 l 365 122 l 363 128 z"},"X":{"x_min":0,"x_max":631,"ha":631,"o":"m 579 62 q 613 42 613 31 q 613 18 597 10 q 582 2 572 2 l 552 9 l 536 6 l 535 6 q 533 6 526 10 q 520 14 510 14 l 508 14 q 482 14 471 37 q 470 36 468 36 q 463 36 448 42 l 437 57 q 415 71 406 82 l 344 157 l 323 190 l 319 208 l 308 218 l 300 218 q 289 207 277 185 l 268 183 l 230 150 l 209 134 l 197 110 l 127 53 l 114 32 l 92 23 q 88 22 78 10 l 66 9 l 43 -17 l 31 -22 q 15 -34 8 -35 q -5 -55 -11 -55 q -17 -55 -17 -48 l -2 -35 q 1 -33 11 -16 q 22 -15 24 0 q 53 10 62 35 l 70 39 l 76 37 l 92 55 q 93 56 97 60 q 102 64 106 69 q 110 73 113 77 q 115 81 134 92 l 147 106 q 157 111 162 125 l 174 128 l 202 160 l 202 167 l 214 175 l 222 192 l 232 194 l 245 213 l 261 218 l 262 231 l 277 242 l 277 247 q 277 276 245 310 q 235 318 230 329 l 222 345 l 206 359 l 170 398 q 162 411 147 428 q 113 444 97 460 q 82 475 82 493 l 82 503 l 102 511 l 122 509 l 136 493 l 153 493 l 153 486 l 168 478 l 174 461 l 190 455 l 198 439 l 214 432 l 214 414 l 248 379 l 255 359 l 262 359 l 274 342 l 286 313 l 295 306 q 300 302 308 288 q 322 306 336 316 q 350 326 350 328 q 350 329 349 330 l 358 336 l 358 345 q 381 366 385 370 q 390 375 390 378 l 401 393 q 411 412 417 418 l 438 442 l 444 455 q 456 467 457 475 q 458 483 458 485 q 458 488 469 502 q 480 516 486 522 l 501 525 q 506 525 511 516 q 517 507 517 494 q 517 491 507 475 q 498 458 494 450 q 491 442 479 427 q 470 421 462 411 q 452 408 452 400 q 443 387 442 375 q 434 372 431 363 q 417 356 410 343 q 403 330 401 326 q 390 321 387 313 l 378 299 l 362 283 l 353 269 q 339 260 337 257 q 336 255 336 251 q 336 247 339 242 l 347 229 q 351 224 360 201 l 364 198 q 367 196 371 190 q 375 185 382 175 l 405 146 l 408 130 l 437 106 l 458 83 l 478 75 l 499 53 l 508 53 l 538 41 q 543 40 551 40 q 565 40 570 47 q 575 53 578 53 l 579 53 z"},"*":{"x_min":0,"x_max":532,"ha":532,"o":"m 488 343 l 467 347 l 458 353 l 441 358 q 410 372 398 375 l 396 379 l 375 384 l 312 420 l 282 434 q 278 436 264 437 l 259 445 l 245 439 q 243 429 243 423 q 243 415 247 398 l 242 390 l 247 379 l 243 370 q 246 362 246 353 q 246 347 245 343 q 250 337 250 329 l 250 302 l 255 274 q 255 265 245 265 q 243 265 240 269 q 236 272 236 274 l 229 322 l 225 361 l 227 380 l 225 404 q 222 433 211 433 q 206 433 202 429 l 182 413 l 163 402 l 156 390 l 140 378 q 133 372 115 352 q 106 350 105 350 q 105 349 97 340 q 86 322 63 306 q 58 308 58 316 q 58 326 76 339 l 79 349 l 110 368 q 118 377 127 379 q 131 391 134 395 q 137 399 146 405 q 156 411 160 416 q 164 420 175 427 l 175 432 l 194 441 l 198 455 q 189 474 179 477 q 162 472 138 471 l 122 470 q 115 470 88 462 l 72 466 q 55 459 53 459 q 45 459 45 466 q 45 469 53 484 l 67 484 l 76 487 l 97 486 l 102 480 l 120 487 l 131 487 l 149 494 q 160 492 162 492 q 168 492 170 498 l 146 519 l 136 523 l 133 534 l 106 547 l 106 555 l 102 564 l 115 571 l 125 569 q 126 564 140 557 l 162 541 l 197 512 l 206 500 q 223 503 223 516 l 221 527 q 219 539 219 547 l 220 558 q 220 569 213 582 q 216 591 224 599 q 216 617 216 624 q 216 627 218 639 q 221 651 227 651 l 232 650 l 243 650 q 247 647 258 622 l 252 601 l 253 585 l 250 582 l 250 571 l 248 562 l 252 537 l 247 523 l 250 516 l 250 507 l 262 500 l 268 510 l 275 512 l 278 525 q 280 526 292 534 q 305 541 310 561 q 325 569 336 569 l 339 569 q 339 580 348 580 l 350 580 q 350 590 359 590 q 362 590 380 582 q 380 580 364 564 l 337 537 l 326 532 q 313 526 288 498 l 306 498 l 319 502 l 326 498 q 333 501 343 501 q 353 501 363 498 l 375 502 l 409 502 l 415 500 l 421 505 l 441 505 l 453 509 l 470 503 l 471 500 q 471 496 458 496 l 450 496 q 442 496 429 494 l 418 492 l 383 491 l 375 487 l 314 487 l 306 482 q 303 480 275 478 q 270 475 270 469 q 270 461 280 453 l 280 450 l 314 434 l 329 423 l 341 420 q 387 388 409 388 l 413 388 q 413 379 454 362 q 469 356 470 352 q 483 352 488 343 z"},"Y":{"x_min":0,"x_max":659,"ha":659,"o":"m 653 530 l 645 523 l 645 507 q 628 504 622 495 q 615 485 607 484 q 605 473 598 473 l 573 451 l 563 434 l 554 434 q 544 416 538 411 q 522 404 518 400 l 497 375 l 482 364 q 474 358 460 353 l 450 334 l 437 326 q 430 322 415 306 l 405 280 l 370 237 q 355 215 347 196 l 353 185 l 347 169 l 352 150 l 345 128 l 349 102 l 356 94 q 344 78 344 61 q 344 47 340 39 q 344 12 343 6 l 336 -41 l 337 -64 l 333 -74 l 340 -110 l 331 -125 l 337 -144 l 331 -154 q 343 -174 340 -183 q 333 -205 333 -208 l 339 -235 l 329 -260 l 340 -276 l 337 -312 q 335 -330 324 -333 l 318 -299 l 310 -269 l 308 -241 l 301 -237 l 306 -225 l 301 -208 l 306 -177 l 299 -144 l 302 -116 l 301 -110 l 302 -88 l 298 -41 l 302 -19 l 299 7 l 306 53 l 297 70 l 301 90 q 301 114 294 130 q 302 145 302 156 q 302 164 287 216 q 274 225 266 240 q 259 241 252 249 l 222 285 l 207 294 l 194 318 l 156 356 l 149 370 l 130 394 l 106 414 l 106 425 l 94 434 q 87 439 84 445 l 75 461 q 73 466 59 471 q 30 487 30 523 l 31 532 l 40 532 q 41 539 49 539 q 58 539 74 534 l 79 518 l 98 510 l 114 484 l 136 468 l 137 447 q 137 439 152 437 l 162 421 l 177 409 l 225 337 l 223 329 l 234 325 l 248 306 l 298 258 q 303 253 309 244 q 315 235 318 235 q 318 235 327 243 q 335 252 348 276 q 351 294 355 294 l 362 294 q 366 294 366 300 l 366 303 q 366 309 380 320 l 379 323 q 379 332 401 342 l 410 356 l 410 358 q 410 369 433 370 q 441 374 441 379 q 441 382 440 384 q 456 387 461 394 l 478 413 q 488 432 501 444 q 514 455 516 455 l 518 455 l 527 467 q 531 473 545 483 l 549 498 q 552 496 558 496 q 567 496 567 511 l 567 512 q 567 516 582 519 l 579 525 l 591 530 l 602 530 l 608 547 l 632 544 l 639 547 l 645 534 z"},"c":{"x_min":0,"x_max":412,"ha":412,"o":"m 382 159 l 366 142 q 366 134 364 128 q 363 123 361 118 q 358 113 354 108 q 351 106 344 91 q 338 81 332 73 q 326 64 318 57 q 311 50 301 44 q 288 37 277 27 l 269 25 q 265 25 250 13 l 239 12 l 216 -5 l 208 0 l 187 -10 l 167 -5 l 161 -12 l 149 -10 l 137 -12 l 134 -9 l 120 -6 q 112 -5 106 0 l 90 13 l 75 35 q 65 46 65 62 l 65 66 l 54 83 l 54 98 l 50 104 l 52 124 l 48 140 l 54 156 l 50 163 l 60 179 l 57 200 l 60 209 q 62 221 69 229 l 70 252 l 77 258 l 74 264 l 81 274 q 84 292 102 337 l 119 354 l 124 366 l 132 380 q 134 392 142 402 q 152 402 162 410 q 161 427 192 427 q 196 427 211 422 q 226 417 230 406 q 245 406 245 395 l 274 394 l 275 385 l 281 378 l 280 366 l 287 357 l 286 344 l 288 337 l 286 317 l 291 310 l 291 300 l 294 279 l 274 268 l 253 293 l 251 325 l 247 337 l 247 349 l 235 363 q 230 370 213 381 l 199 375 l 187 375 q 176 374 166 367 q 156 360 143 338 q 130 315 122 310 l 121 296 l 113 289 l 113 269 l 103 256 l 99 242 q 94 231 91 219 q 88 206 86 205 l 87 189 l 78 168 l 80 153 l 76 152 l 75 114 l 73 113 l 75 104 l 71 100 l 85 83 q 88 80 91 67 l 88 64 l 98 50 l 106 47 l 107 37 l 160 25 q 167 32 173 32 q 175 32 183 30 q 192 36 197 36 l 204 35 q 205 35 211 39 q 217 43 230 44 q 238 61 251 61 q 256 61 259 60 q 284 71 284 79 q 290 90 305 90 l 309 90 q 350 135 348 139 q 359 149 365 167 l 374 173 l 375 186 q 382 181 382 159 z"},"!":{"x_min":0,"x_max":295,"ha":295,"o":"m 171 527 l 167 520 q 166 513 160 506 l 167 479 l 162 470 l 166 466 l 164 458 l 167 452 q 158 451 158 443 q 158 441 162 424 l 157 410 l 164 401 q 158 390 157 378 l 153 285 l 158 276 l 153 253 l 158 232 l 153 219 l 158 209 l 157 198 l 158 191 l 153 189 q 157 180 157 171 q 157 163 148 162 q 155 155 155 150 q 155 141 146 141 q 137 141 137 162 l 137 184 q 133 215 130 226 l 135 239 l 130 253 l 135 289 l 126 294 l 130 306 l 128 319 l 128 328 l 132 330 l 126 344 l 128 351 l 128 353 q 128 359 134 369 l 130 378 l 130 392 l 126 394 l 134 402 l 128 418 l 132 433 l 125 442 l 132 450 l 130 465 l 132 475 q 129 479 129 483 q 129 486 132 493 l 126 495 l 126 516 l 118 525 l 119 545 l 130 543 l 144 547 l 166 539 z m 186 6 l 174 -4 l 160 0 l 148 -5 l 138 0 l 128 0 l 122 22 l 126 37 l 134 45 l 136 45 q 138 45 140 48 q 143 51 145 53 q 160 47 163 47 l 164 47 q 164 48 161 51 l 163 51 q 165 51 175 46 q 183 34 186 22 q 183 21 183 17 q 183 13 186 6 z"},"/":{"x_min":0,"x_max":413,"ha":413,"o":"m 401 573 q 403 568 403 559 q 403 555 389 541 q 375 527 366 510 l 350 481 l 322 444 l 316 426 q 304 412 290 389 q 290 387 285 384 q 281 382 279 380 q 276 377 274 373 l 270 362 l 229 310 l 224 294 l 206 268 l 169 220 l 165 209 l 165 193 l 150 191 l 147 182 l 122 150 l 118 137 l 110 134 l 87 98 l 87 87 l 70 70 l 66 62 q 48 40 46 31 l 31 24 l 34 17 l 22 8 l 25 -2 l 19 -14 q 16 -20 7 -27 q 5 -43 -2 -43 q -6 -43 -9 -38 l -2 -20 l 21 17 q 22 32 29 36 q 36 40 36 40 l 53 63 q 54 81 62 82 l 67 79 l 76 110 l 92 120 l 92 129 q 110 152 113 163 l 118 166 q 127 188 134 198 l 134 213 l 144 232 l 153 232 l 158 248 l 174 262 l 174 273 l 187 278 l 189 295 l 198 298 l 213 317 l 214 326 q 214 330 222 344 l 232 354 q 237 358 247 375 q 262 376 265 396 q 267 416 275 422 q 294 426 294 445 q 294 450 293 453 l 316 478 l 313 490 l 323 494 l 323 504 l 332 520 l 332 543 q 344 549 344 553 q 344 555 341 558 l 353 565 l 355 581 l 379 583 q 389 575 401 573 z"},"[":{"x_min":0,"x_max":400,"ha":400,"o":"m 409 -81 q 396 -89 381 -89 q 363 -89 347 -78 l 329 -83 l 320 -80 l 302 -86 q 293 -86 279 -78 q 278 -87 265 -87 l 249 -87 q 245 -85 243 -85 q 238 -85 231 -90 l 229 -90 q 206 -92 198 -104 l 189 -117 q 165 -109 154 -101 q 128 -111 121 -111 q 113 -111 112 -103 l 144 -85 l 142 -62 q 150 -53 150 -40 q 150 -16 144 -14 l 157 6 l 153 23 l 157 29 l 157 45 l 151 48 l 162 70 l 158 89 l 164 102 l 164 119 l 167 130 l 164 150 l 166 158 l 164 178 l 167 195 q 169 203 170 215 q 175 218 175 241 q 175 248 173 263 q 171 265 171 269 q 171 273 176 288 q 181 302 183 315 l 190 368 l 183 390 l 189 429 l 185 457 l 185 466 l 192 475 l 181 514 q 185 515 187 521 q 189 527 189 528 l 185 541 l 185 578 l 178 586 l 182 589 l 178 598 l 180 603 l 169 603 l 164 610 l 154 603 l 118 612 l 128 626 q 142 624 146 624 q 163 624 170 635 l 180 634 l 183 626 l 192 626 l 198 622 l 215 630 l 225 626 l 231 630 q 258 630 269 637 l 281 634 l 294 644 l 302 640 l 311 644 l 327 644 l 345 647 l 350 642 l 349 636 q 349 630 356 621 l 340 619 q 337 618 327 610 l 317 610 q 311 610 301 605 q 288 602 283 602 l 269 605 l 266 605 q 255 605 250 604 q 246 602 241 602 q 232 602 225 606 l 208 598 l 192 603 l 198 583 l 198 570 q 212 535 212 520 l 212 516 l 208 510 l 212 507 l 213 473 l 217 448 l 213 431 l 217 402 l 213 390 l 217 363 l 212 349 l 215 336 l 210 331 l 213 318 l 208 279 l 210 249 q 206 245 206 241 q 206 239 210 231 q 202 202 202 192 l 202 189 l 205 162 l 203 151 q 200 141 200 132 l 200 126 q 196 118 196 108 l 196 71 l 193 54 l 193 25 l 198 6 l 198 -26 q 198 -74 210 -74 q 217 -72 225 -69 q 233 -67 239 -66 l 253 -65 q 262 -65 268 -62 l 283 -57 l 292 -60 l 317 -57 l 325 -51 l 329 -57 l 363 -58 q 370 -51 378 -51 q 386 -51 394 -56 q 402 -62 402 -67 l 402 -74 z"},"6":{"x_min":0,"x_max":607,"ha":607,"o":"m 562 194 q 560 175 544 163 q 544 155 539 150 q 534 145 526 134 l 525 125 q 499 114 498 110 l 487 107 q 473 96 466 94 l 464 88 l 452 87 l 447 80 q 443 75 426 68 l 411 62 l 376 43 q 366 37 352 34 q 337 32 334 27 l 323 32 q 318 21 294 16 l 251 8 q 220 -1 213 -6 l 192 -3 l 186 -9 q 176 -11 167 -15 l 153 -10 l 139 8 l 128 3 l 120 11 l 93 23 l 68 54 q 55 99 55 102 l 54 112 l 56 130 l 51 152 q 51 158 59 163 l 65 182 q 69 192 70 198 q 70 204 77 222 l 79 234 l 90 253 q 95 275 106 282 l 104 288 l 123 315 l 128 334 l 139 342 l 134 349 q 145 363 152 370 q 160 376 167 384 q 174 391 178 391 l 181 390 q 184 390 187 403 l 195 405 l 195 414 l 211 419 l 211 427 l 218 434 q 227 438 234 445 q 234 448 243 452 q 252 457 254 459 q 256 461 256 466 q 273 482 286 482 l 290 482 l 298 492 l 317 498 q 323 509 333 509 l 336 509 q 348 512 356 512 l 370 510 l 387 510 q 407 488 409 484 q 411 480 411 477 q 411 475 406 472 q 401 468 399 466 q 396 453 378 448 q 368 453 358 466 l 338 462 l 329 462 l 318 458 l 301 458 l 281 444 l 269 431 l 248 419 l 234 406 q 225 401 218 392 l 215 392 q 203 392 203 379 q 199 372 189 361 q 178 350 178 347 l 178 346 q 178 345 168 336 q 158 327 149 318 l 149 304 l 142 299 l 141 290 q 141 289 138 288 q 124 279 118 261 q 112 243 103 226 l 105 207 l 98 189 l 90 175 l 90 162 q 80 147 80 134 l 80 130 l 77 123 l 82 94 l 88 87 l 90 70 l 102 62 l 102 53 l 115 38 l 128 50 l 122 64 l 128 70 l 123 82 l 130 90 l 131 96 l 141 102 l 141 107 l 146 128 q 149 140 158 147 l 195 177 l 213 186 q 214 198 229 198 q 231 198 238 195 q 247 198 247 209 l 247 213 l 261 213 l 262 218 q 271 222 298 225 l 306 238 l 322 240 l 349 256 l 384 261 q 391 262 392 269 q 395 272 400 272 l 404 272 l 413 274 l 421 270 l 470 274 l 477 269 l 495 272 l 518 258 q 527 255 534 249 q 541 243 545 236 q 549 228 558 220 l 558 204 z m 534 192 l 534 205 l 528 221 l 520 225 l 517 238 l 502 240 l 493 248 l 483 247 l 462 253 l 436 249 q 424 247 415 246 q 406 246 403 244 q 399 242 399 238 l 388 238 q 366 238 357 230 l 342 221 l 321 217 q 317 216 310 210 l 301 210 l 294 203 l 289 203 q 270 203 264 186 l 243 181 q 231 162 208 155 l 196 135 l 181 128 l 160 98 q 160 81 150 67 q 147 52 147 42 q 147 29 152 29 l 164 28 q 170 27 181 21 l 195 24 q 198 23 201 23 q 203 23 213 25 q 224 27 233 27 q 240 27 299 43 q 309 52 331 53 q 337 58 345 60 l 360 64 l 394 77 l 410 81 l 423 92 q 435 96 458 112 l 459 122 l 472 120 l 472 121 q 472 124 482 127 q 493 131 496 140 l 507 147 q 507 148 512 158 q 518 168 527 172 z"},"r":{"x_min":0,"x_max":373,"ha":373,"o":"m 392 391 l 389 379 l 360 375 l 341 361 l 328 359 l 312 349 l 296 342 q 284 332 277 329 l 277 324 l 262 317 l 252 301 l 241 301 l 236 285 l 225 278 q 218 274 214 267 l 204 249 q 193 243 191 222 l 186 224 l 184 218 l 177 213 l 170 196 q 159 181 159 173 l 150 169 l 150 148 q 147 145 145 137 l 147 134 l 137 130 l 140 122 q 139 112 125 86 l 130 73 l 120 57 q 122 47 122 42 l 120 26 l 125 8 q 125 7 129 2 l 136 -5 q 130 -17 124 -22 l 111 -17 l 113 -26 l 91 -22 l 91 -9 l 88 0 l 91 16 l 88 23 l 90 57 l 88 80 q 81 83 81 86 q 81 90 88 98 l 88 113 q 88 125 87 130 l 91 135 l 87 154 l 90 169 l 87 178 l 90 205 l 85 213 l 88 222 l 82 242 l 84 258 q 84 264 82 276 l 85 281 l 79 315 l 72 320 l 79 337 q 69 351 69 370 l 69 384 q 64 389 63 393 q 70 402 88 409 l 95 407 q 97 395 106 384 l 104 359 l 114 283 q 114 276 108 270 l 113 249 l 110 234 l 113 218 l 111 205 l 118 190 l 114 187 l 117 164 l 125 162 l 128 182 q 129 185 140 199 q 153 210 153 224 l 153 230 l 159 233 q 161 233 162 237 q 163 240 165 240 l 168 240 l 174 260 l 189 270 l 190 276 l 197 276 l 194 287 l 209 294 l 210 306 l 224 308 q 235 317 239 327 l 248 329 q 250 333 266 347 q 270 347 271 350 l 287 359 l 291 366 l 300 371 q 326 390 335 390 l 339 390 q 348 390 353 395 l 362 392 q 369 397 373 397 q 391 393 392 391 z"},"2":{"x_min":0,"x_max":569,"ha":569,"o":"m 558 4 l 555 -2 q 552 -3 547 -8 q 542 -13 528 -20 l 521 -18 l 507 -19 l 507 -25 q 503 -24 497 -24 q 488 -24 483 -28 q 479 -26 475 -26 q 472 -26 471 -27 l 460 -23 l 450 -23 l 437 -15 l 428 -15 l 425 -20 l 413 -10 l 405 -12 q 400 -2 393 -2 l 391 -2 l 381 -4 q 371 -4 371 7 q 365 4 359 4 q 354 4 337 7 q 333 16 332 16 l 323 14 q 319 14 310 19 q 301 24 296 25 q 294 23 289 23 q 282 23 273 33 l 259 34 l 256 33 l 254 33 q 247 33 240 43 l 234 39 l 226 44 l 219 44 l 210 45 q 203 33 183 30 l 180 34 l 172 22 q 165 22 156 20 q 148 17 143 16 q 138 15 132 9 l 115 6 l 115 3 q 115 0 112 0 q 108 0 102 6 q 96 0 90 0 l 68 0 l 33 13 q 22 25 22 34 q 22 43 21 49 l 28 57 l 25 63 q 36 74 50 75 l 62 86 l 72 85 l 100 100 l 105 98 q 131 103 137 103 q 140 103 143 100 l 168 100 l 187 96 q 201 87 214 87 l 227 89 l 234 84 q 245 96 252 96 l 256 95 l 279 105 l 277 109 q 298 115 298 117 l 298 118 l 305 132 l 322 142 l 355 157 q 350 162 350 164 q 350 169 358 172 l 358 178 q 373 183 375 183 q 377 183 379 181 q 383 192 399 202 l 403 222 l 422 225 q 424 241 438 242 l 446 253 l 454 255 q 458 273 462 284 q 467 294 467 300 l 467 303 q 468 308 473 308 l 479 325 l 471 331 q 481 333 481 337 l 478 353 l 478 370 l 462 397 q 459 408 447 415 l 410 437 l 404 449 l 391 444 l 377 454 l 364 454 l 356 466 l 342 462 l 324 466 l 316 465 l 305 468 l 286 465 l 279 469 l 270 465 l 262 469 l 250 465 l 231 466 q 229 459 221 459 q 217 459 214 460 l 196 449 l 184 449 l 181 442 l 167 436 q 163 439 159 439 q 153 439 143 424 l 128 424 l 128 414 l 120 412 q 117 404 111 404 l 112 396 l 95 391 l 95 389 q 95 383 84 375 l 82 367 l 60 365 l 53 373 q 52 374 51 377 l 44 394 l 44 399 q 44 412 53 417 l 56 414 q 57 435 64 436 l 73 428 l 79 442 l 93 442 l 96 450 l 132 470 l 143 466 l 152 477 l 162 479 l 162 482 q 175 492 193 492 q 204 492 210 490 q 232 505 253 505 l 260 505 l 291 502 l 316 503 l 329 500 q 332 497 338 497 l 344 497 q 363 494 382 479 l 391 482 l 399 478 q 402 468 419 466 l 428 454 l 455 442 l 487 407 l 491 394 l 490 381 l 503 377 l 500 369 l 506 359 l 503 343 l 508 327 l 503 316 l 504 300 q 504 292 496 281 q 488 271 480 254 q 472 238 462 232 q 453 226 452 225 l 444 206 l 434 202 l 432 197 l 422 196 q 425 193 425 191 q 425 189 423 187 q 422 185 416 180 q 409 176 406 176 q 402 175 400 172 q 397 168 389 162 q 381 155 380 150 l 364 137 l 359 137 q 342 137 342 128 l 342 125 l 338 126 q 329 126 322 113 q 319 100 297 90 l 289 92 l 286 82 q 279 81 278 76 l 267 67 l 281 67 l 286 58 q 289 62 293 62 q 297 62 300 60 q 304 50 315 50 l 325 51 l 328 44 l 343 47 l 349 36 l 362 36 q 373 21 389 21 q 394 21 394 23 l 394 25 l 434 10 q 440 6 444 8 l 455 10 l 463 4 l 510 -2 l 522 4 l 537 4 q 537 10 549 10 l 554 10 z m 190 60 q 160 70 153 70 l 144 70 q 137 70 129 75 q 123 71 116 71 l 112 71 l 100 65 l 97 65 q 83 65 71 40 q 78 24 101 24 l 115 28 l 123 28 l 129 33 l 160 42 z"},"{":{"x_min":0,"x_max":400,"ha":400,"o":"m 366 642 l 361 618 l 348 612 l 331 617 l 318 614 l 304 621 l 299 615 q 282 614 266 606 l 263 593 l 253 585 q 252 584 251 583 l 243 566 l 244 549 l 237 531 l 238 501 l 230 471 l 232 442 l 227 439 l 225 413 l 230 383 l 225 372 l 227 361 l 220 353 l 228 343 q 221 324 212 313 l 217 304 q 198 291 187 287 l 195 278 l 205 276 q 217 262 217 253 l 217 235 l 213 216 l 222 201 l 210 194 l 212 186 l 207 166 l 216 144 l 213 134 l 212 119 q 211 111 206 102 l 210 92 q 213 86 214 75 l 216 47 l 213 35 l 222 12 l 219 -2 q 219 -10 230 -29 l 241 -29 l 244 -41 l 248 -41 l 255 -39 l 269 -49 q 272 -52 305 -58 l 313 -53 l 320 -58 l 324 -52 l 338 -54 l 348 -50 l 358 -65 q 355 -76 341 -94 l 334 -87 l 323 -91 l 298 -89 l 284 -85 l 274 -87 l 254 -80 l 247 -67 l 230 -67 l 195 -38 l 188 -9 l 191 2 l 188 16 l 178 22 l 189 40 l 186 56 q 184 64 177 75 l 182 96 l 177 125 l 182 163 l 175 175 l 182 182 l 184 204 l 179 218 l 186 234 q 177 253 163 267 l 163 271 l 151 267 l 147 273 l 143 266 q 129 266 100 274 l 96 288 l 107 294 q 112 297 130 299 l 134 292 q 146 299 162 299 l 170 310 l 175 310 l 172 319 q 187 324 191 331 l 189 341 l 194 357 l 190 373 l 200 393 l 198 405 l 202 419 l 198 444 l 204 450 l 202 472 l 210 480 l 204 485 l 210 504 l 206 526 l 213 538 l 215 554 q 216 562 221 570 l 214 577 l 229 585 l 226 602 l 238 605 l 242 614 l 250 621 q 254 624 261 638 q 273 642 298 646 l 322 650 l 337 646 l 350 656 l 359 653 z"},"9":{"x_min":0,"x_max":525,"ha":525,"o":"m 433 230 q 435 210 423 187 l 430 190 q 430 183 422 178 l 422 173 l 418 160 l 420 150 q 410 137 410 121 l 410 117 l 406 115 l 393 77 l 393 67 l 387 67 l 388 56 l 378 47 l 373 29 l 361 19 l 359 3 l 345 -8 l 350 -17 l 339 -28 q 334 -33 325 -51 l 318 -51 l 316 -64 l 306 -72 l 305 -80 l 289 -88 l 253 -137 l 234 -150 l 189 -189 l 179 -193 q 174 -195 166 -205 l 153 -208 l 142 -221 l 106 -238 l 92 -241 l 86 -248 l 66 -252 q 62 -253 53 -261 l 30 -262 q 13 -273 1 -273 l -5 -272 l -17 -273 l -26 -284 l -47 -283 q -51 -283 -64 -288 q -76 -292 -85 -292 l -97 -291 q -106 -291 -112 -294 l -130 -297 l -143 -294 l -160 -295 l -174 -292 q -180 -292 -184 -291 q -188 -291 -206 -280 l -221 -281 l -253 -262 l -263 -245 l -264 -238 q -264 -235 -262 -235 q -262 -236 -261 -236 l -245 -251 l -229 -253 l -217 -264 l -200 -261 l -181 -270 q -152 -270 -146 -278 q -116 -278 -91 -272 q -65 -267 -52 -267 q -51 -267 -42 -269 q -17 -254 6 -254 l 10 -254 q 22 -254 30 -248 q 37 -242 55 -238 q 73 -233 73 -230 l 73 -229 q 107 -223 118 -203 l 136 -201 l 177 -168 q 196 -164 204 -147 q 222 -134 227 -134 l 228 -134 l 236 -128 l 246 -110 q 259 -100 265 -80 l 278 -64 q 281 -61 292 -56 l 301 -38 l 310 -29 q 315 -17 320 -16 q 320 -3 325 3 q 343 21 343 47 q 359 62 365 74 l 362 87 l 373 91 l 387 140 q 393 152 393 160 l 393 170 l 400 216 l 404 225 l 400 258 l 404 269 l 400 287 l 400 309 l 390 334 q 390 350 380 350 q 376 350 362 339 l 353 313 l 335 298 l 332 283 l 320 278 q 304 268 279 256 l 273 245 l 237 235 l 234 229 l 182 216 l 136 213 l 114 216 l 107 215 q 98 215 87 222 l 86 235 q 58 245 58 266 q 58 275 63 287 l 58 305 l 63 329 l 63 342 l 68 353 q 71 357 73 379 q 83 389 89 406 l 103 417 l 105 429 l 111 430 q 120 451 129 459 q 137 462 140 470 q 147 473 161 491 l 175 491 q 183 510 194 513 q 202 509 204 509 q 209 509 210 522 q 238 522 249 540 l 257 537 l 300 540 l 305 546 l 312 548 l 320 546 l 351 513 l 370 474 l 388 448 l 393 430 l 402 422 l 400 413 q 407 403 408 387 l 415 378 q 412 371 412 365 q 412 357 418 350 q 424 342 425 339 l 423 330 l 430 322 l 426 310 l 428 288 l 431 280 l 430 272 z m 359 386 l 355 406 l 358 421 q 358 425 351 435 q 345 444 343 447 q 339 466 305 480 q 301 507 284 507 l 282 507 l 239 494 q 224 493 213 477 l 194 474 l 177 458 l 166 452 l 148 423 l 138 421 l 130 405 q 129 403 116 394 l 113 386 l 114 378 l 101 364 l 97 350 q 91 343 86 329 l 94 322 l 86 293 l 89 282 l 87 272 q 85 270 85 267 q 85 264 95 262 q 91 261 91 257 q 91 250 99 246 q 107 242 140 237 q 146 240 153 240 l 159 240 q 165 242 176 242 q 187 242 194 245 q 202 248 211 249 q 221 250 250 262 l 255 272 l 263 272 l 271 283 l 282 283 q 301 299 306 299 l 308 299 q 312 317 322 317 l 324 317 q 335 332 347 342 l 351 362 z"}," ":{"x_min":0,"x_max":255,"ha":255,"o":""},"I":{"x_min":0,"x_max":262,"ha":262,"o":"m 170 503 l 166 502 l 160 487 l 166 484 l 163 462 q 160 458 160 452 l 163 439 l 163 427 l 158 422 l 163 416 l 156 398 l 158 381 l 142 349 l 146 347 q 144 342 144 335 l 146 320 l 146 318 l 135 313 l 146 288 l 139 288 l 142 279 l 135 266 l 144 249 l 142 242 l 137 242 q 134 242 134 236 q 134 225 146 217 q 136 212 135 189 l 134 178 l 139 162 l 134 150 l 135 113 l 130 87 l 140 82 q 138 72 135 67 q 133 62 133 58 q 133 50 143 37 l 136 35 l 149 22 l 144 14 l 158 10 q 155 -4 147 -14 q 138 -11 138 -1 l 125 16 l 117 18 l 121 35 l 105 53 l 112 62 l 102 77 l 105 98 q 103 104 101 108 l 97 116 l 105 128 l 101 141 l 105 150 l 92 160 l 102 175 l 101 242 l 108 294 l 105 345 l 110 359 l 105 363 l 108 375 l 108 393 l 112 400 l 105 402 l 110 425 q 99 425 96 432 l 110 432 l 112 448 l 105 450 l 110 462 q 118 469 118 476 q 118 483 112 491 l 118 493 l 118 502 l 128 502 l 134 516 l 142 519 q 166 519 170 503 z"},"H":{"x_min":0,"x_max":734,"ha":734,"o":"m 740 333 l 720 315 l 704 317 l 690 306 l 679 313 l 640 302 l 633 288 l 617 301 l 594 270 l 602 270 q 601 253 589 240 l 591 240 q 595 240 595 233 q 595 207 589 190 l 594 185 q 594 177 591 173 q 588 169 588 165 q 588 159 592 146 l 586 141 l 587 93 l 578 39 l 580 39 l 576 23 l 580 16 l 578 0 l 582 -8 q 585 -18 585 -28 q 585 -33 578 -38 l 579 -43 q 579 -53 570 -61 l 569 -51 q 555 -30 555 -22 l 555 16 l 551 29 l 558 35 l 551 39 l 548 55 l 548 70 l 551 71 l 548 82 l 551 121 l 550 157 l 557 183 l 551 192 l 555 201 l 555 263 l 558 295 l 539 288 l 534 294 l 526 288 l 516 292 q 500 284 489 285 q 479 287 475 287 q 468 287 462 285 l 423 272 l 377 278 l 372 276 q 359 281 352 281 q 347 281 335 276 q 324 272 320 272 l 304 276 l 298 262 l 281 275 l 256 269 l 246 275 l 238 267 l 226 269 q 220 269 208 276 l 207 269 l 199 272 q 180 272 166 268 q 152 263 152 238 l 152 201 l 148 175 l 152 157 l 143 138 l 152 121 l 145 77 l 150 61 l 148 35 l 155 18 l 152 10 l 154 -7 l 150 -9 q 133 -6 132 10 l 130 57 q 110 81 110 86 q 110 97 125 102 l 118 109 l 119 125 l 115 137 l 110 217 l 110 242 l 106 256 l 89 266 l 87 295 l 110 310 q 120 340 120 360 q 120 365 118 375 l 127 371 l 122 381 l 119 418 l 125 441 l 119 480 l 119 502 l 124 528 l 142 539 q 153 529 165 526 l 166 510 l 174 500 q 167 476 167 472 q 167 464 172 462 q 173 459 173 452 q 173 436 162 375 l 169 359 l 162 349 q 162 334 157 310 l 178 310 l 189 306 l 215 310 l 231 308 l 253 310 l 272 301 l 272 303 q 272 310 278 310 q 282 310 287 306 l 304 306 l 343 308 q 354 308 358 306 l 365 315 l 372 310 q 395 308 400 306 q 406 309 409 309 l 413 308 l 522 320 l 566 317 l 557 331 l 562 337 l 557 359 l 562 375 l 555 418 l 562 434 l 542 493 q 540 499 540 502 q 540 509 546 514 q 553 519 555 519 l 562 519 l 558 537 l 573 537 l 578 526 l 596 530 l 596 514 l 608 518 l 608 500 l 601 487 l 610 461 l 610 448 l 615 434 l 608 414 l 610 398 l 604 318 l 628 322 l 650 323 l 687 333 l 704 331 l 717 333 z m 765 333 l 749 322 q 742 323 742 329 q 742 337 754 337 q 761 337 765 333 z"},"4":{"x_min":0,"x_max":631,"ha":631,"o":"m 550 235 q 549 220 531 211 l 528 201 l 531 198 q 519 186 512 186 q 511 186 507 188 q 498 186 493 181 q 489 174 481 174 l 478 174 l 472 170 q 469 169 453 168 l 451 165 l 435 165 l 419 170 l 409 165 l 396 173 l 385 170 l 369 175 l 359 170 l 359 158 l 351 147 l 353 131 l 350 117 l 353 106 q 347 102 347 96 l 347 94 l 342 85 l 347 67 q 341 62 340 51 l 345 37 l 337 16 q 340 13 340 10 q 340 7 337 6 q 336 4 336 1 q 336 -3 339 -9 q 342 -14 342 -16 l 342 -32 l 351 -38 l 361 -59 q 356 -64 351 -64 q 345 -64 335 -61 l 334 -43 l 325 -32 l 325 -17 l 318 -9 l 322 0 l 316 6 l 318 11 l 314 29 l 318 35 l 312 43 l 318 54 l 314 69 l 320 94 l 319 99 l 320 107 l 318 110 q 318 119 325 125 l 322 133 q 323 137 323 144 l 321 160 q 321 162 324 165 l 324 168 q 324 181 313 185 q 303 189 271 193 l 255 195 l 234 195 l 226 200 l 209 195 l 199 203 l 178 202 l 171 208 l 159 208 l 151 211 l 142 203 l 132 205 q 114 197 95 192 l 89 186 l 78 184 l 76 178 l 61 174 q 60 173 57 173 l 41 174 q 38 174 36 171 q 34 168 32 168 l 30 168 l 26 176 l 20 178 l 15 190 q 21 208 37 210 l 41 221 q 57 233 62 234 l 95 237 q 106 240 108 248 l 129 243 l 142 245 l 150 265 l 159 272 l 166 272 l 164 282 l 182 287 q 188 306 199 313 q 199 317 206 323 q 213 329 218 335 q 224 342 230 349 l 234 356 q 236 360 249 368 q 250 384 259 387 q 263 402 277 414 q 284 416 284 420 q 284 421 282 427 q 303 435 306 442 q 300 445 297 456 l 313 466 q 316 501 334 501 l 340 499 q 345 489 351 485 l 350 480 l 351 474 l 345 467 l 347 458 l 335 442 l 334 430 l 324 427 l 314 403 l 314 401 q 314 397 298 382 q 283 367 271 352 q 274 346 274 344 q 274 342 267 338 q 259 334 257 332 q 254 329 253 326 q 252 323 246 316 q 240 309 239 307 q 238 305 236 301 q 234 298 218 288 l 217 280 l 209 275 l 177 247 l 193 237 l 210 237 l 224 230 q 228 235 230 235 l 236 235 q 247 221 259 221 q 267 221 281 225 q 295 229 300 229 q 307 229 318 218 l 321 218 l 333 217 q 342 217 342 230 l 342 243 l 353 256 l 351 266 l 355 275 l 353 290 l 359 293 l 355 307 q 369 324 369 331 q 369 334 368 335 l 365 335 q 365 337 373 350 l 373 375 q 378 375 378 385 q 378 390 377 394 q 381 402 381 409 q 381 415 378 420 q 376 425 376 428 q 376 433 378 440 l 387 470 l 385 498 q 385 500 389 505 q 393 510 400 510 q 423 491 423 467 l 413 456 l 415 424 l 410 411 l 413 405 l 406 394 l 408 379 l 406 378 l 402 362 l 393 339 l 394 322 l 375 240 q 368 227 367 221 q 372 203 378 203 q 380 203 384 206 q 388 208 388 208 q 396 208 402 200 l 423 203 l 441 193 l 464 198 l 467 198 q 474 198 478 205 l 489 209 l 496 204 q 504 212 507 214 q 510 217 525 222 q 531 233 541 239 z"},"~":{"x_min":0,"x_max":833,"ha":833,"o":"m 747 316 q 645 244 558 244 q 509 244 417 278 q 321 312 276 312 q 195 312 87 235 l 87 280 q 188 351 276 351 q 325 351 396 326 q 467 300 497 292 q 527 283 558 283 q 637 283 747 361 z"},"D":{"x_min":0,"x_max":624,"ha":624,"o":"m 585 196 l 582 189 q 580 185 579 178 l 578 170 l 560 144 l 555 134 l 543 128 q 537 125 530 116 q 505 109 493 100 l 484 100 l 475 98 l 471 90 l 455 90 l 453 86 l 447 87 q 445 87 440 81 q 436 76 429 75 q 424 78 421 78 q 414 78 400 71 l 382 75 l 370 67 q 368 68 364 68 q 360 68 350 65 q 340 62 334 62 l 327 62 q 322 62 308 58 q 293 53 283 53 q 275 53 269 55 l 254 51 l 238 57 l 228 51 l 222 53 l 215 39 l 206 47 l 194 41 l 190 48 q 187 46 173 45 l 170 25 l 158 10 l 154 0 q 153 -5 138 -25 l 135 -22 l 130 -22 l 132 -5 l 131 20 l 116 30 q 111 35 106 35 l 86 25 l 71 25 l 63 31 l 61 39 l 70 48 l 71 55 l 106 64 q 110 66 116 66 q 122 66 122 69 l 122 70 l 116 90 q 115 92 115 95 q 115 99 117 104 q 119 108 119 109 l 116 157 l 121 169 l 121 192 l 128 208 l 116 230 l 128 256 l 122 324 l 125 347 l 125 368 l 116 391 l 116 427 l 105 445 l 105 455 l 78 458 l 57 449 l 25 447 q 21 453 19 461 q 18 470 14 487 q 29 498 40 498 l 48 497 q 50 497 55 503 q 70 507 90 507 q 102 498 114 498 q 118 498 125 500 q 128 494 131 494 q 133 494 148 500 l 160 494 l 175 498 l 205 491 l 222 480 l 244 484 l 251 471 l 263 468 l 281 457 l 292 455 l 306 448 l 314 449 q 324 449 333 441 q 352 440 377 411 l 386 411 q 398 399 418 395 l 441 377 l 467 353 q 475 347 479 347 q 480 347 487 352 l 491 349 l 494 333 q 520 311 533 294 q 547 277 549 270 q 550 263 562 256 l 562 243 q 562 233 571 224 q 571 214 578 207 q 585 200 585 197 z m 548 190 l 545 218 l 505 272 l 498 272 l 487 299 l 475 300 l 462 310 l 458 324 q 449 333 421 342 l 413 356 l 334 404 l 320 403 q 312 403 302 409 q 296 416 290 416 q 287 416 283 414 l 278 426 l 263 425 q 261 426 251 428 q 242 429 234 434 l 230 432 q 230 439 221 439 q 201 455 166 455 q 163 455 159 453 l 162 442 l 157 427 q 155 424 155 419 q 155 411 164 403 l 154 386 q 154 384 159 373 q 164 363 164 356 q 164 354 163 347 q 161 341 161 339 q 161 336 166 324 l 159 322 l 162 301 l 162 262 l 166 256 l 155 238 l 162 231 l 153 206 l 157 183 l 147 160 l 157 141 l 155 121 l 159 110 l 153 95 l 162 71 l 224 78 q 225 78 229 81 q 234 83 238 83 q 243 83 255 81 q 268 78 275 78 q 299 78 322 94 q 332 95 346 95 l 370 94 q 382 94 391 102 q 401 103 411 108 q 420 114 423 114 q 428 114 432 110 q 442 110 448 116 l 466 118 l 468 128 l 475 125 l 486 130 l 493 130 l 502 141 l 509 141 l 547 170 z"},"^":{"x_min":0,"x_max":1000,"ha":1000,"o":"m 797 438 l 756 438 l 499 665 l 240 438 l 201 438 l 462 714 l 536 714 z"},"0":{"x_min":0,"x_max":525,"ha":525,"o":"m 470 325 q 477 278 477 256 q 477 248 467 238 l 474 229 l 464 218 l 472 208 l 459 194 l 448 163 l 429 146 l 424 133 q 414 124 409 115 l 392 110 l 392 99 l 379 94 l 370 84 q 366 80 350 72 l 344 62 l 333 62 l 326 53 l 315 56 l 298 38 l 269 27 l 248 14 l 230 11 l 220 4 q 215 1 184 -1 l 176 -11 l 150 -6 l 142 -9 l 128 -6 l 120 -8 l 106 -1 l 91 -1 q 75 14 67 16 q 60 19 59 24 l 53 35 l 45 43 q 42 47 32 72 l 35 85 l 29 91 l 34 113 q 30 120 30 127 q 30 134 35 139 q 37 147 37 154 l 36 169 l 50 198 l 53 222 l 62 235 l 69 262 l 77 282 q 79 296 83 306 q 88 315 107 334 l 104 342 l 113 358 l 110 371 l 120 370 l 133 387 q 148 391 150 413 l 162 425 l 168 422 l 176 432 q 180 437 182 448 l 200 448 l 202 458 l 210 458 l 210 470 q 229 471 237 483 l 269 493 l 288 501 l 296 501 l 311 505 l 322 499 q 330 507 334 507 q 336 507 343 500 q 349 493 353 482 l 370 472 l 384 458 q 386 456 399 452 l 414 424 l 429 414 q 434 394 448 387 q 456 377 456 360 l 456 353 l 467 341 l 464 331 z m 452 278 l 448 290 l 450 306 l 440 325 l 442 342 l 434 352 q 432 365 424 387 q 401 396 397 421 q 384 426 370 437 l 352 438 q 335 465 318 465 q 317 461 306 461 l 293 462 l 285 457 q 282 454 262 450 l 256 438 l 245 432 l 235 437 l 229 424 l 220 420 q 216 419 195 402 l 182 387 q 176 379 160 368 l 155 357 l 123 317 l 125 304 l 106 287 l 107 274 l 96 266 l 90 238 l 90 237 q 90 231 81 224 q 72 218 72 208 q 72 203 69 200 l 70 187 l 66 176 l 67 163 l 54 155 l 56 147 l 54 137 l 61 133 l 54 123 l 62 115 l 51 110 l 59 94 l 56 82 q 58 78 63 68 q 84 24 105 24 l 106 24 l 123 25 l 134 16 q 149 21 157 21 l 168 19 l 175 24 q 214 24 227 38 l 245 37 l 248 50 l 254 43 l 268 57 l 279 53 l 293 67 q 317 73 323 88 q 334 88 334 93 q 334 95 333 96 l 335 96 q 346 96 358 113 l 386 131 q 387 140 395 141 q 417 165 417 174 l 417 176 l 427 181 q 431 196 445 210 q 438 211 438 217 q 438 221 444 229 q 450 238 450 242 l 450 243 l 447 256 z"},"F":{"x_min":0,"x_max":545,"ha":545,"o":"m 487 514 l 513 514 q 526 518 529 518 q 538 518 538 509 q 538 502 528 502 l 524 502 l 510 494 l 492 500 l 467 486 l 456 491 q 449 495 440 495 q 436 495 428 493 q 419 491 415 491 l 413 491 l 401 493 l 380 486 l 371 487 l 367 484 l 321 483 l 309 485 l 305 478 l 289 483 l 278 478 q 273 475 258 475 l 244 478 q 234 478 225 476 q 216 473 193 471 l 184 462 l 178 464 q 175 459 175 450 q 175 438 190 404 l 182 381 l 190 375 l 182 363 q 190 361 190 352 l 185 332 l 182 292 l 184 277 l 220 272 l 247 279 l 256 274 q 259 272 279 272 q 289 272 294 279 l 313 283 l 336 275 q 360 280 364 280 q 370 280 380 283 l 392 279 l 408 283 l 417 278 q 440 279 444 280 q 447 281 451 281 q 454 281 460 280 q 466 279 468 279 q 474 279 478 285 l 503 288 l 513 285 q 517 287 520 287 l 531 283 l 536 283 l 534 278 q 523 277 506 266 l 492 266 l 483 260 l 460 262 l 440 255 q 418 249 410 249 l 394 254 l 390 249 l 360 253 l 348 247 l 330 249 l 316 246 q 301 242 293 242 l 286 242 q 280 242 270 237 l 259 244 l 254 245 q 248 245 225 235 l 206 238 l 198 235 l 184 238 q 178 238 172 180 q 172 164 170 150 q 176 139 174 134 l 163 102 l 169 90 l 162 77 l 165 61 l 161 53 q 162 51 162 46 q 162 33 154 3 q 146 -26 140 -57 l 129 -51 l 122 -51 l 124 -39 l 124 -30 l 129 -25 l 130 -13 q 130 -7 137 9 l 130 14 l 130 25 l 125 30 l 133 45 l 124 48 q 126 57 129 65 q 133 74 133 76 l 133 78 l 129 83 l 130 90 l 127 105 l 133 121 l 130 160 l 137 199 l 133 215 l 133 233 q 133 241 125 244 l 98 233 l 78 244 l 59 241 q 57 240 53 240 q 46 240 46 254 q 46 267 51 273 q 56 279 71 279 q 84 279 94 278 l 124 275 l 131 275 q 143 275 147 292 l 142 305 l 142 352 l 137 353 l 141 407 l 130 437 l 129 457 l 101 470 l 78 455 l 69 468 q 60 470 58 477 q 63 483 63 503 q 78 503 89 510 q 99 518 106 518 l 134 515 q 137 515 153 516 l 202 519 l 236 514 l 270 516 q 274 518 279 521 q 283 523 283 523 q 284 523 289 521 q 293 519 294 519 l 296 519 q 298 519 334 525 l 335 519 q 338 524 342 524 q 347 524 353 516 l 360 519 l 386 522 l 388 522 l 447 514 q 461 518 475 518 q 481 518 487 514 z"},"`":{"x_min":0,"x_max":500,"ha":500,"o":"m 306 496 l 299 484 l 286 488 l 277 498 l 268 498 l 266 507 l 259 506 q 251 516 248 517 q 244 518 228 520 l 220 533 l 214 535 l 212 547 q 199 549 194 561 q 174 568 174 587 l 166 587 l 156 598 l 152 598 q 149 598 144 609 q 139 620 131 627 l 124 625 l 124 631 q 127 634 134 649 q 149 655 154 662 q 162 658 171 655 l 178 641 l 198 616 l 208 594 l 216 586 q 219 583 226 566 l 240 559 l 247 547 l 261 539 l 265 533 q 271 530 281 518 q 298 512 299 496 z"},"k":{"x_min":0,"x_max":605,"ha":605,"o":"m 597 66 l 592 55 q 592 33 584 22 q 572 12 572 6 q 569 -1 563 -12 l 554 -20 q 550 -23 546 -33 l 513 -51 q 497 -56 478 -57 l 463 -50 l 451 -50 l 441 -42 l 430 -41 l 394 -22 l 314 51 l 294 82 l 278 96 q 275 103 262 118 q 254 125 243 140 q 232 156 216 162 l 197 200 q 197 205 204 231 l 223 218 l 234 206 q 239 201 264 185 l 277 185 l 282 180 q 286 181 292 181 q 297 181 303 178 q 314 186 331 190 q 349 194 359 198 l 364 208 l 386 208 q 387 212 392 215 q 397 218 398 218 l 401 218 q 416 218 422 242 q 437 250 440 252 l 446 259 q 450 262 460 281 l 462 281 q 472 281 482 318 l 487 318 l 489 325 l 487 342 l 489 359 q 489 370 460 384 q 456 393 447 393 l 444 393 l 438 398 q 417 399 395 403 q 373 406 368 406 q 351 406 328 391 q 315 391 302 388 l 303 386 q 297 385 292 383 q 287 381 281 379 q 276 376 270 372 q 263 368 258 366 l 245 361 l 210 332 l 175 294 l 175 287 l 158 254 l 150 232 q 134 206 134 191 q 134 185 138 178 q 138 169 133 167 q 126 157 126 146 l 127 137 q 127 129 124 122 q 115 111 113 105 l 117 87 l 113 66 l 115 51 q 108 37 108 20 l 108 14 q 110 8 110 7 q 110 -5 92 -10 q 83 -7 79 9 l 75 22 l 78 39 l 75 78 l 78 87 l 78 125 l 79 138 l 79 150 q 79 176 81 196 q 83 216 83 217 l 83 233 l 85 242 l 85 270 l 88 281 l 85 295 l 88 329 l 88 370 l 85 384 l 90 393 l 88 404 l 85 461 l 78 494 l 78 502 l 83 539 l 79 555 l 78 580 q 76 594 76 599 q 76 619 99 619 l 102 612 l 108 615 l 106 599 l 111 571 l 104 541 l 106 502 l 111 486 l 108 470 l 110 443 l 106 422 l 111 402 l 108 395 l 113 381 l 110 356 l 106 285 q 108 273 108 270 l 106 256 l 108 237 q 108 226 104 218 q 111 210 118 208 l 130 233 l 129 238 q 129 244 148 287 q 167 330 190 356 q 197 357 197 361 q 197 363 195 365 q 219 379 223 384 q 227 388 230 390 q 233 393 238 396 q 243 398 247 399 q 250 400 253 403 q 257 406 263 409 q 270 413 284 418 q 292 430 325 434 l 364 439 l 434 434 l 445 428 q 450 425 462 423 q 499 387 501 387 q 501 389 498 393 l 512 361 l 510 353 q 517 345 517 337 q 517 329 506 315 l 506 306 l 495 272 l 480 250 l 473 249 q 472 244 465 236 q 458 229 457 224 q 446 224 437 213 q 428 210 426 202 q 412 199 403 187 q 405 187 406 188 l 407 188 q 407 184 314 154 q 304 159 299 159 q 291 159 291 148 l 291 146 l 290 141 l 298 132 l 301 117 q 303 107 318 100 l 335 66 l 361 50 l 362 45 l 373 39 l 377 29 l 383 30 l 413 0 l 450 -15 l 473 -22 l 492 -20 l 501 -16 q 517 -13 531 -4 q 546 5 547 7 l 565 41 l 572 50 q 576 55 581 70 q 587 72 589 72 q 594 72 597 66 z"},"u":{"x_min":0,"x_max":570,"ha":570,"o":"m 516 48 q 523 49 532 49 q 543 49 543 41 q 543 34 532 26 l 525 22 l 520 17 q 518 14 503 6 l 487 1 q 481 -5 454 -5 q 452 -5 439 -1 q 427 3 424 6 l 391 35 l 384 66 l 374 75 l 374 80 q 374 95 367 106 l 368 130 q 372 147 372 151 q 372 162 366 173 l 369 218 l 358 212 l 351 201 l 342 195 q 337 192 332 183 l 323 182 q 312 172 312 162 q 297 156 293 145 q 290 134 278 122 q 267 110 261 108 q 255 106 252 102 l 223 67 l 220 67 l 197 39 l 178 29 l 170 16 q 153 11 129 -1 l 114 9 q 111 8 107 8 q 101 8 101 13 q 101 17 102 19 l 92 25 q 92 29 95 35 l 82 48 l 90 58 l 79 58 l 72 77 l 79 83 l 70 96 q 70 121 73 122 l 74 139 q 74 148 79 160 l 71 166 q 79 177 79 185 q 79 191 74 201 q 80 204 80 217 q 80 222 79 230 l 75 263 l 87 333 q 86 351 82 371 l 78 388 q 78 404 95 404 l 110 400 l 117 391 l 113 370 l 111 320 l 113 288 l 106 272 l 110 262 l 106 247 l 106 234 q 102 232 104 228 q 105 223 105 221 q 105 215 101 210 l 108 201 l 98 189 l 104 180 l 101 167 l 104 151 l 104 132 l 110 125 l 105 101 q 105 95 111 86 l 108 75 l 113 61 q 121 56 134 42 q 145 43 153 52 q 161 60 174 69 q 174 70 170 70 q 186 77 186 86 q 197 87 202 90 l 204 102 l 214 106 q 225 120 247 125 l 248 135 l 266 150 q 269 169 287 170 l 291 183 l 300 187 l 313 206 l 319 206 l 319 212 l 328 217 l 334 231 q 346 237 358 242 l 362 253 l 369 256 l 369 262 l 373 263 q 375 287 390 287 l 387 290 l 406 345 l 410 345 l 410 359 l 411 359 q 415 359 428 395 l 446 397 l 444 393 l 454 374 l 446 337 l 431 315 l 421 278 l 408 269 l 408 247 l 401 233 l 403 217 l 396 210 l 398 166 l 394 112 l 397 106 l 396 98 l 399 98 l 399 83 q 415 60 415 53 l 429 50 l 432 41 q 446 35 456 30 l 469 31 l 480 28 l 496 34 q 503 37 516 48 z"},"]":{"x_min":0,"x_max":400,"ha":400,"o":"m 288 633 l 256 615 l 258 592 q 249 582 249 565 l 250 553 q 250 548 256 544 l 243 524 l 247 506 l 243 501 l 243 485 l 249 482 l 238 460 l 242 441 l 236 428 l 236 410 l 233 400 l 236 380 l 234 371 l 236 352 l 233 337 q 230 321 230 314 q 225 311 225 281 q 225 278 227 266 q 230 262 230 259 q 230 257 225 245 q 219 232 217 214 l 210 162 l 217 140 l 211 101 l 215 73 l 215 63 l 208 54 l 219 15 q 214 14 211 2 l 215 -11 l 215 -49 l 222 -56 l 218 -59 l 222 -68 l 220 -73 l 231 -73 l 236 -81 l 246 -73 l 282 -82 l 272 -97 q 257 -95 252 -95 q 237 -95 230 -105 l 220 -104 l 217 -97 l 208 -97 l 202 -93 l 185 -100 l 175 -97 l 169 -100 q 143 -100 131 -107 l 119 -104 l 106 -114 l 98 -110 l 89 -114 l 73 -114 l 55 -117 l 50 -112 q 51 -110 51 -106 q 51 -98 44 -91 l 56 -89 q 62 -88 73 -80 l 83 -81 q 88 -81 99 -75 q 109 -72 119 -72 q 126 -72 131 -75 l 135 -75 q 145 -75 150 -73 q 155 -72 160 -72 q 167 -72 175 -77 l 192 -68 l 208 -73 l 202 -53 l 202 -40 l 194 -20 l 190 -2 q 187 4 187 8 l 188 13 l 192 19 l 188 22 l 187 57 l 183 82 l 187 98 l 183 127 l 187 140 l 183 166 l 188 181 l 185 194 l 190 198 l 187 211 l 192 250 l 190 281 q 194 285 194 289 q 194 294 190 298 q 198 327 198 338 l 198 341 l 195 368 l 198 382 q 200 388 200 396 q 200 403 202 408 q 204 414 204 421 l 204 458 l 207 475 l 207 505 l 202 524 l 202 556 q 202 604 190 604 l 175 599 q 167 597 160 597 l 145 596 q 138 595 117 587 l 108 590 l 83 587 l 75 581 l 71 587 l 37 588 q 30 581 22 581 q 13 581 6 586 q -1 592 -1 597 l -1 604 l -9 611 q 3 618 19 618 q 37 618 53 608 l 71 613 l 80 610 l 98 616 q 106 616 121 608 q 121 617 135 617 l 154 617 l 161 618 q 171 620 182 622 q 192 624 198 629 q 203 634 211 647 q 235 638 246 631 q 269 640 279 640 q 287 640 288 633 z"},"U":{"x_min":0,"x_max":713,"ha":713,"o":"m 733 -9 l 730 -32 l 704 -41 l 701 -51 l 687 -46 l 670 -57 l 659 -58 q 635 -58 626 -48 q 617 -37 615 -37 l 610 -41 q 589 -30 576 -7 l 580 -5 l 560 18 l 553 45 l 541 64 l 534 90 l 525 109 l 510 201 l 509 240 q 502 255 500 269 q 499 270 496 270 q 492 270 491 269 l 470 240 l 450 225 q 450 220 432 201 l 422 195 q 418 192 402 175 q 402 165 391 162 l 379 148 l 363 141 l 349 122 l 272 62 l 238 41 l 226 31 q 218 25 212 23 l 196 18 l 194 7 l 190 6 l 192 2 l 169 2 l 162 -1 l 167 -5 l 146 -7 q 130 11 125 14 l 125 32 l 116 41 l 106 102 l 103 110 l 100 150 l 106 170 l 103 185 l 106 201 l 102 253 l 98 262 q 101 267 107 271 q 113 275 113 283 l 106 292 l 110 313 l 102 329 l 102 340 l 110 353 l 106 372 l 113 402 l 109 441 l 113 464 l 109 468 l 116 468 q 116 480 121 480 l 124 480 q 124 481 121 484 q 151 479 157 450 l 150 439 l 138 379 q 136 367 136 362 q 136 353 146 331 q 133 268 133 236 q 133 227 133 222 q 134 217 141 208 q 138 194 137 164 l 130 153 l 141 144 l 132 137 q 129 130 129 123 q 129 111 134 100 q 140 89 143 73 q 146 56 153 48 l 169 48 l 192 47 l 194 53 q 200 55 201 55 q 204 55 206 53 l 206 54 q 206 59 213 61 l 215 75 l 233 71 l 240 86 l 256 93 q 259 102 267 102 q 270 102 276 100 l 278 110 q 296 123 306 124 l 306 132 l 317 134 l 322 139 q 331 139 333 142 q 336 145 340 160 l 368 175 l 372 187 l 379 185 l 386 202 l 404 210 l 407 217 l 418 225 l 418 238 l 427 242 l 437 256 l 453 263 l 455 272 l 461 272 l 457 276 q 463 287 474 287 l 477 287 l 477 299 l 484 302 l 506 345 q 509 356 514 372 l 518 395 l 524 407 q 527 413 530 430 l 531 448 q 532 457 537 470 l 547 478 l 562 470 q 569 460 583 450 l 578 441 l 580 423 q 580 411 566 411 l 562 407 l 562 398 l 555 386 l 555 368 l 548 349 l 550 324 q 540 311 540 307 q 540 301 546 296 q 552 291 553 287 l 547 285 l 541 272 l 547 256 l 544 225 l 553 210 l 550 210 q 543 210 545 204 q 550 186 550 167 q 557 160 557 155 q 557 152 553 150 l 560 128 q 567 96 585 48 l 596 32 q 602 18 610 10 l 638 -17 l 675 -25 l 679 -17 l 689 -22 q 696 -15 701 -14 q 706 -7 715 -7 z"},"o":{"x_min":0,"x_max":408,"ha":408,"o":"m 364 238 l 357 217 l 361 208 l 357 185 q 357 180 350 169 l 350 157 l 343 137 l 337 128 q 334 125 327 103 l 320 100 l 316 87 l 305 80 l 297 62 l 282 55 l 281 42 l 268 37 q 259 25 256 21 q 253 18 243 15 q 232 11 229 9 q 227 -7 201 -9 q 195 -16 187 -16 q 185 -16 179 -14 q 166 -26 154 -29 l 146 -41 l 133 -33 l 130 -39 l 115 -33 l 80 -30 q 71 -12 54 6 l 58 19 l 44 55 l 50 67 l 44 94 l 50 110 q 50 112 48 123 q 47 133 47 136 q 47 146 57 153 l 57 158 q 57 169 63 180 l 69 180 q 76 188 76 199 l 73 206 l 76 221 l 76 231 q 85 242 85 253 l 82 269 q 82 276 85 281 q 100 289 100 296 q 100 301 96 306 l 106 323 q 108 327 112 330 q 116 332 117 333 l 115 343 q 131 344 131 359 q 131 368 128 377 q 161 377 172 411 l 178 411 q 185 418 188 418 q 189 418 197 416 q 204 413 220 413 l 236 420 l 236 413 q 246 412 261 402 l 275 402 q 280 392 284 392 l 286 393 q 297 375 309 368 l 314 356 l 323 352 l 339 329 l 355 283 l 355 274 z m 332 210 q 338 217 338 222 q 338 226 334 229 q 331 233 331 234 l 337 234 q 335 240 330 244 l 332 247 l 325 263 l 327 285 l 318 301 q 307 308 307 311 l 307 314 q 307 318 303 319 q 300 320 300 323 l 300 324 q 300 326 304 337 l 298 342 l 288 343 l 284 350 l 288 356 l 275 363 l 265 372 l 237 384 l 225 386 q 196 386 197 370 l 198 337 l 178 336 l 147 317 l 144 306 l 133 299 l 128 270 l 118 263 q 115 262 115 249 q 115 238 117 231 l 105 224 q 101 222 101 205 q 101 197 92 190 l 92 180 l 83 166 l 83 157 l 80 151 l 82 137 l 69 105 l 73 94 l 73 71 l 69 54 l 70 30 l 84 11 q 87 7 102 0 l 105 -5 l 112 -3 l 118 -5 l 130 0 l 154 -1 l 165 2 l 168 9 l 178 8 q 194 8 194 18 l 208 14 l 211 22 l 220 23 l 225 34 q 236 42 237 48 l 253 48 l 258 58 l 275 73 l 281 83 q 285 88 290 91 l 304 98 q 307 112 313 126 l 311 135 l 325 141 l 323 146 q 329 154 334 160 l 329 160 q 333 166 333 169 q 333 172 332 176 q 330 181 330 182 q 330 188 333 196 q 336 203 336 205 q 336 208 332 210 z"},"N":{"x_min":0,"x_max":757,"ha":757,"o":"m 677 422 l 664 402 l 666 386 l 671 388 q 671 381 664 365 l 658 352 l 658 301 l 648 278 l 650 263 l 641 218 l 645 206 l 637 170 l 639 154 l 632 128 l 639 103 l 623 78 l 627 64 l 618 47 l 623 37 l 627 -10 l 634 -25 q 626 -30 623 -37 l 614 -35 l 609 14 l 602 16 q 601 25 601 34 q 601 43 600 52 l 600 71 q 600 82 597 87 l 591 100 l 572 103 l 561 116 l 556 110 l 547 121 l 531 116 l 511 132 l 501 130 l 481 134 l 469 146 l 462 144 l 401 183 l 394 192 l 373 201 l 360 218 l 348 224 l 332 240 l 287 260 l 255 301 l 241 302 l 234 313 q 220 319 202 340 l 207 340 q 198 348 191 363 l 184 365 l 182 365 q 171 365 168 358 q 165 352 161 329 l 152 278 l 161 247 l 147 196 q 153 165 153 162 l 153 158 q 153 146 146 139 q 140 131 140 128 q 140 125 153 121 l 147 100 l 147 75 l 142 48 l 147 37 l 142 30 q 140 0 129 -17 l 122 -17 q 110 -17 110 2 l 110 6 l 122 45 l 117 61 l 124 82 l 117 90 l 125 106 l 114 121 q 116 133 116 140 q 116 148 114 162 l 118 160 l 122 170 l 114 185 l 122 208 l 117 238 l 124 270 l 118 292 l 125 340 l 124 377 l 129 411 l 124 422 l 125 470 l 136 473 q 123 486 123 496 q 123 502 129 507 l 147 503 l 152 510 q 161 502 161 494 q 161 488 156 480 l 170 480 l 172 457 l 184 447 l 186 432 l 202 422 l 208 401 q 210 390 218 384 l 251 360 l 251 358 q 251 350 261 340 l 284 324 l 309 295 l 387 230 l 396 230 q 407 221 410 214 q 413 207 415 206 l 447 196 l 472 175 l 487 170 l 515 154 l 542 146 q 567 121 584 121 l 599 125 l 602 125 l 604 153 l 618 183 l 611 190 l 614 237 l 625 254 l 624 265 q 623 270 614 285 l 625 324 l 620 361 l 630 432 l 618 445 l 632 486 l 627 491 l 634 500 l 632 507 l 647 514 l 650 507 l 664 510 q 661 500 661 491 q 661 481 666 474 q 671 466 671 464 l 664 445 z"},"+":{"x_min":0,"x_max":833,"ha":833,"o":"m 709 279 l 436 279 l 436 0 l 397 0 l 397 279 l 124 279 l 124 318 l 397 318 l 397 596 l 436 596 l 436 318 l 709 318 z"},"G":{"x_min":0,"x_max":725,"ha":725,"o":"m 672 190 l 637 134 q 634 129 634 126 q 634 124 647 106 l 640 102 l 637 67 l 627 41 l 640 30 l 625 22 l 625 10 l 634 2 l 630 -17 l 634 -39 l 630 -53 l 637 -61 l 630 -69 l 634 -93 l 625 -117 l 637 -128 l 634 -154 l 647 -177 q 646 -190 637 -190 q 633 -190 628 -184 q 622 -178 622 -177 l 617 -145 l 605 -141 l 605 -128 l 594 -101 l 594 -85 l 589 -78 l 590 -67 l 583 -64 l 587 -55 l 579 -55 q 581 -50 583 -50 q 586 -50 589 -53 l 582 -37 l 587 -23 l 583 -10 l 590 -1 l 583 2 q 589 10 589 19 l 583 62 l 590 82 l 587 87 q 583 88 583 98 q 581 106 575 113 l 566 106 q 558 96 548 91 q 537 87 513 87 q 489 86 480 78 l 471 70 l 435 62 l 419 53 l 396 53 l 380 45 l 359 47 l 345 37 l 332 41 l 323 32 q 317 32 309 34 q 301 36 298 36 q 289 36 281 30 q 277 34 271 34 q 267 34 265 32 l 261 31 l 256 32 l 240 23 l 225 35 l 213 29 l 181 39 l 175 35 l 163 41 l 138 41 l 126 51 l 105 61 l 67 100 l 62 130 l 51 144 l 58 160 l 50 170 l 55 176 l 48 187 l 51 192 l 64 194 l 64 206 l 73 222 l 75 218 q 88 231 88 244 l 87 249 q 108 252 113 285 l 105 272 q 115 299 126 299 l 128 299 l 124 292 q 133 296 133 305 l 133 308 l 144 310 l 142 306 l 149 308 l 151 322 l 156 318 l 156 325 l 167 325 l 175 331 q 178 334 185 349 l 206 353 q 227 374 227 379 l 242 384 l 247 393 l 266 395 l 282 411 q 298 413 313 422 l 316 427 l 318 425 l 327 432 l 325 434 q 334 440 337 440 q 339 440 345 437 q 354 455 366 455 l 387 455 q 396 455 410 471 l 419 470 l 435 480 l 442 478 q 449 483 460 485 q 472 488 473 491 l 478 494 l 483 493 l 505 494 l 509 502 l 521 500 l 542 503 l 544 507 l 560 500 l 575 500 l 593 485 q 602 483 618 473 q 614 451 582 445 l 551 461 l 542 457 l 525 464 l 513 457 l 496 462 l 467 447 l 455 453 q 424 445 419 442 q 413 438 410 434 q 396 423 387 423 q 384 423 378 425 q 310 386 298 388 l 295 379 l 287 379 l 277 365 l 263 363 q 251 348 231 338 q 210 329 206 325 l 181 301 l 165 288 l 149 266 l 117 240 l 117 218 l 112 213 l 94 167 l 94 150 q 94 138 104 130 q 113 122 113 112 q 113 108 112 106 l 124 93 l 151 78 l 179 70 l 213 71 l 253 63 l 259 64 l 267 62 l 325 67 q 351 77 396 78 l 394 82 l 442 87 l 442 90 l 496 103 q 506 113 535 116 q 563 119 575 122 l 573 130 l 579 130 l 579 134 l 594 138 l 590 148 l 601 160 l 601 178 q 595 181 594 183 q 597 190 597 199 q 597 208 594 217 l 625 218 l 634 210 l 643 210 l 658 192 z"},"q":{"x_min":0,"x_max":582,"ha":582,"o":"m 582 -289 q 570 -298 570 -302 q 569 -299 554 -295 l 542 -304 l 535 -299 l 515 -299 l 513 -293 l 506 -297 q 483 -280 480 -272 l 473 -270 l 467 -253 l 460 -249 l 458 -234 l 447 -222 l 437 -185 l 439 -180 l 434 -169 q 439 -161 439 -159 q 439 -157 435 -151 l 430 -137 l 428 -106 l 423 -81 l 426 -69 l 423 -61 q 426 -47 425 -38 l 423 -22 l 428 -1 l 425 9 l 426 41 l 426 75 l 428 86 l 425 94 l 430 170 l 426 205 q 424 213 421 215 q 414 208 410 201 l 405 201 l 400 189 l 386 182 l 380 169 q 376 167 370 156 q 365 145 355 142 l 355 138 l 332 118 l 326 110 q 322 105 316 102 l 300 94 l 298 87 l 288 80 l 274 67 l 265 63 q 261 62 252 53 l 243 53 q 235 47 218 42 l 210 30 l 194 26 l 190 16 l 185 25 q 175 19 172 13 l 165 16 l 160 13 l 152 14 l 138 13 l 131 18 l 125 7 l 124 10 q 118 10 108 18 l 103 18 l 103 22 l 90 22 q 77 36 69 37 l 64 51 l 58 62 q 53 80 51 83 l 53 98 l 48 113 l 53 132 q 55 162 60 162 l 62 169 l 62 171 q 62 174 61 180 q 70 188 70 205 l 70 210 l 78 219 l 76 224 q 80 226 85 242 l 90 242 l 96 260 l 101 258 l 103 278 l 106 281 l 113 278 q 111 282 111 284 q 111 291 122 297 q 129 310 135 313 q 145 317 145 324 q 145 327 144 329 q 153 330 156 334 q 165 337 165 349 l 169 349 l 169 352 l 190 368 l 190 377 q 194 374 198 374 q 202 374 206 377 l 204 381 q 213 385 222 385 l 236 384 l 242 402 l 268 402 l 274 416 l 281 409 q 284 411 291 411 q 302 411 318 407 l 323 413 q 335 406 339 406 q 342 406 348 409 l 353 398 l 357 398 l 355 402 q 357 404 361 404 q 365 404 372 401 q 378 399 383 396 q 387 393 387 384 q 396 384 396 377 q 406 368 412 368 q 414 368 416 370 l 418 361 q 416 365 413 365 q 412 365 410 363 l 418 356 l 426 356 l 419 327 l 403 325 l 394 340 l 366 358 l 357 370 l 348 366 l 336 370 l 329 365 l 320 370 l 306 366 l 290 370 l 279 361 l 272 368 l 252 353 l 247 358 l 245 353 l 236 352 l 222 337 l 215 343 l 211 331 l 206 333 l 190 317 l 178 311 l 167 295 l 154 283 l 115 228 l 109 206 l 103 206 l 82 153 l 82 135 l 76 125 l 78 82 l 83 62 q 89 57 108 57 q 112 53 115 53 l 142 62 l 138 55 l 169 58 l 167 62 l 174 62 l 172 58 l 178 62 l 176 66 q 188 66 194 70 q 200 74 220 82 l 222 90 l 237 94 q 241 101 252 101 q 256 101 259 98 l 256 106 l 261 109 l 261 118 q 271 118 279 121 q 287 123 294 132 q 300 141 302 143 q 304 146 314 151 l 316 157 l 322 154 l 323 164 l 336 167 l 337 173 q 346 177 350 187 l 357 187 l 366 201 l 370 201 l 373 208 l 378 210 l 378 217 l 387 222 q 387 233 390 233 q 392 233 394 231 l 398 244 q 400 242 401 242 q 403 242 403 250 l 407 254 l 410 250 l 410 260 l 418 266 l 414 274 l 421 272 l 421 285 l 432 297 l 428 313 l 435 318 l 435 336 l 441 343 l 439 363 l 442 374 l 442 386 l 448 386 l 451 400 l 458 393 q 464 395 466 395 q 469 395 472 393 q 476 391 476 390 l 480 375 l 478 358 l 480 347 q 480 338 474 321 q 467 303 466 292 l 462 254 l 464 224 l 458 217 l 460 206 l 460 170 l 455 154 l 457 125 l 448 82 l 451 61 q 455 54 455 42 l 450 41 l 453 30 l 451 25 l 453 6 l 448 -14 l 451 -30 l 448 -51 l 455 -65 l 453 -74 l 455 -87 l 451 -97 l 457 -105 l 455 -125 l 460 -132 l 466 -170 l 471 -176 l 470 -189 l 475 -190 l 475 -209 l 483 -213 l 483 -225 q 500 -240 508 -265 l 513 -260 l 534 -270 l 546 -269 l 553 -269 q 557 -267 565 -267 q 575 -267 582 -272 z"},"d":{"x_min":0,"x_max":547,"ha":547,"o":"m 475 47 q 464 8 448 -5 q 437 -1 432 6 l 414 34 l 407 50 l 394 96 l 394 141 l 391 180 l 394 202 l 391 221 l 391 249 l 382 262 l 378 254 l 370 253 l 355 218 l 337 192 l 329 192 l 327 182 q 325 176 321 168 q 317 161 311 151 l 284 121 l 263 90 l 240 66 q 232 53 222 41 l 208 30 q 202 25 192 10 l 175 4 q 172 3 163 -7 l 151 -9 q 146 -10 131 -19 l 122 -17 l 119 -23 l 108 -22 l 76 2 q 68 13 64 31 q 61 49 53 50 l 48 48 l 58 64 l 53 80 l 57 93 l 55 112 l 62 142 l 62 170 l 69 180 l 69 205 q 76 219 76 228 l 80 231 l 80 249 l 89 265 l 90 279 q 96 288 99 299 l 104 329 q 105 339 115 347 l 116 358 q 117 363 123 371 q 128 379 128 386 q 143 401 153 407 l 151 411 q 157 413 158 416 q 160 415 164 415 q 168 415 170 416 l 165 418 l 208 430 q 217 431 225 432 q 233 432 233 435 l 233 436 l 249 437 l 258 432 l 263 434 q 265 429 271 429 q 273 429 275 430 l 291 429 l 291 425 l 295 427 l 310 414 l 325 418 l 334 402 l 350 389 q 353 386 359 374 l 375 365 q 383 357 387 357 q 390 357 391 361 l 398 395 l 406 413 l 403 439 l 407 486 l 403 498 q 410 507 410 519 l 406 528 l 409 555 l 406 583 l 410 589 l 406 592 q 411 597 411 600 q 411 602 409 606 q 412 613 412 620 q 412 627 409 635 l 414 635 q 412 639 412 644 q 412 650 422 656 l 418 658 l 423 659 q 428 659 430 651 q 438 649 439 638 l 434 638 l 435 622 l 434 613 l 428 613 l 439 601 l 435 587 l 442 571 l 437 564 q 442 552 442 546 q 442 540 439 534 l 447 528 q 442 525 442 522 q 442 517 450 514 l 450 511 q 450 505 442 500 l 442 491 q 442 467 434 407 q 435 405 435 400 q 435 393 430 381 l 434 372 l 428 349 l 425 325 q 425 320 419 308 l 422 297 l 416 279 l 422 265 l 414 234 l 419 210 l 416 196 l 418 183 l 412 180 q 422 164 422 163 q 422 159 416 157 l 418 151 l 416 148 l 423 141 l 418 125 l 425 103 l 422 96 l 425 89 l 419 71 l 424 66 l 432 66 l 439 57 l 453 61 l 458 53 z m 380 320 l 374 322 l 364 331 l 355 336 q 354 337 348 349 q 342 361 334 368 q 329 370 325 374 l 325 381 l 310 384 l 295 392 q 291 395 283 397 q 276 399 263 402 l 233 398 l 224 393 l 215 400 l 199 395 l 179 395 l 176 386 l 170 384 q 170 375 174 374 q 168 365 149 352 l 142 334 l 133 329 l 124 302 l 121 272 l 112 263 l 112 246 q 101 236 101 230 l 103 206 l 87 175 l 83 153 l 82 119 l 85 112 l 78 98 l 83 90 l 75 73 q 83 58 89 37 l 98 32 l 96 26 l 106 26 q 116 19 118 19 q 119 19 123 24 q 126 29 138 29 l 138 25 q 145 30 146 34 q 154 34 154 41 l 163 45 l 167 42 l 170 53 l 190 61 l 192 70 l 206 78 l 206 83 l 217 94 l 220 93 q 224 93 224 100 l 231 100 l 231 106 l 247 113 l 243 128 l 254 135 l 247 142 q 249 141 253 141 q 258 141 265 146 l 266 150 l 277 151 l 288 180 l 298 190 l 302 208 l 314 212 q 328 235 336 242 l 336 256 l 345 260 l 370 310 z"},"1":{"x_min":0,"x_max":491,"ha":491,"o":"m 453 18 q 463 11 463 8 q 463 3 455 3 l 412 2 l 375 -6 l 336 2 q 338 0 338 -1 q 338 -2 334 -2 q 331 -3 329 -5 q 317 1 302 1 l 276 -1 l 251 0 l 245 -3 l 211 2 l 200 0 l 198 6 l 170 0 l 157 0 q 150 -1 139 -7 l 133 -1 l 130 -1 q 126 -1 123 -5 q 120 -9 118 -9 l 117 -9 l 112 -5 l 98 -5 q 95 -8 90 -8 q 83 -8 69 0 q 71 -2 71 -4 q 71 -6 66 -7 l 62 -9 q 53 -9 50 -8 q 47 -6 46 -3 q 45 0 42 3 l 29 8 l 34 14 q 26 21 25 27 q 30 32 42 36 q 53 39 56 39 q 58 39 61 37 q 63 34 69 34 l 106 39 l 125 45 l 149 43 l 178 35 q 188 33 190 33 q 198 33 211 38 l 208 50 l 211 56 l 200 78 l 202 94 q 199 98 199 102 q 199 106 203 106 q 198 118 198 147 q 198 152 209 159 l 210 168 l 208 185 q 212 191 212 198 q 212 208 202 216 l 200 227 l 208 230 l 203 240 l 211 256 l 205 274 l 213 283 l 219 315 l 219 319 q 219 325 221 333 l 229 339 l 221 352 q 219 354 219 358 l 227 379 l 213 379 q 207 381 203 381 q 196 381 191 378 q 186 375 182 375 q 178 375 168 371 q 159 366 158 366 l 147 366 q 129 357 118 355 l 106 342 l 96 347 l 80 343 q 61 341 48 330 q 41 334 32 336 q 23 338 7 346 l 3 355 q 7 365 16 365 q 19 365 25 363 q 30 355 41 355 q 44 355 50 357 l 56 359 q 60 359 65 357 q 70 356 72 356 q 75 356 80 363 q 84 370 101 373 l 113 376 l 119 376 q 132 376 143 385 q 154 394 158 395 q 161 392 164 392 q 170 392 173 403 q 188 406 188 408 q 188 409 184 411 l 195 411 q 199 411 204 428 l 200 434 l 205 437 l 218 434 q 223 434 234 438 q 245 443 243 452 q 241 461 241 465 q 241 472 245 480 l 272 487 l 299 487 l 311 474 q 313 464 313 463 q 313 460 311 458 l 280 430 q 278 428 278 424 q 278 417 288 410 l 274 402 q 274 396 278 392 l 262 379 q 264 377 264 376 q 264 375 260 368 q 256 361 256 354 q 256 352 258 344 l 253 330 q 251 324 250 319 q 250 314 249 307 q 248 300 248 296 q 247 291 241 282 l 245 274 l 235 254 l 238 237 l 235 222 l 230 221 l 236 205 l 230 187 q 235 174 235 172 q 235 166 227 163 q 236 154 237 146 l 227 140 q 230 135 230 132 q 230 129 229 128 q 232 117 232 109 q 232 97 225 91 q 228 80 237 77 q 233 67 233 65 q 233 60 238 56 q 235 53 235 50 q 235 44 247 35 q 249 27 258 27 l 261 27 l 266 34 l 274 30 l 288 34 l 290 25 l 314 34 l 312 27 l 337 21 q 343 24 350 24 q 358 24 367 18 l 377 18 q 386 19 397 21 q 407 24 410 24 q 414 24 424 21 q 435 19 442 18 l 446 11 z"},"5":{"x_min":0,"x_max":571,"ha":571,"o":"m 647 502 q 640 498 631 494 l 615 493 q 606 493 600 490 l 582 483 l 564 487 l 525 477 q 519 479 513 482 l 500 477 l 478 480 q 477 481 475 481 q 472 481 465 474 l 391 463 l 358 466 l 350 462 l 345 466 l 305 459 l 284 464 l 266 459 l 252 462 l 242 452 l 224 450 l 224 440 l 209 405 l 209 395 l 201 392 q 190 374 189 364 q 186 361 186 355 l 178 350 q 174 333 159 323 q 159 316 142 309 l 150 298 l 156 304 q 168 296 178 296 q 187 296 187 306 l 210 308 q 221 308 228 301 q 243 306 250 306 q 258 306 266 301 l 289 306 l 343 304 l 358 298 q 361 301 366 301 q 371 301 375 298 q 378 296 396 295 q 414 294 425 290 l 453 278 l 466 259 q 468 256 486 247 l 494 213 l 500 205 l 498 192 l 499 178 q 493 172 490 142 l 486 139 q 472 105 468 102 q 463 98 457 98 q 430 63 430 56 q 422 56 415 47 q 408 37 394 33 q 385 31 380 24 q 375 17 367 15 q 359 12 344 9 q 330 6 320 -1 q 310 -8 289 -8 l 278 -7 q 262 -7 253 -16 l 239 -11 l 222 -17 l 201 -14 l 193 -17 q 187 -9 175 -9 l 171 -9 q 163 -5 157 -5 q 149 -5 140 -8 l 124 3 l 113 -1 l 95 14 l 78 14 l 62 29 l 25 43 l 26 53 l 10 72 l 1 112 q -1 118 -1 119 q -1 121 1 122 q 3 124 3 126 q 3 127 1 131 q 10 137 15 137 q 25 137 25 128 l 23 88 q 28 79 33 72 q 38 65 41 62 q 44 59 60 53 l 70 38 l 83 36 q 89 35 108 24 l 121 24 l 132 16 l 142 18 l 150 11 l 189 9 l 210 10 l 225 7 l 247 14 q 252 14 262 10 l 277 18 l 294 18 l 306 21 q 326 37 355 38 l 353 43 l 355 51 l 375 51 q 380 58 390 61 l 398 67 q 403 78 408 78 l 410 78 q 425 85 429 98 q 433 111 439 123 l 449 122 l 449 125 q 449 128 457 139 q 464 150 464 161 q 464 165 463 168 l 466 170 l 465 186 l 470 195 l 463 205 l 463 221 l 457 234 l 423 253 l 415 261 l 406 261 l 400 264 l 387 262 l 377 269 l 367 264 l 355 274 l 343 270 l 316 275 l 294 275 l 282 278 l 262 272 l 247 278 l 230 272 l 209 272 l 177 266 l 167 270 l 142 262 l 132 266 q 114 253 111 248 l 87 248 l 89 264 l 81 272 l 86 275 l 86 283 l 98 282 l 97 304 l 108 307 q 130 331 130 339 l 130 341 q 133 342 139 358 q 146 373 152 374 q 159 375 161 377 q 164 378 166 383 l 169 395 l 182 426 l 174 432 q 171 428 170 426 l 182 445 q 176 448 166 448 l 159 448 l 155 458 q 153 462 143 470 l 151 482 l 189 490 l 194 485 l 204 494 l 226 491 q 230 498 243 498 l 259 498 l 306 494 l 310 498 l 337 499 l 353 493 l 430 502 l 475 498 q 477 498 483 496 q 490 494 494 494 q 499 494 508 497 l 516 499 l 561 501 l 592 505 q 624 507 627 510 q 636 505 647 502 z"}}}
